Yaldevi.glyphspackage
{
glyphname = AE;
layers = (
{
anchors = (
{
name = top;
position = "{521, 745}";
}
);
background = {
paths = (
{
closed = 1;
nodes = (
"901 0 LINE",
"901 152 LINE",
"643 152 LINE",
"643 322 LINE",
"885 322 LINE",
"885 467 LINE",
"643 467 LINE",
"643 619 LINE",
"894 619 LINE",
"894 768 LINE",
"380 768 LINE",
"18 0 LINE",
"198 0 LINE",
"269 159 LINE",
"473 159 LINE",
"473 0 LINE"
);
},
{
closed = 1;
nodes = (
"473 297 LINE",
"327 297 LINE",
"403 456 LINE SMOOTH",
"430 512 OFFCURVE",
"450 562 OFFCURVE",
"471 619 CURVE",
"473 619 LINE"
);
}
);
};
components = (
{
name = E;
transform = "{1, 0, 0, 1, 416, 0}";
}
);
layerId = "6114C541-D024-4A3E-9713-6FAF49EAB318";
paths = (
{
closed = 1;
nodes = (
"152 0 LINE",
"415 528 LINE SMOOTH",
"445 586 OFFCURVE",
"470 643 OFFCURVE",
"495 700 CURVE",
"485 700 LINE",
"574 768 LINE",
"394 768 LINE",
"-3 0 LINE"
);
},
{
closed = 1;
nodes = (
"530 166 LINE",
"530 280 LINE",
"204 280 LINE",
"204 166 LINE"
);
}
);
width = 946;
},
{
anchors = (
{
name = top;
position = "{533, 723}";
}
);
background = {
paths = (
{
closed = 1;
nodes = (
"864 0 LINE",
"864 50 LINE",
"546 50 LINE",
"546 372 LINE",
"839 372 LINE",
"839 421 LINE",
"546 421 LINE",
"546 719 LINE",
"850 719 LINE",
"850 768 LINE",
"455 768 LINE",
"20 0 LINE",
"88 0 LINE",
"199 201 LINE",
"485 201 LINE",
"485 0 LINE"
);
},
{
closed = 1;
nodes = (
"485 251 LINE",
"226 251 LINE",
"402 566 LINE SMOOTH",
"445 643 OFFCURVE",
"464 682 OFFCURVE",
"481 716 CURVE",
"485 716 LINE"
);
}
);
};
components = (
{
name = E;
transform = "{1, 0, 0, 1, 395, 0}";
}
);
layerId = "CC11FE7D-5FF0-4B40-9597-DFC61EB94F41";
paths = (
{
closed = 1;
nodes = (
"67 0 LINE",
"380 538 LINE SMOOTH",
"419 605 OFFCURVE",
"456 671 OFFCURVE",
"495 739 CURVE",
"492 739 LINE",
"531 768 LINE",
"461 768 LINE",
"11 0 LINE"
);
},
{
closed = 1;
nodes = (
"519 206 LINE",
"519 246 LINE",
"184 245 LINE",
"163 205 LINE"
);
}
);
width = 921;
},
{
anchors = (
{
name = top;
position = "{521, 745}";
}
);
components = (
{
name = E;
transform = "{1, 0, 0, 1, 416, 0}";
}
);
layerId = "700B375B-E5F6-4156-8225-245C9DB4E923";
paths = (
{
closed = 1;
nodes = (
"152 0 LINE",
"415 528 LINE SMOOTH",
"445 586 OFFCURVE",
"470 643 OFFCURVE",
"495 700 CURVE",
"485 700 LINE",
"574 768 LINE",
"394 768 LINE",
"-3 0 LINE"
);
},
{
closed = 1;
nodes = (
"530 166 LINE",
"530 280 LINE",
"204 280 LINE",
"204 166 LINE"
);
}
);
width = 946;
}
);
leftMetricsKey = A;
rightMetricsKey = E;
unicode = 00C6;
}
{
glyphname = Eth;
layers = (
{
components = (
{
name = D;
transform = "{1, 0, 0, 1, 12, 0}";
}
);
layerId = "6114C541-D024-4A3E-9713-6FAF49EAB318";
paths = (
{
closed = 1;
nodes = (
"3 452 LINE",
"3 338 LINE",
"354 338 LINE",
"354 452 LINE"
);
}
);
width = 675;
},
{
components = (
{
name = D;
transform = "{1, 0, 0, 1, 2, 0}";
}
);
layerId = "CC11FE7D-5FF0-4B40-9597-DFC61EB94F41";
paths = (
{
closed = 1;
nodes = (
"8 422 LINE",
"8 382 LINE",
"332 382 LINE",
"332 422 LINE"
);
}
);
width = 639;
}
);
unicode = 00D0;
}
{
glyphname = Icircumflex;
layers = (
{
background = {
paths = (
{
closed = 1;
nodes = (
"149 1029 LINE",
"-40 889 LINE",
"19 815 LINE",
"155 906 LINE",
"137 906 LINE",
"272 813 LINE",
"336 889 LINE"
);
}
);
};
components = (
{
name = I;
}
);
layerId = "6114C541-D024-4A3E-9713-6FAF49EAB318";
paths = (
{
closed = 1;
nodes = (
"147 1029 LINE",
"-25 889 LINE",
"34 815 LINE",
"152 906 LINE",
"134 906 LINE",
"253 813 LINE",
"316 889 LINE"
);
}
);
width = 286;
},
{
components = (
{
name = I;
}
);
layerId = "CC11FE7D-5FF0-4B40-9597-DFC61EB94F41";
paths = (
{
closed = 1;
nodes = (
"124 972 LINE",
"-6 850 LINE",
"18 821 LINE",
"125 914 LINE",
"116 914 LINE",
"225 819 LINE",
"250 852 LINE"
);
}
);
width = 238;
},
{
components = (
{
name = I;
}
);
layerId = "700B375B-E5F6-4156-8225-245C9DB4E923";
paths = (
{
closed = 1;
nodes = (
"147 1029 LINE",
"-25 889 LINE",
"34 815 LINE",
"152 906 LINE",
"134 906 LINE",
"253 813 LINE",
"316 889 LINE"
);
}
);
width = 286;
}
);
unicode = 00CE;
}
{
glyphname = Idieresis;
layers = (
{
components = (
{
name = I;
}
);
layerId = "6114C541-D024-4A3E-9713-6FAF49EAB318";
paths = (
{
closed = 1;
nodes = (
"74 832 OFFCURVE",
"114 859 OFFCURVE",
"114 917 CURVE SMOOTH",
"114 973 OFFCURVE",
"75 999 OFFCURVE",
"38 999 CURVE SMOOTH",
"-1 999 OFFCURVE",
"-40 973 OFFCURVE",
"-40 917 CURVE SMOOTH",
"-40 859 OFFCURVE",
"-2 832 OFFCURVE",
"36 832 CURVE SMOOTH"
);
},
{
closed = 1;
nodes = (
"287 832 OFFCURVE",
"327 859 OFFCURVE",
"327 917 CURVE SMOOTH",
"327 973 OFFCURVE",
"288 999 OFFCURVE",
"249 999 CURVE SMOOTH",
"212 999 OFFCURVE",
"173 973 OFFCURVE",
"173 917 CURVE SMOOTH",
"173 859 OFFCURVE",
"211 832 OFFCURVE",
"248 832 CURVE SMOOTH"
);
}
);
width = 286;
},
{
components = (
{
name = I;
}
);
layerId = "CC11FE7D-5FF0-4B40-9597-DFC61EB94F41";
paths = (
{
closed = 1;
nodes = (
"58 856 OFFCURVE",
"72 875 OFFCURVE",
"72 898 CURVE SMOOTH",
"72 921 OFFCURVE",
"58 940 OFFCURVE",
"35 940 CURVE SMOOTH",
"11 940 OFFCURVE",
"-2 921 OFFCURVE",
"-2 898 CURVE SMOOTH",
"-2 875 OFFCURVE",
"11 856 OFFCURVE",
"35 856 CURVE SMOOTH"
);
},
{
closed = 1;
nodes = (
"225 856 OFFCURVE",
"239 875 OFFCURVE",
"239 898 CURVE SMOOTH",
"239 921 OFFCURVE",
"225 940 OFFCURVE",
"201 940 CURVE SMOOTH",
"179 940 OFFCURVE",
"165 921 OFFCURVE",
"165 898 CURVE SMOOTH",
"165 875 OFFCURVE",
"179 856 OFFCURVE",
"201 856 CURVE SMOOTH"
);
}
);
width = 238;
},
{
components = (
{
name = I;
}
);
layerId = "700B375B-E5F6-4156-8225-245C9DB4E923";
paths = (
{
closed = 1;
nodes = (
"74 832 OFFCURVE",
"114 859 OFFCURVE",
"114 917 CURVE SMOOTH",
"114 973 OFFCURVE",
"75 999 OFFCURVE",
"38 999 CURVE SMOOTH",
"-1 999 OFFCURVE",
"-40 973 OFFCURVE",
"-40 917 CURVE SMOOTH",
"-40 859 OFFCURVE",
"-2 832 OFFCURVE",
"36 832 CURVE SMOOTH"
);
},
{
closed = 1;
nodes = (
"287 832 OFFCURVE",
"327 859 OFFCURVE",
"327 917 CURVE SMOOTH",
"327 973 OFFCURVE",
"288 999 OFFCURVE",
"249 999 CURVE SMOOTH",
"212 999 OFFCURVE",
"173 973 OFFCURVE",
"173 917 CURVE SMOOTH",
"173 859 OFFCURVE",
"211 832 OFFCURVE",
"248 832 CURVE SMOOTH"
);
}
);
width = 286;
}
);
unicode = 00CF;
}
{
glyphname = Oslash;
layers = (
{
background = {
paths = (
{
closed = 1;
nodes = (
"470 860 LINE",
"138 -60 LINE",
"232 -89 LINE",
"563 832 LINE"
);
}
);
};
components = (
{
name = O;
}
);
guideLines = (
{
position = "{32, 350}";
}
);
layerId = "6114C541-D024-4A3E-9713-6FAF49EAB318";
paths = (
{
closed = 1;
nodes = (
"475 872 LINE",
"133 -72 LINE",
"228 -100 LINE",
"568 843 LINE"
);
}
);
width = 709;
},
{
background = {
paths = (
{
closed = 1;
nodes = (
"476 840 LINE",
"156 -55 LINE",
"195 -67 LINE",
"513 828 LINE"
);
}
);
};
components = (
{
name = O;
}
);
guideLines = (
{
position = "{11, 330}";
}
);
layerId = "CC11FE7D-5FF0-4B40-9597-DFC61EB94F41";
paths = (
{
closed = 1;
nodes = (
"478 846 LINE",
"151 -66 LINE",
"190 -79 LINE",
"516 834 LINE"
);
}
);
width = 665;
},
{
components = (
{
name = O;
}
);
layerId = "700B375B-E5F6-4156-8225-245C9DB4E923";
paths = (
{
closed = 1;
nodes = (
"475 872 LINE",
"133 -72 LINE",
"228 -100 LINE",
"568 843 LINE"
);
}
);
width = 709;
}
);
unicode = 00D8;
}
{
glyphname = Thorn;
layers = (
{
layerId = "6114C541-D024-4A3E-9713-6FAF49EAB318";
paths = (
{
closed = 1;
nodes = (
"295 141 LINE SMOOTH",
"484 141 OFFCURVE",
"568 263 OFFCURVE",
"568 397 CURVE SMOOTH",
"568 556 OFFCURVE",
"438 634 OFFCURVE",
"294 634 CURVE SMOOTH",
"149 634 LINE",
"149 509 LINE",
"296 509 LINE SMOOTH",
"382 509 OFFCURVE",
"414 455 OFFCURVE",
"414 381 CURVE SMOOTH",
"414 312 OFFCURVE",
"377 266 OFFCURVE",
"306 266 CURVE SMOOTH",
"149 266 LINE",
"149 141 LINE"
);
},
{
closed = 1;
nodes = (
"224 0 LINE",
"224 768 LINE",
"74 768 LINE",
"74 0 LINE"
);
}
);
width = 591;
},
{
layerId = "CC11FE7D-5FF0-4B40-9597-DFC61EB94F41";
paths = (
{
closed = 1;
nodes = (
"272 185 LINE SMOOTH",
"424 185 OFFCURVE",
"514 283 OFFCURVE",
"514 415 CURVE SMOOTH",
"514 528 OFFCURVE",
"462 621 OFFCURVE",
"261 620 CURVE SMOOTH",
"118 619 LINE",
"118 577 LINE",
"253 578 LINE SMOOTH",
"409 579 OFFCURVE",
"462 517 OFFCURVE",
"462 405 CURVE SMOOTH",
"462 298 OFFCURVE",
"395 228 OFFCURVE",
"239 228 CURVE SMOOTH",
"119 228 LINE",
"119 185 LINE"
);
},
{
closed = 1;
nodes = (
"145 0 LINE",
"145 768 LINE",
"97 768 LINE",
"97 0 LINE"
);
}
);
width = 542;
},
{
layerId = "700B375B-E5F6-4156-8225-245C9DB4E923";
paths = (
{
closed = 1;
nodes = (
"295 141 LINE SMOOTH",
"484 141 OFFCURVE",
"568 263 OFFCURVE",
"568 397 CURVE SMOOTH",
"568 556 OFFCURVE",
"438 634 OFFCURVE",
"294 634 CURVE SMOOTH",
"149 634 LINE",
"149 509 LINE",
"296 509 LINE SMOOTH",
"382 509 OFFCURVE",
"414 455 OFFCURVE",
"414 381 CURVE SMOOTH",
"414 312 OFFCURVE",
"377 266 OFFCURVE",
"306 266 CURVE SMOOTH",
"149 266 LINE",
"149 141 LINE"
);
},
{
closed = 1;
nodes = (
"224 0 LINE",
"224 768 LINE",
"74 768 LINE",
"74 0 LINE"
);
}
);
width = 591;
}
);
unicode = 00DE;
}
{
glyphname = acute;
layers = (
{
anchors = (
{
name = _top;
position = "{148, 569}";
}
);
background = {
paths = (
{
closed = 1;
nodes = (
"325 753 LINE",
"257 848 LINE",
"51 696 LINE",
"106 621 LINE"
);
}
);
};
layerId = "6114C541-D024-4A3E-9713-6FAF49EAB318";
paths = (
{
closed = 1;
nodes = (
"339 761 LINE",
"267 868 LINE",
"50 716 LINE",
"107 628 LINE"
);
}
);
width = 366;
},
{
anchors = (
{
name = _top;
position = "{175, 569}";
}
);
layerId = "CC11FE7D-5FF0-4B40-9597-DFC61EB94F41";
paths = (
{
closed = 1;
nodes = (
"302 772 LINE",
"267 813 LINE",
"113 692 LINE",
"137 660 LINE"
);
}
);
width = 382;
},
{
anchors = (
{
name = _top;
position = "{148, 569}";
}
);
layerId = "700B375B-E5F6-4156-8225-245C9DB4E923";
paths = (
{
closed = 1;
nodes = (
"339 761 LINE",
"267 868 LINE",
"50 716 LINE",
"107 628 LINE"
);
}
);
width = 366;
}
);
unicode = 00B4;
}
{
glyphname = ae;
layers = (
{
anchors = (
{
name = top;
position = "{389, 569}";
}
);
background = {
paths = (
{
closed = 1;
nodes = (
"448 151 LINE",
"448 382 LINE SMOOTH",
"448 518 OFFCURVE",
"376 585 OFFCURVE",
"257 585 CURVE SMOOTH",
"185 585 OFFCURVE",
"99 562 OFFCURVE",
"34 523 CURVE",
"83 417 LINE",
"132 443 OFFCURVE",
"182 462 OFFCURVE",
"222 462 CURVE SMOOTH",
"272 462 OFFCURVE",
"306 437 OFFCURVE",
"306 377 CURVE SMOOTH",
"306 223 LINE SMOOTH",
"306 134 OFFCURVE",
"282 101 OFFCURVE",
"225 101 CURVE SMOOTH",
"191 101 OFFCURVE",
"166 125 OFFCURVE",
"166 162 CURVE SMOOTH",
"166 223 OFFCURVE",
"200 250 OFFCURVE",
"273 250 CURVE SMOOTH",
"311 250 OFFCURVE",
"339 248 OFFCURVE",
"372 242 CURVE",
"372 340 LINE",
"341 346 OFFCURVE",
"290 348 OFFCURVE",
"264 348 CURVE SMOOTH",
"112 348 OFFCURVE",
"17 278 OFFCURVE",
"17 162 CURVE SMOOTH",
"17 47 OFFCURVE",
"100 -17 OFFCURVE",
"191 -17 CURVE SMOOTH",
"262 -17 OFFCURVE",
"348 24 OFFCURVE",
"366 114 CURVE"
);
},
{
closed = 1;
nodes = (
"644 -17 OFFCURVE",
"716 2 OFFCURVE",
"781 48 CURVE",
"737 146 LINE",
"685 117 OFFCURVE",
"637 102 OFFCURVE",
"588 102 CURVE SMOOTH",
"509 102 OFFCURVE",
"454 164 OFFCURVE",
"454 286 CURVE SMOOTH",
"454 411 OFFCURVE",
"498 472 OFFCURVE",
"558 472 CURVE SMOOTH",
"610 472 OFFCURVE",
"643 431 OFFCURVE",
"643 352 CURVE",
"388 349 LINE",
"386 245 LINE",
"792 245 LINE",
"792 285 LINE SMOOTH",
"792 477 OFFCURVE",
"727 586 OFFCURVE",
"559 586 CURVE SMOOTH",
"422 586 OFFCURVE",
"311 490 OFFCURVE",
"311 291 CURVE SMOOTH",
"311 93 OFFCURVE",
"418 -17 OFFCURVE",
"576 -17 CURVE SMOOTH"
);
}
);
};
layerId = "6114C541-D024-4A3E-9713-6FAF49EAB318";
paths = (
{
closed = 1;
nodes = (
"262 -17 OFFCURVE",
"351 24 OFFCURVE",
"366 117 CURVE",
"347 117 LINE",
"391 30 OFFCURVE",
"472 -17 OFFCURVE",
"576 -17 CURVE SMOOTH",
"644 -17 OFFCURVE",
"716 2 OFFCURVE",
"781 48 CURVE",
"737 146 LINE",
"685 117 OFFCURVE",
"637 102 OFFCURVE",
"588 102 CURVE SMOOTH",
"509 102 OFFCURVE",
"454 164 OFFCURVE",
"454 286 CURVE SMOOTH",
"454 411 OFFCURVE",
"498 472 OFFCURVE",
"558 472 CURVE SMOOTH",
"610 472 OFFCURVE",
"643 431 OFFCURVE",
"643 352 CURVE",
"388 349 LINE",
"386 245 LINE",
"792 245 LINE",
"792 285 LINE SMOOTH",
"792 477 OFFCURVE",
"727 586 OFFCURVE",
"564 586 CURVE SMOOTH",
"495 586 OFFCURVE",
"424 558 OFFCURVE",
"379 501 CURVE",
"419 498 LINE",
"388 556 OFFCURVE",
"335 585 OFFCURVE",
"257 585 CURVE SMOOTH",
"185 585 OFFCURVE",
"99 562 OFFCURVE",
"34 523 CURVE",
"83 417 LINE",
"132 443 OFFCURVE",
"182 462 OFFCURVE",
"222 462 CURVE SMOOTH",
"272 462 OFFCURVE",
"306 437 OFFCURVE",
"306 377 CURVE SMOOTH",
"306 223 LINE SMOOTH",
"306 134 OFFCURVE",
"282 101 OFFCURVE",
"225 101 CURVE SMOOTH",
"191 101 OFFCURVE",
"166 125 OFFCURVE",
"166 162 CURVE SMOOTH",
"166 223 OFFCURVE",
"200 250 OFFCURVE",
"273 250 CURVE SMOOTH",
"311 250 OFFCURVE",
"339 248 OFFCURVE",
"372 242 CURVE",
"372 340 LINE",
"341 346 OFFCURVE",
"290 348 OFFCURVE",
"264 348 CURVE SMOOTH",
"112 348 OFFCURVE",
"17 278 OFFCURVE",
"17 162 CURVE SMOOTH",
"17 47 OFFCURVE",
"100 -17 OFFCURVE",
"191 -17 CURVE SMOOTH"
);
}
);
width = 814;
},
{
anchors = (
{
name = top;
position = "{372, 569}";
}
);
background = {
paths = (
{
closed = 1;
nodes = (
"387 109 LINE",
"387 414 LINE SMOOTH",
"387 526 OFFCURVE",
"313 577 OFFCURVE",
"223 577 CURVE SMOOTH",
"170 577 OFFCURVE",
"105 559 OFFCURVE",
"50 523 CURVE",
"71 487 LINE",
"121 519 OFFCURVE",
"175 537 OFFCURVE",
"222 537 CURVE SMOOTH",
"291 537 OFFCURVE",
"341 498 OFFCURVE",
"341 411 CURVE SMOOTH",
"341 178 LINE SMOOTH",
"341 76 OFFCURVE",
"251 32 OFFCURVE",
"198 32 CURVE SMOOTH",
"119 32 OFFCURVE",
"75 75 OFFCURVE",
"75 160 CURVE SMOOTH",
"75 226 OFFCURVE",
"117 285 OFFCURVE",
"257 285 CURVE SMOOTH",
"295 285 OFFCURVE",
"323 282 OFFCURVE",
"356 277 CURVE",
"356 314 LINE",
"325 320 OFFCURVE",
"297 322 OFFCURVE",
"259 322 CURVE SMOOTH",
"112 322 OFFCURVE",
"26 253 OFFCURVE",
"26 160 CURVE SMOOTH",
"26 51 OFFCURVE",
"91 -8 OFFCURVE",
"190 -8 CURVE SMOOTH",
"253 -8 OFFCURVE",
"329 30 OFFCURVE",
"364 109 CURVE"
);
},
{
closed = 1;
nodes = (
"621 -8 OFFCURVE",
"676 6 OFFCURVE",
"734 33 CURVE",
"719 68 LINE",
"669 44 OFFCURVE",
"625 33 OFFCURVE",
"579 33 CURVE SMOOTH",
"463 33 OFFCURVE",
"387 121 OFFCURVE",
"387 283 CURVE SMOOTH",
"387 435 OFFCURVE",
"445 537 OFFCURVE",
"551 537 CURVE SMOOTH",
"667 537 OFFCURVE",
"700 426 OFFCURVE",
"699 327 CURVE",
"364 325 LINE",
"364 286 LINE",
"747 286 LINE",
"747 308 LINE SMOOTH",
"747 464 OFFCURVE",
"693 577 OFFCURVE",
"551 577 CURVE SMOOTH",
"418 577 OFFCURVE",
"341 455 OFFCURVE",
"341 285 CURVE SMOOTH",
"341 97 OFFCURVE",
"429 -8 OFFCURVE",
"571 -8 CURVE SMOOTH"
);
}
);
};
layerId = "CC11FE7D-5FF0-4B40-9597-DFC61EB94F41";
paths = (
{
closed = 1;
nodes = (
"253 -8 OFFCURVE",
"338 33 OFFCURVE",
"370 125 CURVE",
"369 125 LINE",
"406 40 OFFCURVE",
"478 -8 OFFCURVE",
"571 -8 CURVE SMOOTH",
"621 -8 OFFCURVE",
"676 6 OFFCURVE",
"734 33 CURVE",
"719 68 LINE",
"669 44 OFFCURVE",
"625 33 OFFCURVE",
"579 33 CURVE SMOOTH",
"463 33 OFFCURVE",
"387 121 OFFCURVE",
"387 283 CURVE SMOOTH",
"387 434 OFFCURVE",
"445 537 OFFCURVE",
"551 537 CURVE SMOOTH",
"667 537 OFFCURVE",
"700 426 OFFCURVE",
"699 327 CURVE",
"364 325 LINE",
"364 286 LINE",
"747 286 LINE",
"747 308 LINE SMOOTH",
"747 464 OFFCURVE",
"693 577 OFFCURVE",
"551 577 CURVE SMOOTH",
"462 577 OFFCURVE",
"399 521 OFFCURVE",
"368 436 CURVE",
"385 436 LINE",
"376 531 OFFCURVE",
"306 577 OFFCURVE",
"223 577 CURVE SMOOTH",
"170 577 OFFCURVE",
"105 559 OFFCURVE",
"50 523 CURVE",
"71 487 LINE",
"121 519 OFFCURVE",
"175 537 OFFCURVE",
"222 537 CURVE SMOOTH",
"291 537 OFFCURVE",
"341 498 OFFCURVE",
"341 411 CURVE SMOOTH",
"341 178 LINE SMOOTH",
"341 76 OFFCURVE",
"251 32 OFFCURVE",
"198 32 CURVE SMOOTH",
"119 32 OFFCURVE",
"75 75 OFFCURVE",
"75 160 CURVE SMOOTH",
"75 226 OFFCURVE",
"117 285 OFFCURVE",
"257 285 CURVE SMOOTH",
"295 285 OFFCURVE",
"323 282 OFFCURVE",
"356 277 CURVE",
"356 314 LINE",
"325 320 OFFCURVE",
"297 322 OFFCURVE",
"259 322 CURVE SMOOTH",
"112 322 OFFCURVE",
"26 253 OFFCURVE",
"26 160 CURVE SMOOTH",
"26 51 OFFCURVE",
"91 -8 OFFCURVE",
"190 -8 CURVE SMOOTH"
);
}
);
width = 783;
}
);
leftMetricsKey = a;
rightMetricsKey = e;
unicode = 00E6;
}
{
glyphname = brokenbar;
layers = (
{
background = {
paths = (
{
closed = 1;
nodes = (
"162 263 LINE",
"159 -80 LINE",
"201 -80 LINE",
"201 263 LINE"
);
},
{
closed = 1;
nodes = (
"162 825 LINE",
"159 484 LINE",
"201 484 LINE",
"201 825 LINE"
);
}
);
};
layerId = "6114C541-D024-4A3E-9713-6FAF49EAB318";
paths = (
{
closed = 1;
nodes = (
"93 267 LINE",
"91 -80 LINE",
"207 -80 LINE",
"207 267 LINE"
);
},
{
closed = 1;
nodes = (
"93 825 LINE",
"91 478 LINE",
"207 478 LINE",
"207 825 LINE"
);
}
);
width = 298;
},
{
layerId = "CC11FE7D-5FF0-4B40-9597-DFC61EB94F41";
paths = (
{
closed = 1;
nodes = (
"162 263 LINE",
"159 -80 LINE",
"201 -80 LINE",
"201 263 LINE"
);
},
{
closed = 1;
nodes = (
"162 825 LINE",
"159 484 LINE",
"201 484 LINE",
"201 825 LINE"
);
}
);
width = 361;
}
);
unicode = 00A6;
}
{
glyphname = cedilla;
layers = (
{
anchors = (
{
name = _bottom;
position = "{237, 0}";
}
);
background = {
paths = (
{
closed = 1;
nodes = (
"175 -249 OFFCURVE",
"193 -249 CURVE SMOOTH",
"310 -249 OFFCURVE",
"366 -182 OFFCURVE",
"366 -117 CURVE SMOOTH",
"366 -61 OFFCURVE",
"320 -6 OFFCURVE",
"238 6 CURVE",
"137 6 LINE",
"216 -13 OFFCURVE",
"255 -55 OFFCURVE",
"255 -89 CURVE SMOOTH",
"255 -119 OFFCURVE",
"226 -145 OFFCURVE",
"172 -145 CURVE SMOOTH",
"162 -145 OFFCURVE",
"149 -143 OFFCURVE",
"135 -141 CURVE",
"133 -244 LINE",
"155 -247 OFFCURVE"
);
}
);
};
layerId = "6114C541-D024-4A3E-9713-6FAF49EAB318";
paths = (
{
closed = 1;
nodes = (
"175 -250 OFFCURVE",
"195 -250 CURVE SMOOTH",
"306 -250 OFFCURVE",
"366 -188 OFFCURVE",
"366 -124 CURVE SMOOTH",
"366 -68 OFFCURVE",
"321 -11 OFFCURVE",
"228 6 CURVE",
"137 3 LINE",
"216 -15 OFFCURVE",
"255 -55 OFFCURVE",
"255 -89 CURVE SMOOTH",
"255 -130 OFFCURVE",
"221 -145 OFFCURVE",
"176 -145 CURVE SMOOTH",
"164 -145 OFFCURVE",
"149 -143 OFFCURVE",
"135 -141 CURVE",
"133 -244 LINE",
"154 -248 OFFCURVE"
);
}
);
width = 484;
},
{
anchors = (
{
name = _bottom;
position = "{199, 0}";
}
);
associatedMasterId = "CC11FE7D-5FF0-4B40-9597-DFC61EB94F41";
background = {
paths = (
{
closed = 1;
nodes = (
"114 -242 OFFCURVE",
"151 -261 OFFCURVE",
"193 -259 CURVE SMOOTH",
"258 -261 OFFCURVE",
"306 -218 OFFCURVE",
"306 -160 CURVE SMOOTH",
"305 -81 OFFCURVE",
"249 -71 OFFCURVE",
"211 -63 CURVE SMOOTH",
"182 -58 OFFCURVE",
"171 -53 OFFCURVE",
"165 -48 CURVE SMOOTH",
"160 -43 OFFCURVE",
"160 -43 OFFCURVE",
"160 -36 CURVE SMOOTH",
"160 -25 OFFCURVE",
"170 -6 OFFCURVE",
"184 8 CURVE",
"162 35 LINE",
"141 16 OFFCURVE",
"126 -14 OFFCURVE",
"126 -36 CURVE SMOOTH",
"126 -51 OFFCURVE",
"131 -65 OFFCURVE",
"141 -74 CURVE SMOOTH",
"154 -88 OFFCURVE",
"171 -93 OFFCURVE",
"205 -99 CURVE SMOOTH",
"244 -108 OFFCURVE",
"272 -113 OFFCURVE",
"272 -160 CURVE SMOOTH",
"272 -197 OFFCURVE",
"239 -223 OFFCURVE",
"192 -222 CURVE SMOOTH",
"160 -223 OFFCURVE",
"134 -211 OFFCURVE",
"118 -189 CURVE",
"91 -211 LINE"
);
}
);
};
guideLines = (
{
position = "{279, -188}";
}
);
layerId = "C8050A07-52F8-4402-BDCD-93214F29C0FC";
name = "(null) Oct 20 15, 11:47";
paths = (
{
closed = 1;
nodes = (
"248 -214 OFFCURVE",
"289 -160 OFFCURVE",
"289 -99 CURVE SMOOTH",
"289 -52 OFFCURVE",
"245 6 OFFCURVE",
"170 6 CURVE",
"130 -6 LINE",
"214 -32 OFFCURVE",
"246 -74 OFFCURVE",
"246 -112 CURVE SMOOTH",
"246 -147 OFFCURVE",
"218 -173 OFFCURVE",
"163 -173 CURVE SMOOTH",
"152 -173 OFFCURVE",
"139 -172 OFFCURVE",
"126 -168 CURVE",
"124 -209 LINE",
"140 -213 OFFCURVE",
"158 -214 OFFCURVE",
"173 -214 CURVE SMOOTH"
);
},
{
closed = 1;
nodes = (
"440 -214 OFFCURVE",
"459 -212 OFFCURVE",
"475 -208 CURVE",
"472 -174 LINE",
"460 -178 OFFCURVE",
"446 -179 OFFCURVE",
"436 -179 CURVE SMOOTH",
"380 -179 OFFCURVE",
"353 -147 OFFCURVE",
"353 -112 CURVE",
"310 -122 LINE",
"310 -172 OFFCURVE",
"351 -214 OFFCURVE",
"426 -214 CURVE SMOOTH"
);
},
{
closed = 1;
nodes = (
"430 -30 LINE",
"486 -30 OFFCURVE",
"513 -61 OFFCURVE",
"513 -97 CURVE SMOOTH",
"513 -134 OFFCURVE",
"481 -176 OFFCURVE",
"397 -203 CURVE",
"437 -214 LINE",
"519 -187 OFFCURVE",
"556 -133 OFFCURVE",
"556 -86 CURVE SMOOTH",
"556 -36 OFFCURVE",
"516 6 OFFCURVE",
"440 6 CURVE"
);
}
);
width = 398;
},
{
anchors = (
{
name = _bottom;
position = "{244, 0}";
}
);
associatedMasterId = "6114C541-D024-4A3E-9713-6FAF49EAB318";
background = {
paths = (
{
closed = 1;
nodes = (
"308 -245 OFFCURVE",
"376 -211 OFFCURVE",
"376 -129 CURVE SMOOTH",
"376 -83 OFFCURVE",
"351 -42 OFFCURVE",
"299 0 CURVE",
"151 0 LINE",
"213 -22 OFFCURVE",
"250 -51 OFFCURVE",
"250 -93 CURVE SMOOTH",
"250 -125 OFFCURVE",
"223 -140 OFFCURVE",
"189 -140 CURVE SMOOTH",
"175 -140 OFFCURVE",
"160 -138 OFFCURVE",
"146 -133 CURVE",
"139 -231 LINE",
"168 -240 OFFCURVE",
"200 -245 OFFCURVE",
"230 -245 CURVE SMOOTH"
);
}
);
};
layerId = "2B415C51-759A-4E2B-8B59-CFB5D84325C8";
name = "Bold Condensed Oct 21 15, 10:37";
paths = (
{
closed = 1;
nodes = (
"436 -17 OFFCURVE",
"265 10 CURVE",
"143 2 LINE",
"306 -34 OFFCURVE",
"290 -167 OFFCURVE",
"135 -141 CURVE",
"133 -244 LINE",
"406 -291 OFFCURVE"
);
}
);
width = 484;
},
{
anchors = (
{
name = _bottom;
position = "{189, 0}";
}
);
background = {
paths = (
{
closed = 1;
nodes = (
"248 127 OFFCURVE",
"289 181 OFFCURVE",
"289 242 CURVE SMOOTH",
"289 289 OFFCURVE",
"245 347 OFFCURVE",
"170 347 CURVE",
"130 336 LINE",
"214 310 OFFCURVE",
"246 267 OFFCURVE",
"246 230 CURVE SMOOTH",
"246 195 OFFCURVE",
"218 168 OFFCURVE",
"163 168 CURVE SMOOTH",
"152 168 OFFCURVE",
"139 170 OFFCURVE",
"126 173 CURVE",
"124 132 LINE",
"140 129 OFFCURVE",
"158 127 OFFCURVE",
"173 127 CURVE SMOOTH"
);
},
{
closed = 1;
nodes = (
"291 -195 OFFCURVE",
"291 -104 CURVE SMOOTH",
"291 -51 OFFCURVE",
"246 -5 OFFCURVE",
"173 11 CURVE",
"126 5 LINE",
"225 -25 OFFCURVE",
"248 -68 OFFCURVE",
"248 -107 CURVE SMOOTH",
"248 -168 OFFCURVE",
"198 -182 OFFCURVE",
"125 -172 CURVE",
"123 -209 LINE",
"218 -223 OFFCURVE"
);
}
);
};
guideLines = (
{
position = "{379, -188}";
}
);
layerId = "CC11FE7D-5FF0-4B40-9597-DFC61EB94F41";
paths = (
{
closed = 1;
nodes = (
"147 -214 OFFCURVE",
"160 -214 CURVE SMOOTH",
"242 -214 OFFCURVE",
"285 -163 OFFCURVE",
"285 -109 CURVE SMOOTH",
"285 -61 OFFCURVE",
"251 -13 OFFCURVE",
"182 6 CURVE",
"135 6 LINE",
"212 -18 OFFCURVE",
"247 -65 OFFCURVE",
"247 -105 CURVE SMOOTH",
"247 -142 OFFCURVE",
"214 -175 OFFCURVE",
"154 -175 CURVE SMOOTH",
"142 -175 OFFCURVE",
"132 -174 OFFCURVE",
"119 -172 CURVE",
"117 -209 LINE",
"133 -213 OFFCURVE"
);
}
);
width = 398;
},
{
anchors = (
{
name = _bottom;
position = "{237, 0}";
}
);
layerId = "700B375B-E5F6-4156-8225-245C9DB4E923";
paths = (
{
closed = 1;
nodes = (
"175 -250 OFFCURVE",
"195 -250 CURVE SMOOTH",
"306 -250 OFFCURVE",
"366 -188 OFFCURVE",
"366 -124 CURVE SMOOTH",
"366 -68 OFFCURVE",
"321 -11 OFFCURVE",
"228 6 CURVE",
"137 3 LINE",
"216 -15 OFFCURVE",
"255 -55 OFFCURVE",
"255 -89 CURVE SMOOTH",
"255 -130 OFFCURVE",
"221 -145 OFFCURVE",
"176 -145 CURVE SMOOTH",
"164 -145 OFFCURVE",
"149 -143 OFFCURVE",
"135 -141 CURVE",
"133 -244 LINE",
"154 -248 OFFCURVE"
);
}
);
width = 484;
}
);
unicode = 00B8;
}
{
glyphname = cent;
layers = (
{
background = {
paths = (
{
closed = 1;
nodes = (
"333 -17 OFFCURVE",
"395 2 OFFCURVE",
"467 44 CURVE",
"426 145 LINE",
"373 118 OFFCURVE",
"332 107 OFFCURVE",
"302 107 CURVE SMOOTH",
"223 107 OFFCURVE",
"175 159 OFFCURVE",
"175 286 CURVE SMOOTH",
"175 398 OFFCURVE",
"206 465 OFFCURVE",
"273 465 CURVE SMOOTH",
"316 465 OFFCURVE",
"337 432 OFFCURVE",
"355 381 CURVE",
"477 427 LINE",
"440 534 OFFCURVE",
"377 585 OFFCURVE",
"272 585 CURVE SMOOTH",
"125 585 OFFCURVE",
"24 476 OFFCURVE",
"24 288 CURVE SMOOTH",
"24 92 OFFCURVE",
"116 -17 OFFCURVE",
"270 -17 CURVE SMOOTH"
);
},
{
closed = 1;
nodes = (
"225 690 LINE",
"225 -114 LINE",
"311 -114 LINE",
"311 690 LINE"
);
}
);
};
layerId = "6114C541-D024-4A3E-9713-6FAF49EAB318";
paths = (
{
closed = 1;
nodes = (
"333 6 OFFCURVE",
"395 25 OFFCURVE",
"467 67 CURVE",
"426 167 LINE",
"373 141 OFFCURVE",
"332 130 OFFCURVE",
"302 130 CURVE SMOOTH",
"223 130 OFFCURVE",
"175 182 OFFCURVE",
"175 297 CURVE SMOOTH",
"175 398 OFFCURVE",
"206 465 OFFCURVE",
"273 465 CURVE SMOOTH",
"316 465 OFFCURVE",
"337 432 OFFCURVE",
"355 381 CURVE",
"477 427 LINE",
"440 534 OFFCURVE",
"377 585 OFFCURVE",
"272 585 CURVE SMOOTH",
"125 585 OFFCURVE",
"24 476 OFFCURVE",
"24 299 CURVE SMOOTH",
"24 115 OFFCURVE",
"116 6 OFFCURVE",
"270 6 CURVE SMOOTH"
);
},
{
closed = 1;
nodes = (
"216 79 LINE",
"216 -82 LINE",
"316 -82 LINE",
"316 79 LINE"
);
},
{
closed = 1;
nodes = (
"216 668 LINE",
"216 531 LINE",
"316 531 LINE",
"316 668 LINE"
);
}
);
width = 494;
},
{
layerId = "CC11FE7D-5FF0-4B40-9597-DFC61EB94F41";
paths = (
{
closed = 1;
nodes = (
"304 15 OFFCURVE",
"362 27 OFFCURVE",
"422 61 CURVE",
"406 96 LINE",
"355 67 OFFCURVE",
"307 55 OFFCURVE",
"266 55 CURVE SMOOTH",
"163 55 OFFCURVE",
"100 145 OFFCURVE",
"100 295 CURVE SMOOTH",
"100 437 OFFCURVE",
"157 537 OFFCURVE",
"258 537 CURVE SMOOTH",
"312 537 OFFCURVE",
"366 501 OFFCURVE",
"396 442 CURVE",
"432 465 LINE",
"393 538 OFFCURVE",
"329 577 OFFCURVE",
"262 577 CURVE SMOOTH",
"134 577 OFFCURVE",
"51 464 OFFCURVE",
"51 296 CURVE SMOOTH",
"51 121 OFFCURVE",
"131 15 OFFCURVE",
"257 15 CURVE SMOOTH"
);
},
{
closed = 1;
nodes = (
"237 27 LINE",
"237 -76 LINE",
"274 -76 LINE",
"274 27 LINE"
);
},
{
closed = 1;
nodes = (
"237 662 LINE",
"237 555 LINE",
"274 555 LINE",
"274 662 LINE"
);
}
);
width = 490;
}
);
unicode = 00A2;
}
{
glyphname = copyright;
layers = (
{
background = {
paths = (
{
closed = 1;
nodes = (
"696 -80 OFFCURVE",
"893 131 OFFCURVE",
"893 376 CURVE SMOOTH",
"893 621 OFFCURVE",
"702 827 OFFCURVE",
"446 826 CURVE SMOOTH",
"191 825 OFFCURVE",
"-7 616 OFFCURVE",
"-7 371 CURVE SMOOTH",
"-7 124 OFFCURVE",
"185 -80 OFFCURVE",
"443 -80 CURVE SMOOTH"
);
},
{
closed = 1;
nodes = (
"257 23 OFFCURVE",
"122 187 OFFCURVE",
"122 374 CURVE SMOOTH",
"122 563 OFFCURVE",
"253 723 OFFCURVE",
"443 723 CURVE SMOOTH",
"629 723 OFFCURVE",
"766 559 OFFCURVE",
"766 372 CURVE SMOOTH",
"766 182 OFFCURVE",
"635 23 OFFCURVE",
"446 23 CURVE SMOOTH"
);
},
{
closed = 1;
nodes = (
"534 212 OFFCURVE",
"490 198 OFFCURVE",
"454 198 CURVE SMOOTH",
"372 198 OFFCURVE",
"320 265 OFFCURVE",
"320 372 CURVE SMOOTH",
"320 480 OFFCURVE",
"365 551 OFFCURVE",
"435 551 CURVE SMOOTH",
"475 551 OFFCURVE",
"508 527 OFFCURVE",
"525 473 CURVE",
"635 498 LINE",
"609 597 OFFCURVE",
"538 649 OFFCURVE",
"436 649 CURVE SMOOTH",
"312 649 OFFCURVE",
"200 551 OFFCURVE",
"200 371 CURVE SMOOTH",
"200 208 OFFCURVE",
"300 98 OFFCURVE",
"438 98 CURVE SMOOTH",
"495 98 OFFCURVE",
"558 116 OFFCURVE",
"622 157 CURVE",
"582 239 LINE"
);
}
);
};
layerId = "6114C541-D024-4A3E-9713-6FAF49EAB318";
paths = (
{
closed = 1;
nodes = (
"643 -17 OFFCURVE",
"848 118 OFFCURVE",
"848 386 CURVE SMOOTH",
"848 650 OFFCURVE",
"648 785 OFFCURVE",
"447 785 CURVE SMOOTH",
"244 785 OFFCURVE",
"39 648 OFFCURVE",
"39 382 CURVE SMOOTH",
"39 117 OFFCURVE",
"239 -17 OFFCURVE",
"440 -17 CURVE SMOOTH"
);
},
{
closed = 1;
nodes = (
"501 141 OFFCURVE",
"555 157 OFFCURVE",
"609 191 CURVE",
"563 273 LINE",
"522 249 OFFCURVE",
"486 238 OFFCURVE",
"456 238 CURVE SMOOTH",
"394 238 OFFCURVE",
"356 287 OFFCURVE",
"356 379 CURVE SMOOTH",
"356 475 OFFCURVE",
"387 526 OFFCURVE",
"445 526 CURVE SMOOTH",
"480 526 OFFCURVE",
"501 508 OFFCURVE",
"518 462 CURVE",
"619 489 LINE",
"596 576 OFFCURVE",
"534 620 OFFCURVE",
"444 620 CURVE SMOOTH",
"336 620 OFFCURVE",
"236 535 OFFCURVE",
"236 378 CURVE SMOOTH",
"236 231 OFFCURVE",
"331 141 OFFCURVE",
"451 141 CURVE SMOOTH"
);
},
{
closed = 1;
nodes = (
"298 80 OFFCURVE",
"158 179 OFFCURVE",
"158 385 CURVE SMOOTH",
"158 587 OFFCURVE",
"295 688 OFFCURVE",
"442 688 CURVE SMOOTH",
"589 688 OFFCURVE",
"728 587 OFFCURVE",
"728 384 CURVE SMOOTH",
"728 179 OFFCURVE",
"593 80 OFFCURVE",
"446 80 CURVE SMOOTH"
);
}
);
width = 882;
},
{
background = {
paths = (
{
closed = 1;
nodes = (
"27 117 OFFCURVE",
"228 -17 OFFCURVE",
"429 -17 CURVE SMOOTH",
"632 -17 OFFCURVE",
"836 118 OFFCURVE",
"836 386 CURVE SMOOTH",
"836 650 OFFCURVE",
"636 785 OFFCURVE",
"436 785 CURVE SMOOTH",
"232 785 OFFCURVE",
"27 648 OFFCURVE",
"27 382 CURVE SMOOTH"
);
},
{
closed = 1;
nodes = (
"717 179 OFFCURVE",
"582 80 OFFCURVE",
"435 80 CURVE SMOOTH",
"287 80 OFFCURVE",
"147 179 OFFCURVE",
"147 385 CURVE SMOOTH",
"147 587 OFFCURVE",
"283 688 OFFCURVE",
"430 688 CURVE SMOOTH",
"578 688 OFFCURVE",
"717 587 OFFCURVE",
"717 384 CURVE SMOOTH"
);
},
{
closed = 1;
nodes = (
"511 249 OFFCURVE",
"475 238 OFFCURVE",
"445 238 CURVE SMOOTH",
"382 238 OFFCURVE",
"345 287 OFFCURVE",
"345 379 CURVE SMOOTH",
"345 475 OFFCURVE",
"376 526 OFFCURVE",
"434 526 CURVE SMOOTH",
"469 526 OFFCURVE",
"489 508 OFFCURVE",
"506 462 CURVE",
"608 489 LINE",
"585 576 OFFCURVE",
"522 620 OFFCURVE",
"432 620 CURVE SMOOTH",
"324 620 OFFCURVE",
"224 535 OFFCURVE",
"224 378 CURVE SMOOTH",
"224 231 OFFCURVE",
"320 141 OFFCURVE",
"439 141 CURVE SMOOTH",
"489 141 OFFCURVE",
"544 157 OFFCURVE",
"597 191 CURVE",
"552 273 LINE"
);
}
);
};
layerId = "CC11FE7D-5FF0-4B40-9597-DFC61EB94F41";
paths = (
{
closed = 1;
nodes = (
"652 -1 OFFCURVE",
"813 171 OFFCURVE",
"813 395 CURVE SMOOTH",
"813 616 OFFCURVE",
"652 786 OFFCURVE",
"435 785 CURVE SMOOTH",
"216 785 OFFCURVE",
"53 616 OFFCURVE",
"53 394 CURVE SMOOTH",
"53 170 OFFCURVE",
"214 0 OFFCURVE",
"434 0 CURVE SMOOTH"
);
},
{
closed = 1;
nodes = (
"477 129 OFFCURVE",
"534 141 OFFCURVE",
"594 175 CURVE",
"578 209 LINE",
"527 181 OFFCURVE",
"480 168 OFFCURVE",
"443 168 CURVE SMOOTH",
"344 168 OFFCURVE",
"281 247 OFFCURVE",
"281 386 CURVE SMOOTH",
"281 528 OFFCURVE",
"338 617 OFFCURVE",
"435 617 CURVE SMOOTH",
"485 617 OFFCURVE",
"538 580 OFFCURVE",
"568 521 CURVE",
"604 545 LINE",
"564 618 OFFCURVE",
"501 657 OFFCURVE",
"438 657 CURVE SMOOTH",
"315 657 OFFCURVE",
"232 555 OFFCURVE",
"232 387 CURVE SMOOTH",
"232 223 OFFCURVE",
"312 129 OFFCURVE",
"434 129 CURVE SMOOTH"
);
},
{
closed = 1;
nodes = (
"242 39 OFFCURVE",
"101 192 OFFCURVE",
"101 395 CURVE SMOOTH",
"101 595 OFFCURVE",
"242 747 OFFCURVE",
"435 747 CURVE SMOOTH",
"624 748 OFFCURVE",
"764 593 OFFCURVE",
"765 394 CURVE SMOOTH",
"765 191 OFFCURVE",
"626 38 OFFCURVE",
"435 39 CURVE SMOOTH"
);
}
);
width = 861;
},
{
layerId = "700B375B-E5F6-4156-8225-245C9DB4E923";
paths = (
{
closed = 1;
nodes = (
"643 -17 OFFCURVE",
"848 118 OFFCURVE",
"848 386 CURVE SMOOTH",
"848 650 OFFCURVE",
"648 785 OFFCURVE",
"447 785 CURVE SMOOTH",
"244 785 OFFCURVE",
"39 648 OFFCURVE",
"39 382 CURVE SMOOTH",
"39 117 OFFCURVE",
"239 -17 OFFCURVE",
"440 -17 CURVE SMOOTH"
);
},
{
closed = 1;
nodes = (
"501 141 OFFCURVE",
"555 157 OFFCURVE",
"609 191 CURVE",
"563 273 LINE",
"522 249 OFFCURVE",
"486 238 OFFCURVE",
"456 238 CURVE SMOOTH",
"394 238 OFFCURVE",
"356 287 OFFCURVE",
"356 379 CURVE SMOOTH",
"356 475 OFFCURVE",
"387 526 OFFCURVE",
"445 526 CURVE SMOOTH",
"480 526 OFFCURVE",
"501 508 OFFCURVE",
"518 462 CURVE",
"619 489 LINE",
"596 576 OFFCURVE",
"534 620 OFFCURVE",
"444 620 CURVE SMOOTH",
"336 620 OFFCURVE",
"236 535 OFFCURVE",
"236 378 CURVE SMOOTH",
"236 231 OFFCURVE",
"331 141 OFFCURVE",
"451 141 CURVE SMOOTH"
);
},
{
closed = 1;
nodes = (
"298 80 OFFCURVE",
"158 179 OFFCURVE",
"158 385 CURVE SMOOTH",
"158 587 OFFCURVE",
"295 688 OFFCURVE",
"442 688 CURVE SMOOTH",
"589 688 OFFCURVE",
"728 587 OFFCURVE",
"728 384 CURVE SMOOTH",
"728 179 OFFCURVE",
"593 80 OFFCURVE",
"446 80 CURVE SMOOTH"
);
}
);
width = 882;
}
);
unicode = 00A9;
}
{
glyphname = currency;
layers = (
{
background = {
paths = (
{
closed = 1;
nodes = (
"398 197 OFFCURVE",
"356 137 OFFCURVE",
"290 137 CURVE SMOOTH",
"225 137 OFFCURVE",
"183 197 OFFCURVE",
"183 285 CURVE SMOOTH",
"183 371 OFFCURVE",
"226 432 OFFCURVE",
"291 432 CURVE SMOOTH",
"356 432 OFFCURVE",
"398 372 OFFCURVE",
"398 282 CURVE SMOOTH"
);
},
{
closed = 1;
nodes = (
"549 435 OFFCURVE",
"462 552 OFFCURVE",
"295 552 CURVE SMOOTH",
"127 552 OFFCURVE",
"32 434 OFFCURVE",
"32 282 CURVE SMOOTH",
"32 137 OFFCURVE",
"118 17 OFFCURVE",
"285 17 CURVE SMOOTH",
"453 17 OFFCURVE",
"549 129 OFFCURVE",
"549 285 CURVE SMOOTH"
);
},
{
closed = 1;
nodes = (
"575 -8 LINE",
"331 311 LINE",
"88 638 LINE",
"7 577 LINE",
"254 253 LINE",
"494 -69 LINE"
);
},
{
closed = 1;
nodes = (
"88 -68 LINE",
"331 258 LINE",
"575 577 LINE",
"494 637 LINE",
"254 316 LINE",
"7 -8 LINE"
);
}
);
};
layerId = "6114C541-D024-4A3E-9713-6FAF49EAB318";
paths = (
{
closed = 1;
nodes = (
"453 17 OFFCURVE",
"549 129 OFFCURVE",
"549 285 CURVE SMOOTH",
"549 435 OFFCURVE",
"462 552 OFFCURVE",
"295 552 CURVE SMOOTH",
"127 552 OFFCURVE",
"32 434 OFFCURVE",
"32 282 CURVE SMOOTH",
"32 137 OFFCURVE",
"118 17 OFFCURVE",
"285 17 CURVE SMOOTH"
);
},
{
closed = 1;
nodes = (
"218 115 LINE",
"140 175 LINE",
"17 15 LINE",
"99 -46 LINE"
);
},
{
closed = 1;
nodes = (
"563 15 LINE",
"431 187 LINE",
"352 129 LINE",
"484 -47 LINE"
);
},
{
closed = 1;
nodes = (
"225 137 OFFCURVE",
"183 197 OFFCURVE",
"183 285 CURVE SMOOTH",
"183 371 OFFCURVE",
"226 432 OFFCURVE",
"291 432 CURVE SMOOTH",
"356 432 OFFCURVE",
"398 372 OFFCURVE",
"398 282 CURVE SMOOTH",
"398 197 OFFCURVE",
"356 137 OFFCURVE",
"290 137 CURVE SMOOTH"
);
},
{
closed = 1;
nodes = (
"213 463 LINE",
"99 616 LINE",
"17 554 LINE",
"133 403 LINE"
);
},
{
closed = 1;
nodes = (
"563 554 LINE",
"483 616 LINE",
"368 460 LINE",
"445 398 LINE"
);
}
);
width = 584;
},
{
background = {
paths = (
{
closed = 1;
nodes = (
"481 174 OFFCURVE",
"421 66 OFFCURVE",
"303 66 CURVE SMOOTH",
"185 66 OFFCURVE",
"125 172 OFFCURVE",
"125 283 CURVE SMOOTH",
"125 393 OFFCURVE",
"190 503 OFFCURVE",
"306 503 CURVE SMOOTH",
"422 503 OFFCURVE",
"481 395 OFFCURVE",
"481 283 CURVE SMOOTH"
);
},
{
closed = 1;
nodes = (
"530 418 OFFCURVE",
"459 543 OFFCURVE",
"307 543 CURVE SMOOTH",
"163 543 OFFCURVE",
"76 417 OFFCURVE",
"76 283 CURVE SMOOTH",
"76 148 OFFCURVE",
"147 26 OFFCURVE",
"302 26 CURVE SMOOTH",
"448 26 OFFCURVE",
"530 150 OFFCURVE",
"530 283 CURVE SMOOTH"
);
},
{
closed = 1;
nodes = (
"555 20 LINE",
"320 299 LINE",
"86 579 LINE",
"58 555 LINE",
"292 277 LINE",
"527 -3 LINE"
);
},
{
closed = 1;
nodes = (
"526 579 LINE",
"294 299 LINE",
"57 19 LINE",
"85 -6 LINE",
"321 278 LINE",
"554 554 LINE"
);
}
);
};
layerId = "CC11FE7D-5FF0-4B40-9597-DFC61EB94F41";
paths = (
{
closed = 1;
nodes = (
"448 26 OFFCURVE",
"530 150 OFFCURVE",
"530 283 CURVE SMOOTH",
"530 418 OFFCURVE",
"459 543 OFFCURVE",
"307 543 CURVE SMOOTH",
"163 543 OFFCURVE",
"76 417 OFFCURVE",
"76 283 CURVE SMOOTH",
"76 148 OFFCURVE",
"147 26 OFFCURVE",
"302 26 CURVE SMOOTH"
);
},
{
closed = 1;
nodes = (
"170 96 LINE",
"143 122 LINE",
"57 19 LINE",
"85 -6 LINE"
);
},
{
closed = 1;
nodes = (
"555 20 LINE",
"461 132 LINE",
"439 101 LINE",
"527 -3 LINE"
);
},
{
closed = 1;
nodes = (
"185 66 OFFCURVE",
"125 172 OFFCURVE",
"125 283 CURVE SMOOTH",
"125 393 OFFCURVE",
"190 503 OFFCURVE",
"306 503 CURVE SMOOTH",
"422 503 OFFCURVE",
"481 395 OFFCURVE",
"481 283 CURVE SMOOTH",
"481 174 OFFCURVE",
"421 66 OFFCURVE",
"303 66 CURVE SMOOTH"
);
},
{
closed = 1;
nodes = (
"178 470 LINE",
"86 579 LINE",
"58 555 LINE",
"149 446 LINE"
);
},
{
closed = 1;
nodes = (
"554 554 LINE",
"526 579 LINE",
"438 475 LINE",
"463 446 LINE"
);
}
);
width = 618;
},
{
layerId = "700B375B-E5F6-4156-8225-245C9DB4E923";
paths = (
{
closed = 1;
nodes = (
"453 17 OFFCURVE",
"549 129 OFFCURVE",
"549 285 CURVE SMOOTH",
"549 435 OFFCURVE",
"462 552 OFFCURVE",
"295 552 CURVE SMOOTH",
"127 552 OFFCURVE",
"32 434 OFFCURVE",
"32 282 CURVE SMOOTH",
"32 137 OFFCURVE",
"118 17 OFFCURVE",
"285 17 CURVE SMOOTH"
);
},
{
closed = 1;
nodes = (
"218 115 LINE",
"140 175 LINE",
"17 15 LINE",
"99 -46 LINE"
);
},
{
closed = 1;
nodes = (
"563 15 LINE",
"431 187 LINE",
"352 129 LINE",
"484 -47 LINE"
);
},
{
closed = 1;
nodes = (
"225 137 OFFCURVE",
"183 197 OFFCURVE",
"183 285 CURVE SMOOTH",
"183 371 OFFCURVE",
"226 432 OFFCURVE",
"291 432 CURVE SMOOTH",
"356 432 OFFCURVE",
"398 372 OFFCURVE",
"398 282 CURVE SMOOTH",
"398 197 OFFCURVE",
"356 137 OFFCURVE",
"290 137 CURVE SMOOTH"
);
},
{
closed = 1;
nodes = (
"213 463 LINE",
"99 616 LINE",
"17 554 LINE",
"133 403 LINE"
);
},
{
closed = 1;
nodes = (
"563 554 LINE",
"483 616 LINE",
"368 460 LINE",
"445 398 LINE"
);
}
);
width = 584;
}
);
unicode = 00A4;
}
{
glyphname = degree;
layers = (
{
layerId = "6114C541-D024-4A3E-9713-6FAF49EAB318";
paths = (
{
closed = 1;
nodes = (
"399 795 OFFCURVE",
"310 858 OFFCURVE",
"218 858 CURVE SMOOTH",
"126 858 OFFCURVE",
"34 794 OFFCURVE",
"34 669 CURVE SMOOTH",
"34 552 OFFCURVE",
"123 490 OFFCURVE",
"213 490 CURVE SMOOTH",
"306 490 OFFCURVE",
"399 555 OFFCURVE",
"399 673 CURVE SMOOTH"
);
},
{
closed = 1;
nodes = (
"291 619 OFFCURVE",
"254 592 OFFCURVE",
"216 592 CURVE SMOOTH",
"179 592 OFFCURVE",
"142 619 OFFCURVE",
"142 676 CURVE SMOOTH",
"142 729 OFFCURVE",
"180 757 OFFCURVE",
"217 757 CURVE SMOOTH",
"254 757 OFFCURVE",
"291 728 OFFCURVE",
"291 670 CURVE SMOOTH"
);
}
);
width = 434;
},
{
layerId = "CC11FE7D-5FF0-4B40-9597-DFC61EB94F41";
paths = (
{
closed = 1;
nodes = (
"324 790 OFFCURVE",
"261 833 OFFCURVE",
"198 833 CURVE SMOOTH",
"133 833 OFFCURVE",
"68 789 OFFCURVE",
"68 700 CURVE SMOOTH",
"68 613 OFFCURVE",
"131 571 OFFCURVE",
"193 571 CURVE SMOOTH",
"258 571 OFFCURVE",
"324 616 OFFCURVE",
"324 702 CURVE SMOOTH"
);
},
{
closed = 1;
nodes = (
"285 638 OFFCURVE",
"239 609 OFFCURVE",
"196 609 CURVE SMOOTH",
"154 609 OFFCURVE",
"108 638 OFFCURVE",
"108 704 CURVE SMOOTH",
"108 767 OFFCURVE",
"152 795 OFFCURVE",
"196 795 CURVE SMOOTH",
"239 795 OFFCURVE",
"285 766 OFFCURVE",
"285 699 CURVE SMOOTH"
);
}
);
width = 393;
},
{
layerId = "700B375B-E5F6-4156-8225-245C9DB4E923";
paths = (
{
closed = 1;
nodes = (
"399 795 OFFCURVE",
"310 858 OFFCURVE",
"218 858 CURVE SMOOTH",
"126 858 OFFCURVE",
"34 794 OFFCURVE",
"34 669 CURVE SMOOTH",
"34 552 OFFCURVE",
"123 490 OFFCURVE",
"213 490 CURVE SMOOTH",
"306 490 OFFCURVE",
"399 555 OFFCURVE",
"399 673 CURVE SMOOTH"
);
},
{
closed = 1;
nodes = (
"291 619 OFFCURVE",
"254 592 OFFCURVE",
"216 592 CURVE SMOOTH",
"179 592 OFFCURVE",
"142 619 OFFCURVE",
"142 676 CURVE SMOOTH",
"142 729 OFFCURVE",
"180 757 OFFCURVE",
"217 757 CURVE SMOOTH",
"254 757 OFFCURVE",
"291 728 OFFCURVE",
"291 670 CURVE SMOOTH"
);
}
);
width = 434;
}
);
unicode = 00B0;
}
{
glyphname = dieresis;
layers = (
{
anchors = (
{
name = _top;
position = "{289, 569}";
}
);
guideLines = (
{
position = "{259, 646}";
},
{
position = "{50, 696}";
},
{
position = "{50, 592}";
}
);
layerId = "6114C541-D024-4A3E-9713-6FAF49EAB318";
paths = (
{
closed = 1;
nodes = (
"208 650 OFFCURVE",
"248 677 OFFCURVE",
"248 735 CURVE SMOOTH",
"248 791 OFFCURVE",
"209 817 OFFCURVE",
"172 817 CURVE SMOOTH",
"133 817 OFFCURVE",
"94 791 OFFCURVE",
"94 735 CURVE SMOOTH",
"94 677 OFFCURVE",
"132 650 OFFCURVE",
"171 650 CURVE SMOOTH"
);
},
{
closed = 1;
nodes = (
"444 650 OFFCURVE",
"484 677 OFFCURVE",
"484 735 CURVE SMOOTH",
"484 791 OFFCURVE",
"445 817 OFFCURVE",
"406 817 CURVE SMOOTH",
"369 817 OFFCURVE",
"330 791 OFFCURVE",
"330 735 CURVE SMOOTH",
"330 677 OFFCURVE",
"368 650 OFFCURVE",
"405 650 CURVE SMOOTH"
);
}
);
width = 578;
},
{
anchors = (
{
name = _top;
position = "{212, 569}";
}
);
guideLines = (
{
position = "{275, 645}";
}
);
layerId = "CC11FE7D-5FF0-4B40-9597-DFC61EB94F41";
paths = (
{
closed = 1;
nodes = (
"140 691 OFFCURVE",
"154 710 OFFCURVE",
"154 733 CURVE SMOOTH",
"154 756 OFFCURVE",
"140 775 OFFCURVE",
"117 775 CURVE SMOOTH",
"93 775 OFFCURVE",
"80 756 OFFCURVE",
"80 733 CURVE SMOOTH",
"80 710 OFFCURVE",
"93 691 OFFCURVE",
"117 691 CURVE SMOOTH"
);
},
{
closed = 1;
nodes = (
"330 691 OFFCURVE",
"344 710 OFFCURVE",
"344 733 CURVE SMOOTH",
"344 756 OFFCURVE",
"330 775 OFFCURVE",
"306 775 CURVE SMOOTH",
"283 775 OFFCURVE",
"270 756 OFFCURVE",
"270 733 CURVE SMOOTH",
"270 710 OFFCURVE",
"283 691 OFFCURVE",
"306 691 CURVE SMOOTH"
);
}
);
width = 424;
}
);
unicode = 00A8;
}
{
glyphname = divide;
layers = (
{
background = {
paths = (
{
closed = 1;
nodes = (
"352 77 OFFCURVE",
"366 96 OFFCURVE",
"366 122 CURVE SMOOTH",
"366 147 OFFCURVE",
"352 165 OFFCURVE",
"327 165 CURVE SMOOTH",
"302 165 OFFCURVE",
"287 147 OFFCURVE",
"287 122 CURVE SMOOTH",
"287 96 OFFCURVE",
"302 77 OFFCURVE",
"327 77 CURVE SMOOTH"
);
},
{
closed = 1;
nodes = (
"352 417 OFFCURVE",
"366 435 OFFCURVE",
"366 461 CURVE SMOOTH",
"366 486 OFFCURVE",
"352 504 OFFCURVE",
"327 504 CURVE SMOOTH",
"302 504 OFFCURVE",
"287 486 OFFCURVE",
"287 461 CURVE SMOOTH",
"287 435 OFFCURVE",
"302 417 OFFCURVE",
"327 417 CURVE SMOOTH"
);
},
{
closed = 1;
nodes = (
"91 272 LINE",
"562 272 LINE",
"562 314 LINE",
"91 314 LINE"
);
}
);
};
layerId = "6114C541-D024-4A3E-9713-6FAF49EAB318";
paths = (
{
closed = 1;
nodes = (
"608 242 LINE",
"608 368 LINE",
"46 368 LINE",
"46 242 LINE"
);
},
{
closed = 1;
nodes = (
"369 0 OFFCURVE",
"412 32 OFFCURVE",
"412 97 CURVE SMOOTH",
"412 159 OFFCURVE",
"370 190 OFFCURVE",
"327 190 CURVE SMOOTH",
"283 190 OFFCURVE",
"241 159 OFFCURVE",
"241 97 CURVE SMOOTH",
"241 31 OFFCURVE",
"282 0 OFFCURVE",
"325 0 CURVE SMOOTH"
);
},
{
closed = 1;
nodes = (
"369 420 OFFCURVE",
"412 452 OFFCURVE",
"412 517 CURVE SMOOTH",
"412 579 OFFCURVE",
"370 610 OFFCURVE",
"327 610 CURVE SMOOTH",
"283 610 OFFCURVE",
"241 579 OFFCURVE",
"241 517 CURVE SMOOTH",
"241 451 OFFCURVE",
"282 420 OFFCURVE",
"325 420 CURVE SMOOTH"
);
}
);
width = 654;
},
{
guideLines = (
{
position = "{133, 239}";
},
{
position = "{133, 276}";
}
);
layerId = "CC11FE7D-5FF0-4B40-9597-DFC61EB94F41";
paths = (
{
closed = 1;
nodes = (
"526 272 LINE",
"526 314 LINE",
"46 314 LINE",
"46 272 LINE"
);
},
{
closed = 1;
nodes = (
"311 77 OFFCURVE",
"325 96 OFFCURVE",
"325 122 CURVE SMOOTH",
"325 147 OFFCURVE",
"311 165 OFFCURVE",
"286 165 CURVE SMOOTH",
"261 165 OFFCURVE",
"246 147 OFFCURVE",
"246 122 CURVE SMOOTH",
"246 96 OFFCURVE",
"261 77 OFFCURVE",
"286 77 CURVE SMOOTH"
);
},
{
closed = 1;
nodes = (
"311 417 OFFCURVE",
"325 435 OFFCURVE",
"325 461 CURVE SMOOTH",
"325 486 OFFCURVE",
"311 504 OFFCURVE",
"286 504 CURVE SMOOTH",
"261 504 OFFCURVE",
"246 486 OFFCURVE",
"246 461 CURVE SMOOTH",
"246 435 OFFCURVE",
"261 417 OFFCURVE",
"286 417 CURVE SMOOTH"
);
}
);
width = 572;
}
);
unicode = 00F7;
}
{
glyphname = eth;
layers = (
{
background = {
paths = (
{
closed = 1;
nodes = (
"178 32 OFFCURVE",
"117 138 OFFCURVE",
"117 266 CURVE SMOOTH",
"117 393 OFFCURVE",
"182 503 OFFCURVE",
"298 503 CURVE SMOOTH",
"417 503 OFFCURVE",
"473 396 OFFCURVE",
"473 275 CURVE SMOOTH",
"473 142 OFFCURVE",
"413 32 OFFCURVE",
"295 32 CURVE SMOOTH"
);
},
{
closed = 1;
nodes = (
"468 830 LINE",
"446 859 LINE",
"201 687 LINE",
"222 655 LINE"
);
},
{
closed = 1;
nodes = (
"68 100 OFFCURVE",
"149 -8 OFFCURVE",
"295 -8 CURVE SMOOTH",
"439 -8 OFFCURVE",
"523 104 OFFCURVE",
"523 362 CURVE SMOOTH",
"523 651 OFFCURVE",
"406 828 OFFCURVE",
"204 828 CURVE SMOOTH",
"175 828 OFFCURVE",
"140 824 OFFCURVE",
"112 816 CURVE",
"123 778 LINE",
"147 785 OFFCURVE",
"179 789 OFFCURVE",
"204 789 CURVE SMOOTH",
"348 789 OFFCURVE",
"462 670 OFFCURVE",
"473 422 CURVE",
"478 422 LINE",
"447 503 OFFCURVE",
"369 543 OFFCURVE",
"303 543 CURVE SMOOTH",
"158 543 OFFCURVE",
"68 417 OFFCURVE",
"68 266 CURVE SMOOTH"
);
},
{
closed = 1;
nodes = (
"509 775 LINE",
"451 867 LINE",
"171 693 LINE",
"228 601 LINE"
);
},
{
closed = 1;
nodes = (
"422 918 OFFCURVE",
"77 834 CURVE",
"108 723 LINE",
"132 728 OFFCURVE",
"159 731 OFFCURVE",
"190 731 CURVE SMOOTH",
"288 731 OFFCURVE",
"356 668 OFFCURVE",
"387 538 CURVE",
"360 547 OFFCURVE",
"329 552 OFFCURVE",
"296 552 CURVE SMOOTH",
"130 552 OFFCURVE",
"28 434 OFFCURVE",
"28 265 CURVE SMOOTH",
"28 102 OFFCURVE",
"121 -17 OFFCURVE",
"286 -17 CURVE SMOOTH",
"453 -17 OFFCURVE",
"554 117 OFFCURVE",
"554 290 CURVE SMOOTH",
"554 677 OFFCURVE"
);
},
{
closed = 1;
nodes = (
"404 163 OFFCURVE",
"356 102 OFFCURVE",
"291 102 CURVE SMOOTH",
"228 102 OFFCURVE",
"180 163 OFFCURVE",
"180 267 CURVE SMOOTH",
"180 371 OFFCURVE",
"229 432 OFFCURVE",
"292 432 CURVE SMOOTH",
"362 432 OFFCURVE",
"404 376 OFFCURVE",
"404 265 CURVE SMOOTH"
);
}
);
};
layerId = "6114C541-D024-4A3E-9713-6FAF49EAB318";
paths = (
{
closed = 1;
nodes = (
"467 -17 OFFCURVE",
"552 118 OFFCURVE",
"552 362 CURVE SMOOTH",
"552 641 OFFCURVE",
"424 842 OFFCURVE",
"201 842 CURVE SMOOTH",
"163 842 OFFCURVE",
"121 836 OFFCURVE",
"75 822 CURVE",
"106 719 LINE",
"133 725 OFFCURVE",
"160 728 OFFCURVE",
"184 728 CURVE SMOOTH",
"328 728 OFFCURVE",
"399 625 OFFCURVE",
"404 444 CURVE",
"427 444 LINE",
"415 500 OFFCURVE",
"369 551 OFFCURVE",
"273 551 CURVE SMOOTH",
"135 551 OFFCURVE",
"28 439 OFFCURVE",
"28 267 CURVE SMOOTH",
"28 105 OFFCURVE",
"121 -17 OFFCURVE",
"286 -17 CURVE SMOOTH"
);
},
{
closed = 1;
nodes = (
"228 102 OFFCURVE",
"180 163 OFFCURVE",
"180 267 CURVE SMOOTH",
"180 371 OFFCURVE",
"229 432 OFFCURVE",
"292 432 CURVE SMOOTH",
"362 432 OFFCURVE",
"404 376 OFFCURVE",
"404 265 CURVE SMOOTH",
"404 163 OFFCURVE",
"356 102 OFFCURVE",
"291 102 CURVE SMOOTH"
);
},
{
closed = 1;
nodes = (
"509 786 LINE",
"451 863 LINE",
"166 662 LINE",
"223 586 LINE"
);
}
);
width = 583;
},
{
associatedMasterId = "CC11FE7D-5FF0-4B40-9597-DFC61EB94F41";
background = {
paths = (
{
closed = 1;
nodes = (
"500 575 OFFCURVE",
"385 794 OFFCURVE",
"114 868 CURVE",
"105 831 LINE",
"348 761 OFFCURVE",
"452 553 OFFCURVE",
"451 259 CURVE",
"500 261 LINE"
);
},
{
closed = 1;
nodes = (
"451 140 OFFCURVE",
"390 32 OFFCURVE",
"272 32 CURVE SMOOTH",
"155 32 OFFCURVE",
"94 138 OFFCURVE",
"94 261 CURVE SMOOTH",
"94 381 OFFCURVE",
"159 492 OFFCURVE",
"275 492 CURVE SMOOTH",
"391 492 OFFCURVE",
"451 384 OFFCURVE",
"451 261 CURVE SMOOTH"
);
},
{
closed = 1;
nodes = (
"500 406 OFFCURVE",
"428 531 OFFCURVE",
"277 531 CURVE SMOOTH",
"135 531 OFFCURVE",
"46 405 OFFCURVE",
"46 261 CURVE SMOOTH",
"46 114 OFFCURVE",
"116 -8 OFFCURVE",
"271 -8 CURVE SMOOTH",
"418 -8 OFFCURVE",
"500 116 OFFCURVE",
"500 261 CURVE SMOOTH"
);
}
);
};
layerId = "7811CB42-4E2E-4E90-8CE3-402711D9FF28";
name = "Light Condensed Oct 29 15, 11:19";
paths = (
{
closed = 1;
nodes = (
"105 828 LINE",
"289 775 OFFCURVE",
"405 637 OFFCURVE",
"438 432 CURVE",
"445 432 LINE",
"415 492 OFFCURVE",
"346 531 OFFCURVE",
"280 531 CURVE SMOOTH",
"135 531 OFFCURVE",
"46 405 OFFCURVE",
"46 261 CURVE SMOOTH",
"46 114 OFFCURVE",
"116 -8 OFFCURVE",
"271 -8 CURVE SMOOTH",
"431 -8 OFFCURVE",
"501 133 OFFCURVE",
"501 302 CURVE SMOOTH",
"501 549 OFFCURVE",
"394 794 OFFCURVE",
"117 868 CURVE"
);
},
{
closed = 1;
nodes = (
"155 32 OFFCURVE",
"94 138 OFFCURVE",
"94 261 CURVE SMOOTH",
"94 381 OFFCURVE",
"159 492 OFFCURVE",
"275 492 CURVE SMOOTH",
"394 492 OFFCURVE",
"451 384 OFFCURVE",
"451 261 CURVE SMOOTH",
"451 140 OFFCURVE",
"390 32 OFFCURVE",
"272 32 CURVE SMOOTH"
);
},
{
closed = 1;
nodes = (
"414 817 LINE",
"389 848 LINE",
"164 659 LINE",
"189 628 LINE"
);
}
);
width = 544;
},
{
associatedMasterId = "CC11FE7D-5FF0-4B40-9597-DFC61EB94F41";
background = {
paths = (
{
closed = 1;
nodes = (
"155 32 OFFCURVE",
"94 138 OFFCURVE",
"94 261 CURVE SMOOTH",
"94 381 OFFCURVE",
"159 492 OFFCURVE",
"275 492 CURVE SMOOTH",
"394 492 OFFCURVE",
"451 384 OFFCURVE",
"451 261 CURVE SMOOTH",
"451 140 OFFCURVE",
"390 32 OFFCURVE",
"272 32 CURVE SMOOTH"
);
},
{
closed = 1;
nodes = (
"471 808 LINE",
"452 839 LINE",
"181 673 LINE",
"199 641 LINE"
);
},
{
closed = 1;
nodes = (
"501 678 OFFCURVE",
"391 833 OFFCURVE",
"198 833 CURVE SMOOTH",
"146 833 OFFCURVE",
"88 818 OFFCURVE",
"48 793 CURVE",
"67 765 LINE",
"102 782 OFFCURVE",
"152 795 OFFCURVE",
"198 795 CURVE SMOOTH",
"347 795 OFFCURVE",
"439 659 OFFCURVE",
"451 411 CURVE",
"455 411 LINE",
"424 492 OFFCURVE",
"346 531 OFFCURVE",
"280 531 CURVE SMOOTH",
"135 531 OFFCURVE",
"46 405 OFFCURVE",
"46 261 CURVE SMOOTH",
"46 114 OFFCURVE",
"116 -8 OFFCURVE",
"271 -8 CURVE SMOOTH",
"431 -8 OFFCURVE",
"501 133 OFFCURVE",
"501 322 CURVE SMOOTH"
);
}
);
};
layerId = "A7EBDE73-DAFC-4752-AA5D-1D688426115A";
name = "Light Condensed Oct 29 15, 11:41";
paths = (
{
closed = 1;
nodes = (
"155 32 OFFCURVE",
"94 138 OFFCURVE",
"94 266 CURVE SMOOTH",
"94 393 OFFCURVE",
"159 503 OFFCURVE",
"275 503 CURVE SMOOTH",
"394 503 OFFCURVE",
"451 396 OFFCURVE",
"451 275 CURVE SMOOTH",
"451 141 OFFCURVE",
"390 32 OFFCURVE",
"272 32 CURVE SMOOTH"
);
},
{
closed = 1;
nodes = (
"476 816 LINE",
"454 846 LINE",
"209 674 LINE",
"230 642 LINE"
);
},
{
closed = 1;
nodes = (
"46 100 OFFCURVE",
"126 -8 OFFCURVE",
"272 -8 CURVE SMOOTH",
"418 -8 OFFCURVE",
"501 101 OFFCURVE",
"501 362 CURVE SMOOTH",
"501 645 OFFCURVE",
"401 828 OFFCURVE",
"198 828 CURVE SMOOTH",
"170 828 OFFCURVE",
"140 824 OFFCURVE",
"112 816 CURVE",
"123 778 LINE",
"147 785 OFFCURVE",
"173 789 OFFCURVE",
"198 789 CURVE SMOOTH",
"338 789 OFFCURVE",
"442 670 OFFCURVE",
"453 422 CURVE",
"457 422 LINE",
"427 503 OFFCURVE",
"346 543 OFFCURVE",
"280 543 CURVE SMOOTH",
"135 543 OFFCURVE",
"46 417 OFFCURVE",
"46 266 CURVE SMOOTH"
);
}
);
width = 544;
},
{
background = {
paths = (
{
closed = 1;
nodes = (
"155 32 OFFCURVE",
"94 138 OFFCURVE",
"94 261 CURVE SMOOTH",
"94 381 OFFCURVE",
"159 492 OFFCURVE",
"275 492 CURVE SMOOTH",
"394 492 OFFCURVE",
"451 384 OFFCURVE",
"451 261 CURVE SMOOTH",
"451 140 OFFCURVE",
"390 32 OFFCURVE",
"272 32 CURVE SMOOTH"
);
},
{
closed = 1;
nodes = (
"471 808 LINE",
"452 839 LINE",
"181 673 LINE",
"199 641 LINE"
);
},
{
closed = 1;
nodes = (
"501 678 OFFCURVE",
"391 833 OFFCURVE",
"198 833 CURVE SMOOTH",
"146 833 OFFCURVE",
"88 818 OFFCURVE",
"48 793 CURVE",
"67 765 LINE",
"102 782 OFFCURVE",
"152 795 OFFCURVE",
"198 795 CURVE SMOOTH",
"347 795 OFFCURVE",
"439 659 OFFCURVE",
"451 411 CURVE",
"455 411 LINE",
"424 492 OFFCURVE",
"346 531 OFFCURVE",
"280 531 CURVE SMOOTH",
"135 531 OFFCURVE",
"46 405 OFFCURVE",
"46 261 CURVE SMOOTH",
"46 114 OFFCURVE",
"116 -8 OFFCURVE",
"271 -8 CURVE SMOOTH",
"431 -8 OFFCURVE",
"501 133 OFFCURVE",
"501 322 CURVE SMOOTH"
);
}
);
};
layerId = "CC11FE7D-5FF0-4B40-9597-DFC61EB94F41";
paths = (
{
closed = 1;
nodes = (
"417 -8 OFFCURVE",
"501 104 OFFCURVE",
"501 362 CURVE SMOOTH",
"501 651 OFFCURVE",
"384 828 OFFCURVE",
"181 828 CURVE SMOOTH",
"152 828 OFFCURVE",
"117 824 OFFCURVE",
"89 816 CURVE",
"100 777 LINE",
"124 784 OFFCURVE",
"156 787 OFFCURVE",
"181 787 CURVE SMOOTH",
"325 787 OFFCURVE",
"439 670 OFFCURVE",
"451 422 CURVE",
"457 422 LINE",
"427 503 OFFCURVE",
"346 543 OFFCURVE",
"280 543 CURVE SMOOTH",
"135 543 OFFCURVE",
"46 422 OFFCURVE",
"46 267 CURVE SMOOTH",
"46 106 OFFCURVE",
"126 -8 OFFCURVE",
"272 -8 CURVE SMOOTH"
);
},
{
closed = 1;
nodes = (
"155 34 OFFCURVE",
"96 138 OFFCURVE",
"96 266 CURVE SMOOTH",
"96 393 OFFCURVE",
"159 501 OFFCURVE",
"275 501 CURVE SMOOTH",
"394 501 OFFCURVE",
"451 396 OFFCURVE",
"451 275 CURVE SMOOTH",
"451 142 OFFCURVE",
"390 34 OFFCURVE",
"272 34 CURVE SMOOTH"
);
},
{
closed = 1;
nodes = (
"445 830 LINE",
"423 859 LINE",
"179 687 LINE",
"199 655 LINE"
);
}
);
width = 544;
},
{
layerId = "700B375B-E5F6-4156-8225-245C9DB4E923";
paths = (
{
closed = 1;
nodes = (
"467 -17 OFFCURVE",
"552 118 OFFCURVE",
"552 362 CURVE SMOOTH",
"552 641 OFFCURVE",
"424 842 OFFCURVE",
"201 842 CURVE SMOOTH",
"163 842 OFFCURVE",
"121 836 OFFCURVE",
"75 822 CURVE",
"106 719 LINE",
"133 725 OFFCURVE",
"160 728 OFFCURVE",
"184 728 CURVE SMOOTH",
"328 728 OFFCURVE",
"399 625 OFFCURVE",
"404 444 CURVE",
"427 444 LINE",
"415 500 OFFCURVE",
"369 551 OFFCURVE",
"273 551 CURVE SMOOTH",
"135 551 OFFCURVE",
"28 439 OFFCURVE",
"28 267 CURVE SMOOTH",
"28 105 OFFCURVE",
"121 -17 OFFCURVE",
"286 -17 CURVE SMOOTH"
);
},
{
closed = 1;
nodes = (
"228 102 OFFCURVE",
"180 163 OFFCURVE",
"180 267 CURVE SMOOTH",
"180 371 OFFCURVE",
"229 432 OFFCURVE",
"292 432 CURVE SMOOTH",
"362 432 OFFCURVE",
"404 376 OFFCURVE",
"404 265 CURVE SMOOTH",
"404 163 OFFCURVE",
"356 102 OFFCURVE",
"291 102 CURVE SMOOTH"
);
},
{
closed = 1;
nodes = (
"509 786 LINE",
"451 863 LINE",
"166 662 LINE",
"223 586 LINE"
);
}
);
width = 583;
}
);
unicode = 00F0;
}
{
glyphname = germandbls;
layers = (
{
background = {
paths = (
{
closed = 1;
nodes = (
"494 876 OFFCURVE",
"121 925 OFFCURVE",
"121 641 CURVE SMOOTH",
"121 0 LINE",
"166 0 LINE",
"166 636 LINE SMOOTH",
"166 880 OFFCURVE",
"447 828 OFFCURVE",
"447 698 CURVE SMOOTH",
"447 564 OFFCURVE",
"283 574 OFFCURVE",
"283 450 CURVE SMOOTH",
"283 302 OFFCURVE",
"511 300 OFFCURVE",
"511 155 CURVE SMOOTH",
"511 74 OFFCURVE",
"457 32 OFFCURVE",
"406 32 CURVE SMOOTH",
"378 32 OFFCURVE",
"336 44 OFFCURVE",
"295 68 CURVE",
"275 31 LINE",
"319 6 OFFCURVE",
"366 -8 OFFCURVE",
"404 -8 CURVE SMOOTH",
"476 -8 OFFCURVE",
"556 46 OFFCURVE",
"556 155 CURVE SMOOTH",
"556 330 OFFCURVE",
"329 335 OFFCURVE",
"329 450 CURVE SMOOTH",
"329 549 OFFCURVE",
"494 555 OFFCURVE",
"494 700 CURVE SMOOTH"
);
},
{
closed = 1;
nodes = (
"180 461 LINE",
"180 569 LINE",
"31 569 LINE",
"31 461 LINE"
);
},
{
closed = 1;
nodes = (
"601 934 OFFCURVE",
"97 855 OFFCURVE",
"97 653 CURVE SMOOTH",
"97 0 LINE",
"245 0 LINE",
"245 646 LINE SMOOTH",
"245 756 OFFCURVE",
"457 777 OFFCURVE",
"457 679 CURVE SMOOTH",
"457 546 OFFCURVE",
"311 523 OFFCURVE",
"311 418 CURVE SMOOTH",
"311 223 OFFCURVE",
"518 264 OFFCURVE",
"518 158 CURVE SMOOTH",
"518 115 OFFCURVE",
"485 97 OFFCURVE",
"460 97 CURVE SMOOTH",
"434 97 OFFCURVE",
"381 115 OFFCURVE",
"344 140 CURVE",
"290 53 LINE",
"347 7 OFFCURVE",
"419 -17 OFFCURVE",
"468 -17 CURVE SMOOTH",
"563 -17 OFFCURVE",
"665 48 OFFCURVE",
"665 170 CURVE SMOOTH",
"665 364 OFFCURVE",
"457 331 OFFCURVE",
"457 420 CURVE SMOOTH",
"457 457 OFFCURVE",
"601 552 OFFCURVE",
"601 690 CURVE SMOOTH"
);
}
);
};
layerId = "6114C541-D024-4A3E-9713-6FAF49EAB318";
paths = (
{
closed = 1;
nodes = (
"563 -17 OFFCURVE",
"665 48 OFFCURVE",
"665 170 CURVE SMOOTH",
"665 339 OFFCURVE",
"469 397 OFFCURVE",
"469 464 CURVE SMOOTH",
"469 525 OFFCURVE",
"597 553 OFFCURVE",
"597 669 CURVE SMOOTH",
"597 782 OFFCURVE",
"484 842 OFFCURVE",
"364 842 CURVE SMOOTH",
"233 842 OFFCURVE",
"97 770 OFFCURVE",
"97 630 CURVE SMOOTH",
"97 0 LINE",
"245 0 LINE",
"245 624 LINE SMOOTH",
"245 698 OFFCURVE",
"295 733 OFFCURVE",
"346 733 CURVE SMOOTH",
"399 733 OFFCURVE",
"454 707 OFFCURVE",
"454 659 CURVE SMOOTH",
"454 582 OFFCURVE",
"322 579 OFFCURVE",
"322 447 CURVE SMOOTH",
"322 299 OFFCURVE",
"518 264 OFFCURVE",
"518 158 CURVE SMOOTH",
"518 115 OFFCURVE",
"485 97 OFFCURVE",
"460 97 CURVE SMOOTH",
"436 97 OFFCURVE",
"391 112 OFFCURVE",
"355 133 CURVE",
"313 36 LINE",
"365 1 OFFCURVE",
"424 -17 OFFCURVE",
"468 -17 CURVE SMOOTH"
);
},
{
closed = 1;
nodes = (
"180 461 LINE",
"180 569 LINE",
"31 569 LINE",
"31 461 LINE"
);
}
);
width = 697;
},
{
background = {
paths = (
{
closed = 1;
nodes = (
"151 529 LINE",
"151 569 LINE",
"38 569 LINE",
"38 529 LINE"
);
},
{
closed = 1;
nodes = (
"497 876 OFFCURVE",
"124 925 OFFCURVE",
"124 641 CURVE SMOOTH",
"124 0 LINE",
"170 0 LINE",
"170 636 LINE SMOOTH",
"170 880 OFFCURVE",
"451 828 OFFCURVE",
"451 698 CURVE SMOOTH",
"451 564 OFFCURVE",
"287 574 OFFCURVE",
"287 450 CURVE SMOOTH",
"287 302 OFFCURVE",
"514 300 OFFCURVE",
"514 155 CURVE SMOOTH",
"514 74 OFFCURVE",
"461 32 OFFCURVE",
"410 32 CURVE SMOOTH",
"381 32 OFFCURVE",
"339 44 OFFCURVE",
"298 68 CURVE",
"279 31 LINE",
"322 6 OFFCURVE",
"370 -8 OFFCURVE",
"407 -8 CURVE SMOOTH",
"479 -8 OFFCURVE",
"560 46 OFFCURVE",
"560 155 CURVE SMOOTH",
"560 330 OFFCURVE",
"332 335 OFFCURVE",
"332 450 CURVE SMOOTH",
"332 549 OFFCURVE",
"497 555 OFFCURVE",
"497 700 CURVE SMOOTH"
);
},
{
closed = 1;
nodes = (
"170 0 LINE",
"170 667 LINE SMOOTH",
"170 750 OFFCURVE",
"200 793 OFFCURVE",
"253 793 CURVE SMOOTH",
"275 793 OFFCURVE",
"303 785 OFFCURVE",
"332 768 CURVE",
"352 801 LINE",
"319 823 OFFCURVE",
"285 833 OFFCURVE",
"253 833 CURVE SMOOTH",
"179 833 OFFCURVE",
"124 780 OFFCURVE",
"124 681 CURVE SMOOTH",
"124 0 LINE"
);
}
);
};
guideLines = (
{
position = "{123, 732}";
}
);
layerId = "CC11FE7D-5FF0-4B40-9597-DFC61EB94F41";
paths = (
{
closed = 1;
nodes = (
"479 -8 OFFCURVE",
"560 46 OFFCURVE",
"560 155 CURVE SMOOTH",
"560 330 OFFCURVE",
"332 335 OFFCURVE",
"332 450 CURVE SMOOTH",
"332 549 OFFCURVE",
"497 555 OFFCURVE",
"497 700 CURVE SMOOTH",
"497 789 OFFCURVE",
"406 833 OFFCURVE",
"314 833 CURVE SMOOTH",
"208 833 OFFCURVE",
"124 774 OFFCURVE",
"124 641 CURVE SMOOTH",
"124 0 LINE",
"170 0 LINE",
"170 636 LINE SMOOTH",
"170 749 OFFCURVE",
"230 797 OFFCURVE",
"313 797 CURVE SMOOTH",
"382 797 OFFCURVE",
"451 764 OFFCURVE",
"451 698 CURVE SMOOTH",
"451 564 OFFCURVE",
"287 574 OFFCURVE",
"287 450 CURVE SMOOTH",
"287 302 OFFCURVE",
"514 300 OFFCURVE",
"514 155 CURVE SMOOTH",
"514 74 OFFCURVE",
"461 32 OFFCURVE",
"410 32 CURVE SMOOTH",
"381 32 OFFCURVE",
"339 44 OFFCURVE",
"298 68 CURVE",
"279 31 LINE",
"322 6 OFFCURVE",
"370 -8 OFFCURVE",
"407 -8 CURVE SMOOTH"
);
},
{
closed = 1;
nodes = (
"151 529 LINE",
"151 569 LINE",
"38 569 LINE",
"38 529 LINE"
);
}
);
width = 612;
}
);
leftMetricsKey = f;
rightMetricsKey = s;
unicode = 00DF;
}
{
glyphname = guillemotleft;
layers = (
{
background = {
paths = (
{
closed = 1;
nodes = (
"298 457 LINE",
"187 531 LINE",
"28 302 LINE",
"183 68 LINE",
"295 143 LINE",
"187 303 LINE"
);
},
{
closed = 1;
nodes = (
"562 456 LINE",
"453 531 LINE",
"283 302 LINE",
"450 68 LINE",
"559 145 LINE",
"442 303 LINE"
);
}
);
};
layerId = "6114C541-D024-4A3E-9713-6FAF49EAB318";
paths = (
{
closed = 1;
nodes = (
"291 471 LINE",
"187 543 LINE",
"28 302 LINE",
"183 57 LINE",
"289 130 LINE",
"183 303 LINE"
);
},
{
closed = 1;
nodes = (
"555 470 LINE",
"453 543 LINE",
"283 302 LINE",
"450 57 LINE",
"553 131 LINE",
"438 303 LINE"
);
}
);
width = 602;
},
{
background = {
paths = (
{
closed = 1;
nodes = (
"264 469 LINE",
"234 497 LINE",
"63 299 LINE",
"231 102 LINE",
"262 132 LINE",
"115 300 LINE"
);
},
{
closed = 1;
nodes = (
"434 469 LINE",
"404 497 LINE",
"232 299 LINE",
"401 102 LINE",
"431 132 LINE",
"285 300 LINE"
);
}
);
};
layerId = "CC11FE7D-5FF0-4B40-9597-DFC61EB94F41";
paths = (
{
closed = 1;
nodes = (
"262 469 LINE",
"232 497 LINE",
"63 299 LINE",
"229 102 LINE",
"259 132 LINE",
"115 300 LINE"
);
},
{
closed = 1;
nodes = (
"436 469 LINE",
"406 497 LINE",
"232 299 LINE",
"403 102 LINE",
"434 132 LINE",
"285 300 LINE"
);
}
);
width = 521;
}
);
unicode = 00AB;
}
{
glyphname = icircumflex;
layers = (
{
components = (
{
name = dotlessi;
}
);
layerId = "6114C541-D024-4A3E-9713-6FAF49EAB318";
paths = (
{
closed = 1;
nodes = (
"143 847 LINE",
"-26 707 LINE",
"35 633 LINE",
"149 724 LINE",
"131 724 LINE",
"245 630 LINE",
"311 707 LINE"
);
}
);
width = 279;
},
{
background = {
components = (
{
name = circumflex;
transform = "{1, 0, 0, 1, -114, 0}";
}
);
};
components = (
{
name = dotlessi;
}
);
layerId = "CC11FE7D-5FF0-4B40-9597-DFC61EB94F41";
paths = (
{
closed = 1;
nodes = (
"125 807 LINE",
"-7 681 LINE",
"20 655 LINE",
"126 749 LINE",
"117 749 LINE",
"223 654 LINE",
"250 684 LINE"
);
}
);
width = 239;
}
);
unicode = 00EE;
}
{
glyphname = idieresis;
layers = (
{
components = (
{
name = dotlessi;
}
);
layerId = "6114C541-D024-4A3E-9713-6FAF49EAB318";
paths = (
{
closed = 1;
nodes = (
"74 650 OFFCURVE",
"114 677 OFFCURVE",
"114 735 CURVE SMOOTH",
"114 791 OFFCURVE",
"75 817 OFFCURVE",
"38 817 CURVE SMOOTH",
"-1 817 OFFCURVE",
"-40 791 OFFCURVE",
"-40 735 CURVE SMOOTH",
"-40 677 OFFCURVE",
"-2 650 OFFCURVE",
"36 650 CURVE SMOOTH"
);
},
{
closed = 1;
nodes = (
"279 650 OFFCURVE",
"319 677 OFFCURVE",
"319 735 CURVE SMOOTH",
"319 791 OFFCURVE",
"280 817 OFFCURVE",
"241 817 CURVE SMOOTH",
"204 817 OFFCURVE",
"165 791 OFFCURVE",
"165 735 CURVE SMOOTH",
"165 677 OFFCURVE",
"203 650 OFFCURVE",
"240 650 CURVE SMOOTH"
);
}
);
width = 279;
},
{
components = (
{
name = dotlessi;
}
);
layerId = "CC11FE7D-5FF0-4B40-9597-DFC61EB94F41";
paths = (
{
closed = 1;
nodes = (
"61 691 OFFCURVE",
"75 710 OFFCURVE",
"75 733 CURVE SMOOTH",
"75 756 OFFCURVE",
"61 775 OFFCURVE",
"39 775 CURVE SMOOTH",
"15 775 OFFCURVE",
"1 756 OFFCURVE",
"1 733 CURVE SMOOTH",
"1 710 OFFCURVE",
"15 691 OFFCURVE",
"39 691 CURVE SMOOTH"
);
},
{
closed = 1;
nodes = (
"224 691 OFFCURVE",
"238 710 OFFCURVE",
"238 733 CURVE SMOOTH",
"238 756 OFFCURVE",
"224 775 OFFCURVE",
"200 775 CURVE SMOOTH",
"178 775 OFFCURVE",
"164 756 OFFCURVE",
"164 733 CURVE SMOOTH",
"164 710 OFFCURVE",
"178 691 OFFCURVE",
"200 691 CURVE SMOOTH"
);
}
);
width = 239;
},
{
components = (
{
name = dotlessi;
}
);
layerId = "700B375B-E5F6-4156-8225-245C9DB4E923";
paths = (
{
closed = 1;
nodes = (
"74 650 OFFCURVE",
"114 677 OFFCURVE",
"114 735 CURVE SMOOTH",
"114 791 OFFCURVE",
"75 817 OFFCURVE",
"38 817 CURVE SMOOTH",
"-1 817 OFFCURVE",
"-40 791 OFFCURVE",
"-40 735 CURVE SMOOTH",
"-40 677 OFFCURVE",
"-2 650 OFFCURVE",
"36 650 CURVE SMOOTH"
);
},
{
closed = 1;
nodes = (
"279 650 OFFCURVE",
"319 677 OFFCURVE",
"319 735 CURVE SMOOTH",
"319 791 OFFCURVE",
"280 817 OFFCURVE",
"241 817 CURVE SMOOTH",
"204 817 OFFCURVE",
"165 791 OFFCURVE",
"165 735 CURVE SMOOTH",
"165 677 OFFCURVE",
"203 650 OFFCURVE",
"240 650 CURVE SMOOTH"
);
}
);
width = 279;
}
);
unicode = 00EF;
}
{
glyphname = logicalnot;
layers = (
{
background = {
paths = (
{
closed = 1;
nodes = (
"34 272 LINE",
"483 272 LINE",
"483 314 LINE",
"34 314 LINE"
);
},
{
closed = 1;
nodes = (
"483 133 LINE",
"483 314 LINE",
"436 314 LINE",
"436 133 LINE"
);
}
);
};
layerId = "6114C541-D024-4A3E-9713-6FAF49EAB318";
paths = (
{
closed = 1;
nodes = (
"528 249 LINE",
"528 369 LINE",
"34 369 LINE",
"34 249 LINE"
);
},
{
closed = 1;
nodes = (
"528 116 LINE",
"528 369 LINE",
"386 369 LINE",
"386 116 LINE"
);
}
);
width = 574;
},
{
layerId = "CC11FE7D-5FF0-4B40-9597-DFC61EB94F41";
paths = (
{
closed = 1;
nodes = (
"488 272 LINE",
"488 314 LINE",
"40 314 LINE",
"40 272 LINE"
);
},
{
closed = 1;
nodes = (
"488 133 LINE",
"488 314 LINE",
"442 314 LINE",
"442 133 LINE"
);
}
);
width = 540;
}
);
unicode = 00AC;
}
{
glyphname = macron;
layers = (
{
anchors = (
{
name = _top;
position = "{216, 569}";
}
);
guideLines = (
{
position = "{50, 696}";
},
{
position = "{50, 592}";
}
);
layerId = "6114C541-D024-4A3E-9713-6FAF49EAB318";
paths = (
{
closed = 1;
nodes = (
"57 790 LINE",
"57 676 LINE",
"376 676 LINE",
"376 790 LINE"
);
}
);
width = 432;
},
{
anchors = (
{
name = _top;
position = "{201, 569}";
}
);
guideLines = (
{
position = "{50, 661}";
},
{
position = "{50, 627}";
}
);
layerId = "CC11FE7D-5FF0-4B40-9597-DFC61EB94F41";
paths = (
{
closed = 1;
nodes = (
"63 753 LINE",
"63 714 LINE",
"341 714 LINE",
"341 753 LINE"
);
}
);
width = 404;
}
);
unicode = 00AF;
}
{
glyphname = multiply;
layers = (
{
background = {
paths = (
{
closed = 1;
nodes = (
"28 244 LINE",
"545 244 LINE",
"545 369 LINE",
"28 369 LINE"
);
},
{
closed = 1;
nodes = (
"226 564 LINE",
"226 48 LINE",
"347 48 LINE",
"347 564 LINE"
);
}
);
};
layerId = "6114C541-D024-4A3E-9713-6FAF49EAB318";
paths = (
{
closed = 1;
nodes = (
"68 437 LINE",
"418 88 LINE",
"505 175 LINE",
"156 525 LINE"
);
},
{
closed = 1;
nodes = (
"419 523 LINE",
"69 174 LINE",
"155 89 LINE",
"504 438 LINE"
);
}
);
width = 574;
},
{
background = {
paths = (
{
closed = 1;
nodes = (
"28 273 LINE",
"471 273 LINE",
"471 315 LINE",
"28 315 LINE"
);
},
{
closed = 1;
nodes = (
"230 516 LINE",
"230 73 LINE",
"270 73 LINE",
"270 516 LINE"
);
}
);
};
layerId = "CC11FE7D-5FF0-4B40-9597-DFC61EB94F41";
paths = (
{
closed = 1;
nodes = (
"74 439 LINE",
"395 118 LINE",
"426 149 LINE",
"105 470 LINE"
);
},
{
closed = 1;
nodes = (
"396 469 LINE",
"75 148 LINE",
"105 118 LINE",
"426 439 LINE"
);
}
);
width = 501;
},
{
layerId = "700B375B-E5F6-4156-8225-245C9DB4E923";
paths = (
{
closed = 1;
nodes = (
"68 437 LINE",
"418 88 LINE",
"505 175 LINE",
"156 525 LINE"
);
},
{
closed = 1;
nodes = (
"419 523 LINE",
"69 174 LINE",
"155 89 LINE",
"504 438 LINE"
);
}
);
width = 574;
}
);
unicode = 00D7;
}
{
glyphname = onehalf;
layers = (
{
components = (
{
alignment = -1;
name = onesuperior;
transform = "{1, 0, 0, 1, -24, 0}";
},
{
alignment = -1;
name = fraction;
transform = "{1, 0, 0, 1, 194, 0}";
}
);
layerId = "6114C541-D024-4A3E-9713-6FAF49EAB318";
paths = (
{
closed = 1;
nodes = (
"978 5 LINE",
"978 113 LINE",
"777 113 LINE",
"797 77 LINE",
"839 127 LINE SMOOTH",
"887 184 OFFCURVE",
"970 247 OFFCURVE",
"970 332 CURVE SMOOTH",
"970 424 OFFCURVE",
"887 483 OFFCURVE",
"799 483 CURVE SMOOTH",
"732 483 OFFCURVE",
"666 452 OFFCURVE",
"628 386 CURVE",
"710 335 LINE",
"731 365 OFFCURVE",
"752 379 OFFCURVE",
"781 379 CURVE SMOOTH",
"813 379 OFFCURVE",
"841 362 OFFCURVE",
"841 328 CURVE SMOOTH",
"841 280 OFFCURVE",
"798 242 OFFCURVE",
"743 181 CURVE SMOOTH",
"643 67 LINE",
"643 5 LINE"
);
}
);
width = 1001;
},
{
components = (
{
alignment = -1;
name = onesuperior;
transform = "{1, 0, 0, 1, -18, 0}";
},
{
alignment = -1;
name = fraction;
transform = "{1, 0, 0, 1, 160, 0}";
}
);
layerId = "CC11FE7D-5FF0-4B40-9597-DFC61EB94F41";
paths = (
{
closed = 1;
nodes = (
"836 3 LINE",
"836 43 LINE",
"599 43 LINE",
"604 30 LINE",
"710 150 LINE SMOOTH",
"767 214 OFFCURVE",
"830 270 OFFCURVE",
"830 336 CURVE SMOOTH",
"830 422 OFFCURVE",
"759 472 OFFCURVE",
"685 472 CURVE SMOOTH",
"634 472 OFFCURVE",
"582 450 OFFCURVE",
"547 401 CURVE",
"583 380 LINE",
"608 418 OFFCURVE",
"646 436 OFFCURVE",
"683 436 CURVE SMOOTH",
"736 436 OFFCURVE",
"785 399 OFFCURVE",
"785 336 CURVE SMOOTH",
"785 282 OFFCURVE",
"742 239 OFFCURVE",
"685 178 CURVE SMOOTH",
"545 25 LINE",
"545 3 LINE"
);
}
);
width = 889;
}
);
unicode = 00BD;
}
{
glyphname = onequarter;
layers = (
{
background = {
paths = (
{
closed = 1;
nodes = (
"935 1 LINE",
"935 464 LINE",
"777 464 LINE",
"591 162 LINE",
"603 80 LINE",
"993 80 LINE",
"993 182 LINE",
"673 182 LINE",
"698 148 LINE",
"838 394 LINE",
"809 394 LINE",
"809 1 LINE"
);
}
);
};
components = (
{
alignment = -1;
name = onesuperior;
transform = "{1, 0, 0, 1, -24, 0}";
},
{
name = fraction;
transform = "{1, 0, 0, 1, 164, 0}";
},
{
name = foursuperior;
transform = "{1, 0, 0, 1, 574, -307}";
}
);
layerId = "6114C541-D024-4A3E-9713-6FAF49EAB318";
width = 1011;
},
{
background = {
paths = (
{
closed = 1;
nodes = (
"762 0 LINE",
"762 463 LINE",
"716 463 LINE",
"500 146 LINE",
"504 117 LINE",
"818 118 LINE",
"818 155 LINE",
"534 155 LINE",
"545 146 LINE",
"732 420 LINE",
"719 420 LINE",
"719 0 LINE"
);
}
);
};
components = (
{
alignment = -1;
name = onesuperior;
transform = "{1, 0, 0, 1, -18, 0}";
},
{
name = fraction;
transform = "{1, 0, 0, 1, 133, 0}";
},
{
name = foursuperior;
transform = "{1, 0, 0, 1, 462, -307}";
}
);
layerId = "CC11FE7D-5FF0-4B40-9597-DFC61EB94F41";
width = 853;
}
);
unicode = 00BC;
}
{
glyphname = onesuperior;
layers = (
{
background = {
paths = (
{
closed = 1;
nodes = (
"61 620 LINE",
"27 709 LINE",
"160 768 LINE",
"273 768 LINE",
"273 307 LINE",
"147 307 LINE",
"147 716 LINE",
"184 669 LINE"
);
},
{
closed = 1;
nodes = (
"67 407 LINE",
"339 407 LINE",
"339 307 LINE",
"67 307 LINE"
);
}
);
};
layerId = "6114C541-D024-4A3E-9713-6FAF49EAB318";
paths = (
{
closed = 1;
nodes = (
"59 608 LINE",
"19 708 LINE",
"160 768 LINE",
"273 768 LINE",
"273 307 LINE",
"147 307 LINE",
"147 716 LINE",
"186 657 LINE"
);
},
{
closed = 1;
nodes = (
"59 407 LINE",
"342 407 LINE",
"342 307 LINE",
"59 307 LINE"
);
}
);
width = 355;
},
{
background = {
paths = (
{
closed = 1;
nodes = (
"51 676 LINE",
"38 708 LINE",
"183 768 LINE",
"211 768 LINE",
"211 307 LINE",
"176 307 LINE",
"176 742 LINE",
"187 734 LINE"
);
},
{
closed = 1;
nodes = (
"75 336 LINE",
"283 336 LINE",
"283 307 LINE",
"75 307 LINE"
);
}
);
};
layerId = "CC11FE7D-5FF0-4B40-9597-DFC61EB94F41";
paths = (
{
closed = 1;
nodes = (
"52 671 LINE",
"38 708 LINE",
"183 768 LINE",
"216 768 LINE",
"216 307 LINE",
"172 307 LINE",
"172 742 LINE",
"188 729 LINE"
);
},
{
closed = 1;
nodes = (
"73 343 LINE",
"285 343 LINE",
"285 307 LINE",
"73 307 LINE"
);
}
);
width = 318;
}
);
leftMetricsKey = one;
rightMetricsKey = one;
unicode = 00B9;
}
{
glyphname = ordfeminine;
layers = (
{
background = {
paths = (
{
closed = 1;
nodes = (
"250 373 OFFCURVE",
"286 346 OFFCURVE",
"338 346 CURVE SMOOTH",
"353 346 OFFCURVE",
"368 347 OFFCURVE",
"385 352 CURVE",
"381 430 LINE",
"377 430 OFFCURVE",
"373 430 OFFCURVE",
"370 430 CURVE SMOOTH",
"348 430 OFFCURVE",
"340 442 OFFCURVE",
"340 469 CURVE SMOOTH",
"340 637 LINE SMOOTH",
"340 736 OFFCURVE",
"283 785 OFFCURVE",
"197 785 CURVE SMOOTH",
"145 785 OFFCURVE",
"82 768 OFFCURVE",
"34 741 CURVE",
"69 662 LINE",
"106 682 OFFCURVE",
"142 695 OFFCURVE",
"171 695 CURVE SMOOTH",
"208 695 OFFCURVE",
"232 677 OFFCURVE",
"232 633 CURVE SMOOTH",
"232 521 LINE SMOOTH",
"232 456 OFFCURVE",
"215 432 OFFCURVE",
"174 432 CURVE SMOOTH",
"149 432 OFFCURVE",
"131 450 OFFCURVE",
"131 476 CURVE SMOOTH",
"131 521 OFFCURVE",
"156 542 OFFCURVE",
"208 542 CURVE SMOOTH",
"236 542 OFFCURVE",
"257 541 OFFCURVE",
"281 536 CURVE",
"281 607 LINE",
"258 611 OFFCURVE",
"221 612 OFFCURVE",
"201 612 CURVE SMOOTH",
"91 612 OFFCURVE",
"22 561 OFFCURVE",
"22 476 CURVE SMOOTH",
"22 393 OFFCURVE",
"82 346 OFFCURVE",
"149 346 CURVE SMOOTH",
"200 346 OFFCURVE",
"254 376 OFFCURVE",
"267 442 CURVE",
"250 442 LINE"
);
}
);
};
guideLines = (
{
position = "{226, 298}";
}
);
layerId = "6114C541-D024-4A3E-9713-6FAF49EAB318";
paths = (
{
closed = 1;
nodes = (
"250 370 OFFCURVE",
"287 339 OFFCURVE",
"339 339 CURVE SMOOTH",
"355 339 OFFCURVE",
"372 340 OFFCURVE",
"389 345 CURVE",
"386 435 LINE",
"381 435 OFFCURVE",
"378 435 OFFCURVE",
"374 435 CURVE SMOOTH",
"358 435 OFFCURVE",
"351 446 OFFCURVE",
"351 473 CURVE SMOOTH",
"351 634 LINE SMOOTH",
"351 737 OFFCURVE",
"283 785 OFFCURVE",
"198 785 CURVE SMOOTH",
"146 785 OFFCURVE",
"83 769 OFFCURVE",
"24 737 CURVE",
"64 650 LINE",
"100 669 OFFCURVE",
"137 683 OFFCURVE",
"171 683 CURVE SMOOTH",
"203 683 OFFCURVE",
"226 666 OFFCURVE",
"226 629 CURVE SMOOTH",
"226 518 LINE SMOOTH",
"226 463 OFFCURVE",
"209 437 OFFCURVE",
"176 437 CURVE SMOOTH",
"154 437 OFFCURVE",
"141 457 OFFCURVE",
"141 479 CURVE SMOOTH",
"141 504 OFFCURVE",
"157 533 OFFCURVE",
"201 533 CURVE SMOOTH",
"232 533 OFFCURVE",
"257 531 OFFCURVE",
"281 527 CURVE",
"281 605 LINE",
"258 610 OFFCURVE",
"221 611 OFFCURVE",
"201 611 CURVE SMOOTH",
"83 611 OFFCURVE",
"17 558 OFFCURVE",
"17 472 CURVE SMOOTH",
"17 389 OFFCURVE",
"75 339 OFFCURVE",
"149 339 CURVE SMOOTH",
"200 339 OFFCURVE",
"254 372 OFFCURVE",
"267 438 CURVE",
"250 438 LINE"
);
}
);
width = 400;
},
{
associatedMasterId = "6114C541-D024-4A3E-9713-6FAF49EAB318";
background = {
paths = (
{
closed = 1;
nodes = (
"280 221 OFFCURVE",
"329 183 OFFCURVE",
"401 183 CURVE SMOOTH",
"420 183 OFFCURVE",
"442 185 OFFCURVE",
"464 191 CURVE",
"460 299 LINE",
"454 298 OFFCURVE",
"448 298 OFFCURVE",
"444 298 CURVE SMOOTH",
"414 298 OFFCURVE",
"404 314 OFFCURVE",
"404 352 CURVE SMOOTH",
"404 583 LINE SMOOTH",
"404 718 OFFCURVE",
"325 785 OFFCURVE",
"207 785 CURVE SMOOTH",
"135 785 OFFCURVE",
"49 762 OFFCURVE",
"-16 724 CURVE",
"33 617 LINE",
"82 643 OFFCURVE",
"132 662 OFFCURVE",
"172 662 CURVE SMOOTH",
"222 662 OFFCURVE",
"256 637 OFFCURVE",
"256 577 CURVE SMOOTH",
"256 423 LINE SMOOTH",
"256 335 OFFCURVE",
"232 302 OFFCURVE",
"175 302 CURVE SMOOTH",
"141 302 OFFCURVE",
"116 325 OFFCURVE",
"116 362 CURVE SMOOTH",
"116 423 OFFCURVE",
"150 452 OFFCURVE",
"223 452 CURVE SMOOTH",
"261 452 OFFCURVE",
"289 450 OFFCURVE",
"322 444 CURVE",
"322 541 LINE",
"291 546 OFFCURVE",
"240 549 OFFCURVE",
"214 549 CURVE SMOOTH",
"61 549 OFFCURVE",
"-33 478 OFFCURVE",
"-33 362 CURVE SMOOTH",
"-33 247 OFFCURVE",
"50 183 OFFCURVE",
"141 183 CURVE SMOOTH",
"212 183 OFFCURVE",
"286 224 OFFCURVE",
"304 314 CURVE",
"280 314 LINE"
);
}
);
};
layerId = "63A4DA4B-527B-4168-BA4F-AB36D4B0BB04";
name = "Bold Condensed Oct 30 15, 16:56";
paths = (
{
closed = 1;
nodes = (
"263 373 OFFCURVE",
"298 346 OFFCURVE",
"351 346 CURVE SMOOTH",
"365 346 OFFCURVE",
"380 347 OFFCURVE",
"397 352 CURVE",
"394 430 LINE",
"389 430 OFFCURVE",
"386 430 OFFCURVE",
"382 430 CURVE SMOOTH",
"361 430 OFFCURVE",
"353 442 OFFCURVE",
"353 469 CURVE SMOOTH",
"353 637 LINE SMOOTH",
"353 736 OFFCURVE",
"296 785 OFFCURVE",
"209 785 CURVE SMOOTH",
"157 785 OFFCURVE",
"94 768 OFFCURVE",
"47 741 CURVE",
"82 662 LINE",
"118 682 OFFCURVE",
"155 695 OFFCURVE",
"183 695 CURVE SMOOTH",
"221 695 OFFCURVE",
"245 677 OFFCURVE",
"245 633 CURVE SMOOTH",
"245 521 LINE SMOOTH",
"245 456 OFFCURVE",
"228 432 OFFCURVE",
"187 432 CURVE SMOOTH",
"162 432 OFFCURVE",
"143 450 OFFCURVE",
"143 476 CURVE SMOOTH",
"143 521 OFFCURVE",
"168 542 OFFCURVE",
"221 542 CURVE SMOOTH",
"248 542 OFFCURVE",
"270 541 OFFCURVE",
"294 536 CURVE",
"294 607 LINE",
"271 611 OFFCURVE",
"233 612 OFFCURVE",
"214 612 CURVE SMOOTH",
"104 612 OFFCURVE",
"34 561 OFFCURVE",
"34 476 CURVE SMOOTH",
"34 393 OFFCURVE",
"94 346 OFFCURVE",
"162 346 CURVE SMOOTH",
"213 346 OFFCURVE",
"266 376 OFFCURVE",
"280 442 CURVE",
"263 442 LINE"
);
}
);
width = 420;
},
{
background = {
paths = (
{
closed = 1;
nodes = (
"258 378 OFFCURVE",
"275 349 OFFCURVE",
"328 349 CURVE SMOOTH",
"335 349 OFFCURVE",
"341 349 OFFCURVE",
"349 351 CURVE",
"347 385 LINE",
"343 384 OFFCURVE",
"338 384 OFFCURVE",
"335 384 CURVE SMOOTH",
"304 384 OFFCURVE",
"296 404 OFFCURVE",
"296 440 CURVE SMOOTH",
"296 658 LINE SMOOTH",
"296 739 OFFCURVE",
"241 776 OFFCURVE",
"172 776 CURVE SMOOTH",
"133 776 OFFCURVE",
"84 762 OFFCURVE",
"44 737 CURVE",
"63 707 LINE",
"99 731 OFFCURVE",
"138 741 OFFCURVE",
"172 741 CURVE SMOOTH",
"220 741 OFFCURVE",
"254 714 OFFCURVE",
"254 654 CURVE SMOOTH",
"254 485 LINE SMOOTH",
"254 417 OFFCURVE",
"193 385 OFFCURVE",
"154 385 CURVE SMOOTH",
"104 385 OFFCURVE",
"72 415 OFFCURVE",
"72 472 CURVE SMOOTH",
"72 519 OFFCURVE",
"102 560 OFFCURVE",
"197 560 CURVE SMOOTH",
"224 560 OFFCURVE",
"246 559 OFFCURVE",
"270 554 CURVE",
"270 587 LINE",
"247 592 OFFCURVE",
"226 593 OFFCURVE",
"199 593 CURVE SMOOTH",
"91 593 OFFCURVE",
"28 542 OFFCURVE",
"28 472 CURVE SMOOTH",
"28 393 OFFCURVE",
"76 349 OFFCURVE",
"148 349 CURVE SMOOTH",
"193 349 OFFCURVE",
"248 377 OFFCURVE",
"273 435 CURVE",
"258 439 LINE"
);
}
);
};
layerId = "CC11FE7D-5FF0-4B40-9597-DFC61EB94F41";
paths = (
{
closed = 1;
nodes = (
"258 378 OFFCURVE",
"275 349 OFFCURVE",
"328 349 CURVE SMOOTH",
"335 349 OFFCURVE",
"341 349 OFFCURVE",
"349 351 CURVE",
"347 385 LINE",
"343 384 OFFCURVE",
"338 384 OFFCURVE",
"335 384 CURVE SMOOTH",
"304 384 OFFCURVE",
"296 404 OFFCURVE",
"296 440 CURVE SMOOTH",
"296 658 LINE SMOOTH",
"296 736 OFFCURVE",
"242 776 OFFCURVE",
"172 776 CURVE SMOOTH",
"132 776 OFFCURVE",
"88 765 OFFCURVE",
"44 739 CURVE",
"63 707 LINE",
"98 728 OFFCURVE",
"137 741 OFFCURVE",
"170 741 CURVE SMOOTH",
"217 741 OFFCURVE",
"254 715 OFFCURVE",
"254 654 CURVE SMOOTH",
"254 485 LINE SMOOTH",
"254 417 OFFCURVE",
"193 385 OFFCURVE",
"154 385 CURVE SMOOTH",
"104 385 OFFCURVE",
"73 415 OFFCURVE",
"73 472 CURVE SMOOTH",
"73 519 OFFCURVE",
"105 560 OFFCURVE",
"197 560 CURVE SMOOTH",
"224 560 OFFCURVE",
"246 559 OFFCURVE",
"270 554 CURVE",
"270 587 LINE",
"247 592 OFFCURVE",
"226 593 OFFCURVE",
"199 593 CURVE SMOOTH",
"91 593 OFFCURVE",
"28 542 OFFCURVE",
"28 472 CURVE SMOOTH",
"28 393 OFFCURVE",
"76 349 OFFCURVE",
"148 349 CURVE SMOOTH",
"193 349 OFFCURVE",
"248 377 OFFCURVE",
"273 435 CURVE",
"258 439 LINE"
);
}
);
width = 366;
}
);
unicode = 00AA;
}
{
glyphname = ordmasculine;
layers = (
{
background = {
paths = (
{
closed = 1;
nodes = (
"305 476 OFFCURVE",
"274 432 OFFCURVE",
"226 432 CURVE SMOOTH",
"179 432 OFFCURVE",
"148 476 OFFCURVE",
"148 566 CURVE SMOOTH",
"148 653 OFFCURVE",
"180 698 OFFCURVE",
"228 698 CURVE SMOOTH",
"274 698 OFFCURVE",
"305 654 OFFCURVE",
"305 563 CURVE SMOOTH"
);
},
{
closed = 1;
nodes = (
"415 700 OFFCURVE",
"352 785 OFFCURVE",
"230 785 CURVE SMOOTH",
"108 785 OFFCURVE",
"38 699 OFFCURVE",
"38 563 CURVE SMOOTH",
"38 432 OFFCURVE",
"101 345 OFFCURVE",
"222 345 CURVE SMOOTH",
"345 345 OFFCURVE",
"415 427 OFFCURVE",
"415 566 CURVE SMOOTH"
);
}
);
};
guideLines = (
{
position = "{229, 298}";
}
);
layerId = "6114C541-D024-4A3E-9713-6FAF49EAB318";
paths = (
{
closed = 1;
nodes = (
"296 481 OFFCURVE",
"269 438 OFFCURVE",
"226 438 CURVE SMOOTH",
"184 438 OFFCURVE",
"157 481 OFFCURVE",
"157 562 CURVE SMOOTH",
"157 641 OFFCURVE",
"185 685 OFFCURVE",
"228 685 CURVE SMOOTH",
"269 685 OFFCURVE",
"296 642 OFFCURVE",
"296 560 CURVE SMOOTH"
);
},
{
closed = 1;
nodes = (
"424 700 OFFCURVE",
"361 785 OFFCURVE",
"230 785 CURVE SMOOTH",
"99 785 OFFCURVE",
"28 699 OFFCURVE",
"28 560 CURVE SMOOTH",
"28 426 OFFCURVE",
"92 338 OFFCURVE",
"222 338 CURVE SMOOTH",
"354 338 OFFCURVE",
"424 420 OFFCURVE",
"424 562 CURVE SMOOTH"
);
}
);
width = 452;
},
{
background = {
paths = (
{
closed = 1;
nodes = (
"341 457 OFFCURVE",
"297 378 OFFCURVE",
"211 378 CURVE SMOOTH",
"125 378 OFFCURVE",
"81 455 OFFCURVE",
"81 562 CURVE SMOOTH",
"81 667 OFFCURVE",
"129 747 OFFCURVE",
"213 747 CURVE SMOOTH",
"298 747 OFFCURVE",
"341 668 OFFCURVE",
"341 562 CURVE SMOOTH"
);
},
{
closed = 1;
nodes = (
"377 685 OFFCURVE",
"324 776 OFFCURVE",
"214 776 CURVE SMOOTH",
"108 776 OFFCURVE",
"46 684 OFFCURVE",
"46 562 CURVE SMOOTH",
"46 438 OFFCURVE",
"97 349 OFFCURVE",
"209 349 CURVE SMOOTH",
"318 349 OFFCURVE",
"377 439 OFFCURVE",
"377 562 CURVE SMOOTH"
);
}
);
};
layerId = "CC11FE7D-5FF0-4B40-9597-DFC61EB94F41";
paths = (
{
closed = 1;
nodes = (
"332 462 OFFCURVE",
"292 385 OFFCURVE",
"211 385 CURVE SMOOTH",
"130 385 OFFCURVE",
"90 461 OFFCURVE",
"90 562 CURVE SMOOTH",
"90 661 OFFCURVE",
"132 741 OFFCURVE",
"213 741 CURVE SMOOTH",
"294 741 OFFCURVE",
"332 663 OFFCURVE",
"332 562 CURVE SMOOTH"
);
},
{
closed = 1;
nodes = (
"377 685 OFFCURVE",
"324 776 OFFCURVE",
"214 776 CURVE SMOOTH",
"108 776 OFFCURVE",
"46 684 OFFCURVE",
"46 562 CURVE SMOOTH",
"46 438 OFFCURVE",
"97 349 OFFCURVE",
"209 349 CURVE SMOOTH",
"318 349 OFFCURVE",
"377 439 OFFCURVE",
"377 562 CURVE SMOOTH"
);
}
);
width = 422;
}
);
unicode = 00BA;
}
{
glyphname = oslash;
layers = (
{
background = {
paths = (
{
closed = 1;
nodes = (
"443 860 LINE",
"110 -60 LINE",
"205 -89 LINE",
"536 832 LINE"
);
}
);
};
components = (
{
name = o;
}
);
guideLines = (
{
position = "{68, 259}";
}
);
layerId = "6114C541-D024-4A3E-9713-6FAF49EAB318";
paths = (
{
closed = 1;
nodes = (
"384 684 LINE",
"110 -72 LINE",
"198 -100 LINE",
"470 655 LINE"
);
}
);
width = 583;
},
{
background = {
paths = (
{
closed = 1;
nodes = (
"384 658 LINE",
"129 -55 LINE",
"167 -67 LINE",
"421 645 LINE"
);
}
);
};
components = (
{
name = o;
}
);
guideLines = (
{
angle = 90;
position = "{40, 325}";
}
);
layerId = "CC11FE7D-5FF0-4B40-9597-DFC61EB94F41";
paths = (
{
closed = 1;
nodes = (
"386 663 LINE",
"125 -66 LINE",
"164 -79 LINE",
"423 651 LINE"
);
}
);
width = 544;
},
{
components = (
{
name = o;
}
);
layerId = "700B375B-E5F6-4156-8225-245C9DB4E923";
paths = (
{
closed = 1;
nodes = (
"384 684 LINE",
"110 -72 LINE",
"198 -100 LINE",
"470 655 LINE"
);
}
);
width = 583;
}
);
unicode = 00F8;
}
{
glyphname = paragraph;
layers = (
{
background = {
paths = (
{
closed = 1;
nodes = (
"256 389 OFFCURVE",
"282 389 OFFCURVE",
"305 390 CURVE",
"305 768 LINE",
"226 768 LINE SMOOTH",
"81 768 OFFCURVE",
"16 675 OFFCURVE",
"16 571 CURVE SMOOTH",
"16 448 OFFCURVE",
"116 389 OFFCURVE",
"226 389 CURVE SMOOTH"
);
}
);
};
layerId = "6114C541-D024-4A3E-9713-6FAF49EAB318";
paths = (
{
closed = 1;
nodes = (
"365 0 LINE",
"365 768 LINE",
"226 768 LINE SMOOTH",
"90 765 OFFCURVE",
"23 679 OFFCURVE",
"23 582 CURVE SMOOTH",
"23 486 OFFCURVE",
"92 393 OFFCURVE",
"236 389 CURVE",
"226 398 LINE",
"226 0 LINE"
);
},
{
closed = 1;
nodes = (
"582 0 LINE",
"582 768 LINE",
"443 768 LINE",
"443 0 LINE"
);
}
);
width = 656;
},
{
background = {
paths = (
{
closed = 1;
nodes = (
"258 434 OFFCURVE",
"245 434 OFFCURVE",
"280 435 CURVE",
"282 768 LINE",
"215 768 LINE SMOOTH",
"98 768 OFFCURVE",
"28 693 OFFCURVE",
"28 592 CURVE SMOOTH",
"28 504 OFFCURVE",
"68 434 OFFCURVE",
"224 434 CURVE SMOOTH"
);
},
{
closed = 1;
nodes = (
"283 0 LINE",
"283 768 LINE",
"236 768 LINE",
"236 0 LINE"
);
},
{
closed = 1;
nodes = (
"397 0 LINE",
"397 768 LINE",
"349 768 LINE",
"349 0 LINE"
);
}
);
};
layerId = "CC11FE7D-5FF0-4B40-9597-DFC61EB94F41";
paths = (
{
closed = 1;
nodes = (
"283 0 LINE",
"283 768 LINE",
"215 768 LINE SMOOTH",
"93 768 OFFCURVE",
"28 690 OFFCURVE",
"28 600 CURVE SMOOTH",
"28 494 OFFCURVE",
"88 434 OFFCURVE",
"245 434 CURVE",
"236 444 LINE",
"236 0 LINE"
);
},
{
closed = 1;
nodes = (
"397 0 LINE",
"397 768 LINE",
"349 768 LINE",
"349 0 LINE"
);
}
);
width = 494;
},
{
layerId = "700B375B-E5F6-4156-8225-245C9DB4E923";
paths = (
{
closed = 1;
nodes = (
"365 0 LINE",
"365 768 LINE",
"226 768 LINE SMOOTH",
"90 765 OFFCURVE",
"23 679 OFFCURVE",
"23 582 CURVE SMOOTH",
"23 486 OFFCURVE",
"92 393 OFFCURVE",
"236 389 CURVE",
"226 398 LINE",
"226 0 LINE"
);
},
{
closed = 1;
nodes = (
"582 0 LINE",
"582 768 LINE",
"443 768 LINE",
"443 0 LINE"
);
}
);
width = 656;
}
);
unicode = 00B6;
}
{
glyphname = periodcentered;
layers = (
{
background = {
paths = (
{
closed = 1;
nodes = (
"133 372 OFFCURVE",
"149 393 OFFCURVE",
"149 421 CURVE SMOOTH",
"149 448 OFFCURVE",
"133 469 OFFCURVE",
"104 469 CURVE SMOOTH",
"74 469 OFFCURVE",
"58 448 OFFCURVE",
"58 421 CURVE SMOOTH",
"58 393 OFFCURVE",
"74 372 OFFCURVE",
"104 372 CURVE SMOOTH"
);
}
);
};
layerId = "6114C541-D024-4A3E-9713-6FAF49EAB318";
paths = (
{
closed = 1;
nodes = (
"101 203 OFFCURVE",
"151 203 CURVE SMOOTH",
"201 203 OFFCURVE",
"253 241 OFFCURVE",
"253 314 CURVE SMOOTH",
"253 386 OFFCURVE",
"203 421 OFFCURVE",
"152 421 CURVE SMOOTH",
"102 421 OFFCURVE",
"52 386 OFFCURVE",
"52 314 CURVE SMOOTH",
"52 240 OFFCURVE"
);
}
);
width = 305;
},
{
background = {
paths = (
{
closed = 1;
nodes = (
"127 308 OFFCURVE",
"142 327 OFFCURVE",
"142 353 CURVE SMOOTH",
"142 378 OFFCURVE",
"127 396 OFFCURVE",
"102 396 CURVE SMOOTH",
"77 396 OFFCURVE",
"63 378 OFFCURVE",
"63 353 CURVE SMOOTH",
"63 327 OFFCURVE",
"77 308 OFFCURVE",
"102 308 CURVE SMOOTH"
);
}
);
};
layerId = "CC11FE7D-5FF0-4B40-9597-DFC61EB94F41";
paths = (
{
closed = 1;
nodes = (
"80 274 OFFCURVE",
"102 274 CURVE SMOOTH",
"125 274 OFFCURVE",
"148 290 OFFCURVE",
"148 323 CURVE SMOOTH",
"148 356 OFFCURVE",
"125 372 OFFCURVE",
"102 372 CURVE SMOOTH",
"80 372 OFFCURVE",
"57 356 OFFCURVE",
"57 323 CURVE SMOOTH",
"57 290 OFFCURVE"
);
}
);
width = 205;
},
{
layerId = "700B375B-E5F6-4156-8225-245C9DB4E923";
paths = (
{
closed = 1;
nodes = (
"101 203 OFFCURVE",
"151 203 CURVE SMOOTH",
"201 203 OFFCURVE",
"253 241 OFFCURVE",
"253 314 CURVE SMOOTH",
"253 386 OFFCURVE",
"203 421 OFFCURVE",
"152 421 CURVE SMOOTH",
"102 421 OFFCURVE",
"52 386 OFFCURVE",
"52 314 CURVE SMOOTH",
"52 240 OFFCURVE"
);
}
);
width = 305;
}
);
unicode = 00B7;
}
{
glyphname = plusminus;
layers = (
{
background = {
paths = (
{
closed = 1;
nodes = (
"46 34 LINE",
"505 34 LINE",
"505 76 LINE",
"46 76 LINE"
);
},
{
closed = 1;
nodes = (
"46 331 LINE",
"505 331 LINE",
"505 373 LINE",
"46 373 LINE"
);
},
{
closed = 1;
nodes = (
"299 150 LINE",
"299 554 LINE",
"253 554 LINE",
"253 150 LINE"
);
}
);
};
layerId = "6114C541-D024-4A3E-9713-6FAF49EAB318";
paths = (
{
closed = 1;
nodes = (
"522 -11 LINE",
"522 114 LINE",
"40 114 LINE",
"40 -11 LINE"
);
},
{
closed = 1;
nodes = (
"353 167 LINE",
"353 595 LINE",
"211 595 LINE",
"211 167 LINE"
);
},
{
closed = 1;
nodes = (
"522 320 LINE",
"522 443 LINE",
"40 443 LINE",
"40 320 LINE"
);
}
);
width = 562;
},
{
layerId = "CC11FE7D-5FF0-4B40-9597-DFC61EB94F41";
paths = (
{
closed = 1;
nodes = (
"505 34 LINE",
"505 76 LINE",
"46 76 LINE",
"46 34 LINE"
);
},
{
closed = 1;
nodes = (
"299 150 LINE",
"299 554 LINE",
"253 554 LINE",
"253 150 LINE"
);
},
{
closed = 1;
nodes = (
"505 331 LINE",
"505 373 LINE",
"46 373 LINE",
"46 331 LINE"
);
}
);
width = 551;
},
{
layerId = "700B375B-E5F6-4156-8225-245C9DB4E923";
paths = (
{
closed = 1;
nodes = (
"522 -11 LINE",
"522 114 LINE",
"40 114 LINE",
"40 -11 LINE"
);
},
{
closed = 1;
nodes = (
"353 167 LINE",
"353 595 LINE",
"211 595 LINE",
"211 167 LINE"
);
},
{
closed = 1;
nodes = (
"522 320 LINE",
"522 443 LINE",
"40 443 LINE",
"40 320 LINE"
);
}
);
width = 562;
}
);
unicode = 00B1;
}
{
glyphname = registered;
layers = (
{
background = {
paths = (
{
closed = 1;
nodes = (
"643 -17 OFFCURVE",
"848 118 OFFCURVE",
"848 386 CURVE SMOOTH",
"848 650 OFFCURVE",
"648 785 OFFCURVE",
"447 785 CURVE SMOOTH",
"244 785 OFFCURVE",
"39 648 OFFCURVE",
"39 382 CURVE SMOOTH",
"39 117 OFFCURVE",
"239 -17 OFFCURVE",
"440 -17 CURVE SMOOTH"
);
},
{
closed = 1;
nodes = (
"298 80 OFFCURVE",
"158 179 OFFCURVE",
"158 385 CURVE SMOOTH",
"158 587 OFFCURVE",
"295 688 OFFCURVE",
"442 688 CURVE SMOOTH",
"589 688 OFFCURVE",
"728 587 OFFCURVE",
"728 384 CURVE SMOOTH",
"728 179 OFFCURVE",
"593 80 OFFCURVE",
"446 80 CURVE SMOOTH"
);
},
{
closed = 1;
nodes = (
"484 206 LINE SMOOTH",
"500 171 OFFCURVE",
"522 150 OFFCURVE",
"562 150 CURVE SMOOTH",
"574 150 OFFCURVE",
"599 151 OFFCURVE",
"611 155 CURVE",
"609 218 LINE",
"605 218 OFFCURVE",
"602 218 OFFCURVE",
"599 218 CURVE SMOOTH",
"586 218 OFFCURVE",
"579 223 OFFCURVE",
"572 236 CURVE SMOOTH",
"503 378 LINE",
"409 369 LINE"
);
}
);
};
guideLines = (
{
position = "{395, 540}";
},
{
position = "{395, 132}";
}
);
layerId = "6114C541-D024-4A3E-9713-6FAF49EAB318";
paths = (
{
closed = 1;
nodes = (
"395 152 LINE",
"395 545 LINE",
"378 529 LINE",
"391 530 OFFCURVE",
"421 530 OFFCURVE",
"435 530 CURVE SMOOTH",
"484 530 OFFCURVE",
"502 505 OFFCURVE",
"502 465 CURVE SMOOTH",
"502 429 OFFCURVE",
"480 401 OFFCURVE",
"440 401 CURVE SMOOTH",
"347 401 LINE",
"347 319 LINE",
"435 319 LINE SMOOTH",
"559 319 OFFCURVE",
"608 394 OFFCURVE",
"608 475 CURVE SMOOTH",
"608 575 OFFCURVE",
"538 613 OFFCURVE",
"432 613 CURVE SMOOTH",
"374 613 OFFCURVE",
"330 612 OFFCURVE",
"292 611 CURVE",
"292 152 LINE"
);
},
{
closed = 1;
nodes = (
"494 199 LINE SMOOTH",
"510 164 OFFCURVE",
"536 143 OFFCURVE",
"576 143 CURVE SMOOTH",
"587 143 OFFCURVE",
"607 145 OFFCURVE",
"620 148 CURVE",
"618 218 LINE",
"609 218 LINE SMOOTH",
"597 218 OFFCURVE",
"589 223 OFFCURVE",
"583 236 CURVE SMOOTH",
"510 376 LINE",
"415 366 LINE"
);
},
{
closed = 1;
nodes = (
"643 -17 OFFCURVE",
"848 118 OFFCURVE",
"848 386 CURVE SMOOTH",
"848 650 OFFCURVE",
"648 785 OFFCURVE",
"447 785 CURVE SMOOTH",
"244 785 OFFCURVE",
"39 648 OFFCURVE",
"39 382 CURVE SMOOTH",
"39 117 OFFCURVE",
"239 -17 OFFCURVE",
"440 -17 CURVE SMOOTH"
);
},
{
closed = 1;
nodes = (
"298 80 OFFCURVE",
"158 179 OFFCURVE",
"158 385 CURVE SMOOTH",
"158 587 OFFCURVE",
"295 688 OFFCURVE",
"442 688 CURVE SMOOTH",
"589 688 OFFCURVE",
"728 587 OFFCURVE",
"728 384 CURVE SMOOTH",
"728 179 OFFCURVE",
"593 80 OFFCURVE",
"446 80 CURVE SMOOTH"
);
}
);
width = 886;
},
{
background = {
paths = (
{
closed = 1;
nodes = (
"650 -1 OFFCURVE",
"810 171 OFFCURVE",
"810 395 CURVE SMOOTH",
"810 616 OFFCURVE",
"650 786 OFFCURVE",
"432 785 CURVE SMOOTH",
"214 785 OFFCURVE",
"51 616 OFFCURVE",
"51 394 CURVE SMOOTH",
"51 170 OFFCURVE",
"212 0 OFFCURVE",
"431 0 CURVE SMOOTH"
);
},
{
closed = 1;
nodes = (
"240 39 OFFCURVE",
"99 192 OFFCURVE",
"99 395 CURVE SMOOTH",
"99 595 OFFCURVE",
"240 747 OFFCURVE",
"432 747 CURVE SMOOTH",
"621 748 OFFCURVE",
"761 593 OFFCURVE",
"762 394 CURVE SMOOTH",
"762 191 OFFCURVE",
"624 38 OFFCURVE",
"432 39 CURVE SMOOTH"
);
}
);
};
guideLines = (
{
position = "{393, 574}";
},
{
position = "{393, 116}";
}
);
layerId = "CC11FE7D-5FF0-4B40-9597-DFC61EB94F41";
paths = (
{
closed = 1;
nodes = (
"339 122 LINE",
"339 635 LINE",
"329 620 LINE",
"356 620 OFFCURVE",
"386 622 OFFCURVE",
"414 622 CURVE SMOOTH",
"514 622 OFFCURVE",
"552 585 OFFCURVE",
"552 512 CURVE SMOOTH",
"552 436 OFFCURVE",
"501 396 OFFCURVE",
"413 396 CURVE SMOOTH",
"322 396 LINE",
"322 361 LINE",
"420 361 LINE SMOOTH",
"538 361 OFFCURVE",
"597 426 OFFCURVE",
"597 517 CURVE SMOOTH",
"597 611 OFFCURVE",
"541 658 OFFCURVE",
"420 658 CURVE SMOOTH",
"384 658 OFFCURVE",
"333 658 OFFCURVE",
"296 655 CURVE",
"296 122 LINE"
);
},
{
closed = 1;
nodes = (
"544 150 LINE SMOOTH",
"554 130 OFFCURVE",
"569 116 OFFCURVE",
"594 116 CURVE SMOOTH",
"600 116 OFFCURVE",
"607 116 OFFCURVE",
"615 118 CURVE",
"612 146 LINE",
"607 146 LINE SMOOTH",
"595 146 OFFCURVE",
"591 149 OFFCURVE",
"583 166 CURVE SMOOTH",
"473 382 LINE",
"429 378 LINE"
);
},
{
closed = 1;
nodes = (
"650 -1 OFFCURVE",
"810 171 OFFCURVE",
"810 395 CURVE SMOOTH",
"810 616 OFFCURVE",
"650 786 OFFCURVE",
"432 785 CURVE SMOOTH",
"214 785 OFFCURVE",
"51 616 OFFCURVE",
"51 394 CURVE SMOOTH",
"51 170 OFFCURVE",
"212 0 OFFCURVE",
"431 0 CURVE SMOOTH"
);
},
{
closed = 1;
nodes = (
"240 39 OFFCURVE",
"99 192 OFFCURVE",
"99 395 CURVE SMOOTH",
"99 595 OFFCURVE",
"240 747 OFFCURVE",
"432 747 CURVE SMOOTH",
"621 748 OFFCURVE",
"761 593 OFFCURVE",
"762 394 CURVE SMOOTH",
"762 191 OFFCURVE",
"624 38 OFFCURVE",
"432 39 CURVE SMOOTH"
);
}
);
width = 864;
},
{
layerId = "700B375B-E5F6-4156-8225-245C9DB4E923";
paths = (
{
closed = 1;
nodes = (
"395 152 LINE",
"395 545 LINE",
"378 529 LINE",
"391 530 OFFCURVE",
"421 530 OFFCURVE",
"435 530 CURVE SMOOTH",
"484 530 OFFCURVE",
"502 505 OFFCURVE",
"502 465 CURVE SMOOTH",
"502 429 OFFCURVE",
"480 401 OFFCURVE",
"440 401 CURVE SMOOTH",
"347 401 LINE",
"347 319 LINE",
"435 319 LINE SMOOTH",
"559 319 OFFCURVE",
"608 394 OFFCURVE",
"608 475 CURVE SMOOTH",
"608 575 OFFCURVE",
"538 613 OFFCURVE",
"432 613 CURVE SMOOTH",
"374 613 OFFCURVE",
"330 612 OFFCURVE",
"292 611 CURVE",
"292 152 LINE"
);
},
{
closed = 1;
nodes = (
"494 199 LINE SMOOTH",
"510 164 OFFCURVE",
"536 143 OFFCURVE",
"576 143 CURVE SMOOTH",
"587 143 OFFCURVE",
"607 145 OFFCURVE",
"620 148 CURVE",
"618 218 LINE",
"609 218 LINE SMOOTH",
"597 218 OFFCURVE",
"589 223 OFFCURVE",
"583 236 CURVE SMOOTH",
"510 376 LINE",
"415 366 LINE"
);
},
{
closed = 1;
nodes = (
"643 -17 OFFCURVE",
"848 118 OFFCURVE",
"848 386 CURVE SMOOTH",
"848 650 OFFCURVE",
"648 785 OFFCURVE",
"447 785 CURVE SMOOTH",
"244 785 OFFCURVE",
"39 648 OFFCURVE",
"39 382 CURVE SMOOTH",
"39 117 OFFCURVE",
"239 -17 OFFCURVE",
"440 -17 CURVE SMOOTH"
);
},
{
closed = 1;
nodes = (
"298 80 OFFCURVE",
"158 179 OFFCURVE",
"158 385 CURVE SMOOTH",
"158 587 OFFCURVE",
"295 688 OFFCURVE",
"442 688 CURVE SMOOTH",
"589 688 OFFCURVE",
"728 587 OFFCURVE",
"728 384 CURVE SMOOTH",
"728 179 OFFCURVE",
"593 80 OFFCURVE",
"446 80 CURVE SMOOTH"
);
}
);
width = 886;
}
);
unicode = 00AE;
}
{
glyphname = section;
layers = (
{
background = {
paths = (
{
closed = 1;
nodes = (
"241 145 LINE",
"355 155 OFFCURVE",
"436 222 OFFCURVE",
"436 335 CURVE SMOOTH",
"436 514 OFFCURVE",
"198 533 OFFCURVE",
"199 620 CURVE SMOOTH",
"200 658 OFFCURVE",
"230 675 OFFCURVE",
"263 675 CURVE SMOOTH",
"285 674 OFFCURVE",
"308 666 OFFCURVE",
"327 650 CURVE",
"399 735 LINE",
"358 768 OFFCURVE",
"306 784 OFFCURVE",
"254 784 CURVE SMOOTH",
"151 784 OFFCURVE",
"52 723 OFFCURVE",
"52 616 CURVE SMOOTH",
"52 426 OFFCURVE",
"291 423 OFFCURVE",
"291 303 CURVE SMOOTH",
"291 271 OFFCURVE",
"273 237 OFFCURVE",
"234 211 CURVE"
);
},
{
closed = 1;
nodes = (
"43 -53 LINE",
"91 -82 OFFCURVE",
"146 -96 OFFCURVE",
"196 -96 CURVE SMOOTH",
"308 -96 OFFCURVE",
"407 -30 OFFCURVE",
"407 92 CURVE SMOOTH",
"407 272 OFFCURVE",
"170 281 OFFCURVE",
"170 397 CURVE SMOOTH",
"170 431 OFFCURVE",
"193 463 OFFCURVE",
"231 478 CURVE",
"228 535 LINE",
"124 537 OFFCURVE",
"28 477 OFFCURVE",
"28 372 CURVE SMOOTH",
"28 187 OFFCURVE",
"261 171 OFFCURVE",
"261 79 CURVE SMOOTH",
"261 34 OFFCURVE",
"225 18 OFFCURVE",
"183 18 CURVE SMOOTH",
"150 20 OFFCURVE",
"114 27 OFFCURVE",
"81 43 CURVE"
);
},
{
closed = 0;
nodes = (
"60 241 LINE"
);
}
);
};
layerId = "6114C541-D024-4A3E-9713-6FAF49EAB318";
paths = (
{
closed = 1;
nodes = (
"351 152 OFFCURVE",
"434 221 OFFCURVE",
"434 335 CURVE SMOOTH",
"434 510 OFFCURVE",
"201 534 OFFCURVE",
"201 620 CURVE SMOOTH",
"201 659 OFFCURVE",
"233 675 OFFCURVE",
"266 675 CURVE",
"288 673 OFFCURVE",
"312 665 OFFCURVE",
"330 649 CURVE",
"404 733 LINE",
"362 767 OFFCURVE",
"310 784 OFFCURVE",
"256 784 CURVE SMOOTH",
"154 784 OFFCURVE",
"55 724 OFFCURVE",
"55 615 CURVE SMOOTH",
"55 429 OFFCURVE",
"290 422 OFFCURVE",
"289 302 CURVE SMOOTH",
"288 270 OFFCURVE",
"269 237 OFFCURVE",
"230 211 CURVE",
"236 145 LINE"
);
},
{
closed = 1;
nodes = (
"306 -96 OFFCURVE",
"405 -30 OFFCURVE",
"405 92 CURVE SMOOTH",
"405 267 OFFCURVE",
"173 283 OFFCURVE",
"173 397 CURVE SMOOTH",
"173 431 OFFCURVE",
"197 463 OFFCURVE",
"236 478 CURVE",
"233 535 LINE",
"127 538 OFFCURVE",
"31 479 OFFCURVE",
"31 371 CURVE SMOOTH",
"31 190 OFFCURVE",
"259 168 OFFCURVE",
"258 79 CURVE SMOOTH",
"257 35 OFFCURVE",
"224 19 OFFCURVE",
"184 19 CURVE SMOOTH",
"150 19 OFFCURVE",
"112 28 OFFCURVE",
"77 46 CURVE",
"39 -50 LINE",
"88 -80 OFFCURVE",
"142 -96 OFFCURVE",
"193 -96 CURVE SMOOTH"
);
}
);
width = 464;
},
{
associatedMasterId = "6114C541-D024-4A3E-9713-6FAF49EAB318";
background = {
paths = (
{
closed = 1;
nodes = (
"241 145 LINE",
"355 155 OFFCURVE",
"436 222 OFFCURVE",
"436 335 CURVE SMOOTH",
"436 514 OFFCURVE",
"198 533 OFFCURVE",
"199 620 CURVE SMOOTH",
"200 658 OFFCURVE",
"230 675 OFFCURVE",
"263 675 CURVE SMOOTH",
"285 674 OFFCURVE",
"308 666 OFFCURVE",
"327 650 CURVE",
"399 735 LINE",
"358 768 OFFCURVE",
"306 784 OFFCURVE",
"254 784 CURVE SMOOTH",
"151 784 OFFCURVE",
"52 723 OFFCURVE",
"52 616 CURVE SMOOTH",
"52 426 OFFCURVE",
"291 423 OFFCURVE",
"291 303 CURVE SMOOTH",
"291 271 OFFCURVE",
"273 237 OFFCURVE",
"234 211 CURVE"
);
},
{
closed = 1;
nodes = (
"43 -53 LINE",
"91 -82 OFFCURVE",
"146 -96 OFFCURVE",
"196 -96 CURVE SMOOTH",
"308 -96 OFFCURVE",
"407 -30 OFFCURVE",
"407 92 CURVE SMOOTH",
"407 272 OFFCURVE",
"170 281 OFFCURVE",
"170 397 CURVE SMOOTH",
"170 431 OFFCURVE",
"193 463 OFFCURVE",
"231 478 CURVE",
"228 535 LINE",
"124 537 OFFCURVE",
"28 477 OFFCURVE",
"28 372 CURVE SMOOTH",
"28 187 OFFCURVE",
"261 171 OFFCURVE",
"261 79 CURVE SMOOTH",
"261 34 OFFCURVE",
"225 18 OFFCURVE",
"183 18 CURVE SMOOTH",
"150 20 OFFCURVE",
"114 27 OFFCURVE",
"81 43 CURVE"
);
},
{
closed = 0;
nodes = (
"60 241 LINE"
);
}
);
};
layerId = "4029A184-6A5A-40EB-9B28-40BDF163798F";
name = "Bold Condensed Nov 5 15, 08:24";
paths = (
{
closed = 1;
nodes = (
"241 145 LINE",
"355 155 OFFCURVE",
"436 222 OFFCURVE",
"436 335 CURVE SMOOTH",
"436 514 OFFCURVE",
"198 533 OFFCURVE",
"199 620 CURVE SMOOTH",
"200 658 OFFCURVE",
"230 675 OFFCURVE",
"263 675 CURVE SMOOTH",
"285 674 OFFCURVE",
"308 666 OFFCURVE",
"327 650 CURVE",
"399 735 LINE",
"358 768 OFFCURVE",
"306 784 OFFCURVE",
"254 784 CURVE SMOOTH",
"151 784 OFFCURVE",
"52 723 OFFCURVE",
"52 616 CURVE SMOOTH",
"52 426 OFFCURVE",
"291 423 OFFCURVE",
"291 303 CURVE SMOOTH",
"291 271 OFFCURVE",
"273 237 OFFCURVE",
"234 211 CURVE"
);
},
{
closed = 1;
nodes = (
"43 -53 LINE",
"91 -82 OFFCURVE",
"146 -96 OFFCURVE",
"196 -96 CURVE SMOOTH",
"308 -96 OFFCURVE",
"407 -30 OFFCURVE",
"407 92 CURVE SMOOTH",
"407 272 OFFCURVE",
"170 281 OFFCURVE",
"170 397 CURVE SMOOTH",
"170 431 OFFCURVE",
"193 463 OFFCURVE",
"231 478 CURVE",
"228 535 LINE",
"124 537 OFFCURVE",
"28 477 OFFCURVE",
"28 372 CURVE SMOOTH",
"28 187 OFFCURVE",
"261 171 OFFCURVE",
"261 79 CURVE SMOOTH",
"261 34 OFFCURVE",
"225 18 OFFCURVE",
"183 18 CURVE SMOOTH",
"150 20 OFFCURVE",
"114 27 OFFCURVE",
"81 43 CURVE"
);
},
{
closed = 0;
nodes = (
"60 241 LINE"
);
}
);
width = 464;
},
{
background = {
paths = (
{
closed = 1;
nodes = (
"60 295 LINE",
"109 259 OFFCURVE",
"168 240 OFFCURVE",
"224 240 CURVE SMOOTH",
"307 240 OFFCURVE",
"388 294 OFFCURVE",
"388 391 CURVE SMOOTH",
"388 571 OFFCURVE",
"123 542 OFFCURVE",
"123 686 CURVE SMOOTH",
"123 751 OFFCURVE",
"178 785 OFFCURVE",
"233 785 CURVE SMOOTH",
"279 785 OFFCURVE",
"328 765 OFFCURVE",
"353 720 CURVE",
"391 741 LINE",
"360 798 OFFCURVE",
"297 825 OFFCURVE",
"237 825 CURVE SMOOTH",
"157 825 OFFCURVE",
"77 776 OFFCURVE",
"77 686 CURVE SMOOTH",
"77 509 OFFCURVE",
"343 542 OFFCURVE",
"343 391 CURVE SMOOTH",
"343 322 OFFCURVE",
"289 280 OFFCURVE",
"226 280 CURVE SMOOTH",
"181 280 OFFCURVE",
"129 298 OFFCURVE",
"81 331 CURVE"
);
}
);
};
layerId = "CC11FE7D-5FF0-4B40-9597-DFC61EB94F41";
paths = (
{
closed = 1;
nodes = (
"360 166 OFFCURVE",
"382 212 OFFCURVE",
"382 264 CURVE SMOOTH",
"382 440 OFFCURVE",
"124 496 OFFCURVE",
"124 637 CURVE SMOOTH",
"124 703 OFFCURVE",
"178 736 OFFCURVE",
"233 736 CURVE SMOOTH",
"264 736 OFFCURVE",
"297 727 OFFCURVE",
"323 706 CURVE",
"351 735 LINE",
"318 764 OFFCURVE",
"277 776 OFFCURVE",
"237 776 CURVE SMOOTH",
"156 776 OFFCURVE",
"79 725 OFFCURVE",
"79 637 CURVE SMOOTH",
"79 463 OFFCURVE",
"337 410 OFFCURVE",
"337 263 CURVE SMOOTH",
"337 228 OFFCURVE",
"327 195 OFFCURVE",
"305 175 CURVE",
"325 141 LINE"
);
},
{
closed = 1;
nodes = (
"288 -91 OFFCURVE",
"361 -36 OFFCURVE",
"361 61 CURVE SMOOTH",
"361 238 OFFCURVE",
"102 282 OFFCURVE",
"102 423 CURVE SMOOTH",
"102 465 OFFCURVE",
"125 500 OFFCURVE",
"156 514 CURVE",
"133 544 LINE",
"89 522 OFFCURVE",
"57 481 OFFCURVE",
"57 422 CURVE SMOOTH",
"57 249 OFFCURVE",
"315 207 OFFCURVE",
"315 61 CURVE SMOOTH",
"315 -9 OFFCURVE",
"263 -51 OFFCURVE",
"200 -51 CURVE SMOOTH",
"167 -51 OFFCURVE",
"132 -40 OFFCURVE",
"96 -22 CURVE",
"77 -61 LINE",
"118 -81 OFFCURVE",
"159 -91 OFFCURVE",
"197 -91 CURVE SMOOTH"
);
}
);
width = 439;
},
{
layerId = "700B375B-E5F6-4156-8225-245C9DB4E923";
paths = (
{
closed = 1;
nodes = (
"351 152 OFFCURVE",
"434 221 OFFCURVE",
"434 335 CURVE SMOOTH",
"434 510 OFFCURVE",
"201 534 OFFCURVE",
"201 620 CURVE SMOOTH",
"201 659 OFFCURVE",
"233 675 OFFCURVE",
"266 675 CURVE",
"288 673 OFFCURVE",
"312 665 OFFCURVE",
"330 649 CURVE",
"404 733 LINE",
"362 767 OFFCURVE",
"310 784 OFFCURVE",
"256 784 CURVE SMOOTH",
"154 784 OFFCURVE",
"55 724 OFFCURVE",
"55 615 CURVE SMOOTH",
"55 429 OFFCURVE",
"290 422 OFFCURVE",
"289 302 CURVE SMOOTH",
"288 270 OFFCURVE",
"269 237 OFFCURVE",
"230 211 CURVE",
"236 145 LINE"
);
},
{
closed = 1;
nodes = (
"306 -96 OFFCURVE",
"405 -30 OFFCURVE",
"405 92 CURVE SMOOTH",
"405 267 OFFCURVE",
"173 283 OFFCURVE",
"173 397 CURVE SMOOTH",
"173 431 OFFCURVE",
"197 463 OFFCURVE",
"236 478 CURVE",
"233 535 LINE",
"127 538 OFFCURVE",
"31 479 OFFCURVE",
"31 371 CURVE SMOOTH",
"31 190 OFFCURVE",
"259 168 OFFCURVE",
"258 79 CURVE SMOOTH",
"257 35 OFFCURVE",
"224 19 OFFCURVE",
"184 19 CURVE SMOOTH",
"150 19 OFFCURVE",
"112 28 OFFCURVE",
"77 46 CURVE",
"39 -50 LINE",
"88 -80 OFFCURVE",
"142 -96 OFFCURVE",
"193 -96 CURVE SMOOTH"
);
}
);
width = 464;
}
);
unicode = 00A7;
}
{
glyphname = sinA;
layers = (
{
layerId = "6114C541-D024-4A3E-9713-6FAF49EAB318";
paths = (
{
closed = 1;
nodes = (
"331 -233 LINE",
"328 473 LINE",
"328 473 OFFCURVE",
"342 556 OFFCURVE",
"394 607 CURVE SMOOTH",
"397 610 OFFCURVE",
"477 699 OFFCURVE",
"561 699 CURVE",
"609 628 LINE",
"596 621 OFFCURVE",
"592 606 OFFCURVE",
"592 588 CURVE SMOOTH",
"592 553 OFFCURVE",
"608 502 OFFCURVE",
"608 454 CURVE SMOOTH",
"608 398 OFFCURVE",
"573 335 OFFCURVE",
"485 335 CURVE SMOOTH",
"472 335 OFFCURVE",
"458 336 OFFCURVE",
"443 339 CURVE",
"444 430 LINE",
"449 430 OFFCURVE",
"454 430 OFFCURVE",
"458 430 CURVE SMOOTH",
"496 430 OFFCURVE",
"512 447 OFFCURVE",
"512 476 CURVE SMOOTH",
"512 499 OFFCURVE",
"505 524 OFFCURVE",
"499 544 CURVE SMOOTH",
"498 549 OFFCURVE",
"497 553 OFFCURVE",
"496 556 CURVE",
"446 522 OFFCURVE",
"450 459 OFFCURVE",
"449 372 CURVE SMOOTH",
"449 -233 LINE"
);
},
{
closed = 1;
nodes = (
"25 247 CURVE SMOOTH",
"25 377 OFFCURVE",
"135 480 OFFCURVE",
"272 480 CURVE SMOOTH",
"294 480 OFFCURVE",
"308 478 OFFCURVE",
"328 476 CURVE",
"329 483 OFFCURVE",
"330 490 OFFCURVE",
"330 497 CURVE SMOOTH",
"330 539 OFFCURVE",
"304 567 OFFCURVE",
"272 567 CURVE SMOOTH",
"238 567 OFFCURVE",
"220 543 OFFCURVE",
"220 516 CURVE SMOOTH",
"220 502 OFFCURVE",
"224 486 OFFCURVE",
"233 476 CURVE",
"145 431 LINE",
"123 460 OFFCURVE",
"114 490 OFFCURVE",
"114 522 CURVE SMOOTH",
"114 608 OFFCURVE",
"173 678 OFFCURVE",
"272 678 CURVE SMOOTH",
"359 678 OFFCURVE",
"441 614 OFFCURVE",
"441 489 CURVE SMOOTH",
"441 454 OFFCURVE",
"433 406 OFFCURVE",
"419 362 CURVE",
"272 362 LINE SMOOTH",
"209 362 OFFCURVE",
"153 311 OFFCURVE",
"153 247 CURVE SMOOTH",
"153 183 OFFCURVE",
"197 127 OFFCURVE",
"308 127 CURVE SMOOTH",
"443 127 OFFCURVE",
"505 199 OFFCURVE",
"529 221 CURVE",
"607 126 LINE",
"562 81 OFFCURVE",
"452 0 OFFCURVE",
"308 0 CURVE SMOOTH",
"117 0 OFFCURVE",
"25 110 OFFCURVE"
);
}
);
width = 646;
},
{
layerId = "CC11FE7D-5FF0-4B40-9597-DFC61EB94F41";
paths = (
{
closed = 1;
nodes = (
"374 -233 LINE",
"372 464 LINE",
"374 484 OFFCURVE",
"388 535 OFFCURVE",
"399 558 CURVE SMOOTH",
"427 613 OFFCURVE",
"480 666 OFFCURVE",
"558 682 CURVE",
"570 654 LINE",
"556 643 OFFCURVE",
"551 628 OFFCURVE",
"551 609 CURVE SMOOTH",
"551 568 OFFCURVE",
"585 518 OFFCURVE",
"585 468 CURVE SMOOTH",
"585 408 OFFCURVE",
"551 364 OFFCURVE",
"474 364 CURVE SMOOTH",
"456 364 OFFCURVE",
"428 371 OFFCURVE",
"412 379 CURVE",
"412 418 LINE",
"432 406 OFFCURVE",
"453 403 OFFCURVE",
"469 403 CURVE SMOOTH",
"521 403 OFFCURVE",
"544 429 OFFCURVE",
"544 468 CURVE SMOOTH",
"544 502 OFFCURVE",
"515 557 OFFCURVE",
"515 601 CURVE SMOOTH",
"515 611 OFFCURVE",
"517 620 OFFCURVE",
"520 628 CURVE",
"488 617 OFFCURVE",
"422 555 OFFCURVE",
"417 481 CURVE",
"417 -233 LINE"
);
},
{
closed = 1;
nodes = (
"38 241 CURVE SMOOTH",
"38 356 OFFCURVE",
"121 468 OFFCURVE",
"262 468 CURVE SMOOTH",
"289 468 OFFCURVE",
"344 468 OFFCURVE",
"371 468 CURVE",
"373 480 OFFCURVE",
"377 499 OFFCURVE",
"377 517 CURVE SMOOTH",
"377 597 OFFCURVE",
"329 634 OFFCURVE",
"274 634 CURVE SMOOTH",
"228 634 OFFCURVE",
"179 603 OFFCURVE",
"179 539 CURVE SMOOTH",
"179 491 OFFCURVE",
"204 463 OFFCURVE",
"215 453 CURVE",
"187 428 LINE",
"174 440 OFFCURVE",
"141 477 OFFCURVE",
"141 539 CURVE SMOOTH",
"141 629 OFFCURVE",
"209 673 OFFCURVE",
"274 673 CURVE SMOOTH",
"347 673 OFFCURVE",
"415 624 OFFCURVE",
"415 517 CURVE SMOOTH",
"415 483 OFFCURVE",
"410 455 OFFCURVE",
"399 426 CURVE",
"262 426 LINE SMOOTH",
"148 426 OFFCURVE",
"80 336 OFFCURVE",
"80 241 CURVE SMOOTH",
"80 122 OFFCURVE",
"169 46 OFFCURVE",
"290 46 CURVE SMOOTH",
"436 46 OFFCURVE",
"504 120 OFFCURVE",
"541 157 CURVE",
"567 129 LINE",
"527 88 OFFCURVE",
"454 3 OFFCURVE",
"290 3 CURVE SMOOTH",
"145 3 OFFCURVE",
"38 97 OFFCURVE"
);
}
);
width = 623;
},
{
layerId = "700B375B-E5F6-4156-8225-245C9DB4E923";
paths = (
{
closed = 1;
nodes = (
"331 -233 LINE",
"328 473 LINE",
"328 473 OFFCURVE",
"342 556 OFFCURVE",
"394 607 CURVE SMOOTH",
"397 610 OFFCURVE",
"477 699 OFFCURVE",
"561 699 CURVE",
"609 628 LINE",
"596 621 OFFCURVE",
"592 606 OFFCURVE",
"592 588 CURVE SMOOTH",
"592 553 OFFCURVE",
"608 502 OFFCURVE",
"608 454 CURVE SMOOTH",
"608 398 OFFCURVE",
"573 335 OFFCURVE",
"485 335 CURVE SMOOTH",
"472 335 OFFCURVE",
"458 336 OFFCURVE",
"443 339 CURVE",
"444 430 LINE",
"449 430 OFFCURVE",
"454 430 OFFCURVE",
"458 430 CURVE SMOOTH",
"496 430 OFFCURVE",
"512 447 OFFCURVE",
"512 476 CURVE SMOOTH",
"512 499 OFFCURVE",
"505 524 OFFCURVE",
"499 544 CURVE SMOOTH",
"498 549 OFFCURVE",
"497 553 OFFCURVE",
"496 556 CURVE",
"446 522 OFFCURVE",
"450 459 OFFCURVE",
"449 372 CURVE SMOOTH",
"449 -233 LINE"
);
},
{
closed = 1;
nodes = (
"25 247 CURVE SMOOTH",
"25 377 OFFCURVE",
"135 480 OFFCURVE",
"272 480 CURVE SMOOTH",
"294 480 OFFCURVE",
"308 478 OFFCURVE",
"328 476 CURVE",
"329 483 OFFCURVE",
"330 490 OFFCURVE",
"330 497 CURVE SMOOTH",
"330 539 OFFCURVE",
"304 567 OFFCURVE",
"272 567 CURVE SMOOTH",
"238 567 OFFCURVE",
"220 543 OFFCURVE",
"220 516 CURVE SMOOTH",
"220 502 OFFCURVE",
"224 486 OFFCURVE",
"233 476 CURVE",
"145 431 LINE",
"123 460 OFFCURVE",
"114 490 OFFCURVE",
"114 522 CURVE SMOOTH",
"114 608 OFFCURVE",
"173 678 OFFCURVE",
"272 678 CURVE SMOOTH",
"359 678 OFFCURVE",
"441 614 OFFCURVE",
"441 489 CURVE SMOOTH",
"441 454 OFFCURVE",
"433 406 OFFCURVE",
"419 362 CURVE",
"272 362 LINE SMOOTH",
"209 362 OFFCURVE",
"153 311 OFFCURVE",
"153 247 CURVE SMOOTH",
"153 183 OFFCURVE",
"197 127 OFFCURVE",
"308 127 CURVE SMOOTH",
"443 127 OFFCURVE",
"505 199 OFFCURVE",
"529 221 CURVE",
"607 126 LINE",
"562 81 OFFCURVE",
"452 0 OFFCURVE",
"308 0 CURVE SMOOTH",
"117 0 OFFCURVE",
"25 110 OFFCURVE"
);
}
);
width = 646;
}
);
unicode = 0D85;
}
{
glyphname = sinAnusvara;
layers = (
{
layerId = "6114C541-D024-4A3E-9713-6FAF49EAB318";
paths = (
{
closed = 1;
nodes = (
"136 302 CURVE SMOOTH",
"136 241 OFFCURVE",
"152 192 OFFCURVE",
"195 192 CURVE SMOOTH",
"238 192 OFFCURVE",
"254 241 OFFCURVE",
"254 302 CURVE SMOOTH",
"254 363 OFFCURVE",
"238 413 OFFCURVE",
"195 413 CURVE SMOOTH",
"152 413 OFFCURVE",
"136 363 OFFCURVE"
);
},
{
closed = 1;
nodes = (
"25 302 CURVE SMOOTH",
"25 427 OFFCURVE",
"83 528 OFFCURVE",
"195 528 CURVE SMOOTH",
"307 528 OFFCURVE",
"365 427 OFFCURVE",
"365 302 CURVE SMOOTH",
"365 177 OFFCURVE",
"319 76 OFFCURVE",
"195 76 CURVE SMOOTH",
"71 76 OFFCURVE",
"25 177 OFFCURVE"
);
}
);
width = 390;
},
{
layerId = "CC11FE7D-5FF0-4B40-9597-DFC61EB94F41";
paths = (
{
closed = 1;
nodes = (
"71 302 CURVE SMOOTH",
"71 247 OFFCURVE",
"85 171 OFFCURVE",
"155 171 CURVE SMOOTH",
"225 171 OFFCURVE",
"239 247 OFFCURVE",
"239 302 CURVE SMOOTH",
"239 357 OFFCURVE",
"225 434 OFFCURVE",
"155 434 CURVE SMOOTH",
"85 434 OFFCURVE",
"71 357 OFFCURVE"
);
},
{
closed = 1;
nodes = (
"29 302 CURVE SMOOTH",
"29 407 OFFCURVE",
"75 476 OFFCURVE",
"155 476 CURVE SMOOTH",
"234 476 OFFCURVE",
"281 407 OFFCURVE",
"281 302 CURVE SMOOTH",
"281 196 OFFCURVE",
"245 129 OFFCURVE",
"155 129 CURVE SMOOTH",
"65 129 OFFCURVE",
"29 196 OFFCURVE"
);
}
);
width = 310;
}
);
unicode = 0D82;
category = Letter;
}
{
glyphname = sinBa;
layers = (
{
layerId = "6114C541-D024-4A3E-9713-6FAF49EAB318";
paths = (
{
closed = 1;
nodes = (
"25 250 CURVE SMOOTH",
"25 485 OFFCURVE",
"112 556 OFFCURVE",
"230 556 CURVE SMOOTH",
"352 556 OFFCURVE",
"422 489 OFFCURVE",
"422 369 CURVE SMOOTH",
"422 286 OFFCURVE",
"365 259 OFFCURVE",
"365 201 CURVE SMOOTH",
"365 162 OFFCURVE",
"380 131 OFFCURVE",
"410 131 CURVE SMOOTH",
"469 131 OFFCURVE",
"500 216 OFFCURVE",
"500 333 CURVE SMOOTH",
"500 595 OFFCURVE",
"451 728 OFFCURVE",
"294 728 CURVE SMOOTH",
"247 728 OFFCURVE",
"193 704 OFFCURVE",
"173 656 CURVE",
"49 698 LINE",
"90 806 OFFCURVE",
"195 859 OFFCURVE",
"294 859 CURVE SMOOTH",
"541 859 OFFCURVE",
"631 682 OFFCURVE",
"631 333 CURVE SMOOTH",
"631 207 OFFCURVE",
"594 0 OFFCURVE",
"414 0 CURVE SMOOTH",
"273 0 OFFCURVE",
"241 99 OFFCURVE",
"241 201 CURVE SMOOTH",
"241 270 OFFCURVE",
"295 300 OFFCURVE",
"295 369 CURVE SMOOTH",
"295 403 OFFCURVE",
"277 428 OFFCURVE",
"229 428 CURVE SMOOTH",
"183 428 OFFCURVE",
"150 387 OFFCURVE",
"150 250 CURVE SMOOTH",
"150 146 OFFCURVE",
"171 125 OFFCURVE",
"195 125 CURVE SMOOTH",
"217 125 OFFCURVE",
"237 137 OFFCURVE",
"255 178 CURVE",
"319 83 LINE",
"286 32 OFFCURVE",
"254 0 OFFCURVE",
"195 0 CURVE SMOOTH",
"75 0 OFFCURVE",
"25 90 OFFCURVE"
);
}
);
width = 668;
},
{
layerId = "CC11FE7D-5FF0-4B40-9597-DFC61EB94F41";
paths = (
{
closed = 1;
nodes = (
"46 250 CURVE SMOOTH",
"46 477 OFFCURVE",
"132 553 OFFCURVE",
"231 553 CURVE SMOOTH",
"335 553 OFFCURVE",
"385 497 OFFCURVE",
"385 391 CURVE SMOOTH",
"385 281 OFFCURVE",
"300 259 OFFCURVE",
"300 156 CURVE SMOOTH",
"300 74 OFFCURVE",
"354 44 OFFCURVE",
"414 44 CURVE SMOOTH",
"530 44 OFFCURVE",
"561 166 OFFCURVE",
"561 333 CURVE SMOOTH",
"561 657 OFFCURVE",
"476 810 OFFCURVE",
"302 810 CURVE SMOOTH",
"221 810 OFFCURVE",
"143 758 OFFCURVE",
"117 688 CURVE",
"78 703 LINE",
"110 788 OFFCURVE",
"204 852 OFFCURVE",
"302 852 CURVE SMOOTH",
"504 852 OFFCURVE",
"603 685 OFFCURVE",
"603 333 CURVE SMOOTH",
"603 142 OFFCURVE",
"563 3 OFFCURVE",
"414 3 CURVE SMOOTH",
"307 3 OFFCURVE",
"260 66 OFFCURVE",
"260 156 CURVE SMOOTH",
"260 274 OFFCURVE",
"344 294 OFFCURVE",
"344 391 CURVE SMOOTH",
"344 470 OFFCURVE",
"307 512 OFFCURVE",
"231 512 CURVE SMOOTH",
"154 512 OFFCURVE",
"88 446 OFFCURVE",
"88 250 CURVE SMOOTH",
"88 120 OFFCURVE",
"117 44 OFFCURVE",
"184 44 CURVE SMOOTH",
"229 44 OFFCURVE",
"259 90 OFFCURVE",
"266 131 CURVE",
"300 123 LINE",
"290 59 OFFCURVE",
"254 3 OFFCURVE",
"184 3 CURVE SMOOTH",
"88 3 OFFCURVE",
"46 94 OFFCURVE"
);
}
);
width = 649;
}
);
unicode = 0DB6;
}
{
glyphname = sinBha;
layers = (
{
layerId = "6114C541-D024-4A3E-9713-6FAF49EAB318";
paths = (
{
closed = 1;
nodes = (
"664 0 OFFCURVE",
"760 79 OFFCURVE",
"760 332 CURVE SMOOTH",
"760 599 OFFCURVE",
"649 665 OFFCURVE",
"527 665 CURVE SMOOTH",
"353 665 OFFCURVE",
"344 545 OFFCURVE",
"325 437 CURVE SMOOTH",
"315 377 OFFCURVE",
"301 321 OFFCURVE",
"256 290 CURVE",
"323 206 LINE",
"407 252 OFFCURVE",
"416 345 OFFCURVE",
"430 422 CURVE SMOOTH",
"442 489 OFFCURVE",
"457 544 OFFCURVE",
"527 544 CURVE SMOOTH",
"583 544 OFFCURVE",
"640 500 OFFCURVE",
"640 332 CURVE SMOOTH",
"640 171 OFFCURVE",
"595 118 OFFCURVE",
"546 118 CURVE SMOOTH",
"498 118 OFFCURVE",
"482 161 OFFCURVE",
"476 180 CURVE",
"402 98 LINE",
"412 57 OFFCURVE",
"459 0 OFFCURVE",
"546 0 CURVE SMOOTH"
);
},
{
closed = 1;
nodes = (
"442 0 OFFCURVE",
"494 113 OFFCURVE",
"494 190 CURVE SMOOTH",
"494 288 OFFCURVE",
"435 326 OFFCURVE",
"370 326 CURVE SMOOTH",
"344 326 OFFCURVE",
"317 320 OFFCURVE",
"292 310 CURVE",
"343 218 LINE",
"346 221 OFFCURVE",
"351 223 OFFCURVE",
"357 223 CURVE SMOOTH",
"371 223 OFFCURVE",
"373 205 OFFCURVE",
"373 193 CURVE SMOOTH",
"373 162 OFFCURVE",
"353 125 OFFCURVE",
"271 125 CURVE SMOOTH",
"195 125 OFFCURVE",
"167 191 OFFCURVE",
"167 251 CURVE SMOOTH",
"167 302 OFFCURVE",
"191 362 OFFCURVE",
"233 362 CURVE SMOOTH",
"378 363 LINE",
"378 464 LINE",
"26 464 LINE",
"26 364 LINE",
"72 364 LINE",
"53 329 OFFCURVE",
"44 281 OFFCURVE",
"44 240 CURVE SMOOTH",
"44 112 OFFCURVE",
"129 0 OFFCURVE",
"271 0 CURVE SMOOTH"
);
},
{
closed = 1;
nodes = (
"385 413 OFFCURVE",
"403 484 OFFCURVE",
"403 532 CURVE SMOOTH",
"403 538 OFFCURVE",
"403 544 OFFCURVE",
"401 550 CURVE SMOOTH",
"379 633 OFFCURVE",
"310 676 OFFCURVE",
"237 676 CURVE SMOOTH",
"133 676 OFFCURVE",
"76 606 OFFCURVE",
"76 517 CURVE SMOOTH",
"76 453 OFFCURVE",
"118 395 OFFCURVE",
"157 372 CURVE",
"216 446 LINE",
"197 452 OFFCURVE",
"181 471 OFFCURVE",
"181 504 CURVE SMOOTH",
"181 540 OFFCURVE",
"200 564 OFFCURVE",
"241 564 CURVE SMOOTH",
"269 564 OFFCURVE",
"304 547 OFFCURVE",
"304 494 CURVE SMOOTH",
"304 478 OFFCURVE",
"299 466 OFFCURVE",
"298 459 CURVE",
"355 363 LINE"
);
}
);
width = 797;
},
{
layerId = "CC11FE7D-5FF0-4B40-9597-DFC61EB94F41";
paths = (
{
closed = 1;
nodes = (
"615 3 OFFCURVE",
"709 65 OFFCURVE",
"709 332 CURVE SMOOTH",
"709 601 OFFCURVE",
"614 661 OFFCURVE",
"509 661 CURVE SMOOTH",
"375 661 OFFCURVE",
"340 545 OFFCURVE",
"340 419 CURVE SMOOTH",
"340 369 OFFCURVE",
"334 301 OFFCURVE",
"279 271 CURVE",
"293 238 LINE",
"373 273 OFFCURVE",
"382 354 OFFCURVE",
"382 413 CURVE SMOOTH",
"382 518 OFFCURVE",
"402 619 OFFCURVE",
"509 619 CURVE SMOOTH",
"593 619 OFFCURVE",
"666 566 OFFCURVE",
"666 332 CURVE SMOOTH",
"666 99 OFFCURVE",
"593 45 OFFCURVE",
"517 45 CURVE SMOOTH",
"457 45 OFFCURVE",
"421 94 OFFCURVE",
"417 140 CURVE",
"391 80 LINE",
"412 36 OFFCURVE",
"454 3 OFFCURVE",
"517 3 CURVE SMOOTH"
);
},
{
closed = 1;
nodes = (
"398 3 OFFCURVE",
"448 98 OFFCURVE",
"448 180 CURVE SMOOTH",
"448 253 OFFCURVE",
"415 297 OFFCURVE",
"363 297 CURVE SMOOTH",
"347 297 OFFCURVE",
"329 293 OFFCURVE",
"309 283 CURVE",
"319 253 LINE",
"332 260 OFFCURVE",
"344 264 OFFCURVE",
"355 264 CURVE SMOOTH",
"388 264 OFFCURVE",
"405 228 OFFCURVE",
"405 180 CURVE SMOOTH",
"405 117 OFFCURVE",
"368 46 OFFCURVE",
"267 46 CURVE SMOOTH",
"164 46 OFFCURVE",
"99 121 OFFCURVE",
"99 233 CURVE SMOOTH",
"99 331 OFFCURVE",
"136 420 OFFCURVE",
"225 420 CURVE SMOOTH",
"370 420 LINE",
"370 461 LINE",
"46 461 LINE",
"46 420 LINE",
"132 420 LINE",
"80 387 OFFCURVE",
"57 294 OFFCURVE",
"57 229 CURVE SMOOTH",
"57 94 OFFCURVE",
"137 3 OFFCURVE",
"267 3 CURVE SMOOTH"
);
},
{
closed = 1;
nodes = (
"371 454 OFFCURVE",
"375 481 OFFCURVE",
"375 517 CURVE SMOOTH",
"375 527 OFFCURVE",
"374 537 OFFCURVE",
"373 546 CURVE SMOOTH",
"360 633 OFFCURVE",
"295 673 OFFCURVE",
"224 673 CURVE SMOOTH",
"160 673 OFFCURVE",
"92 629 OFFCURVE",
"92 539 CURVE SMOOTH",
"92 477 OFFCURVE",
"124 440 OFFCURVE",
"138 428 CURVE",
"163 451 LINE",
"153 462 OFFCURVE",
"133 492 OFFCURVE",
"133 539 CURVE SMOOTH",
"133 602 OFFCURVE",
"180 632 OFFCURVE",
"224 632 CURVE SMOOTH",
"284 632 OFFCURVE",
"336 596 OFFCURVE",
"336 517 CURVE SMOOTH",
"337 497 OFFCURVE",
"337 477 OFFCURVE",
"336 457 CURVE",
"361 423 LINE"
);
}
);
width = 755;
}
);
unicode = 0DB7;
}
{
glyphname = sinCandrabindu;
layers = (
{
layerId = "CC11FE7D-5FF0-4B40-9597-DFC61EB94F41";
paths = (
{
closed = 1;
nodes = (
"-707 680 OFFCURVE",
"-822 757 OFFCURVE",
"-822 882 CURVE",
"-780 882 LINE",
"-780 787 OFFCURVE",
"-690 722 OFFCURVE",
"-546 722 CURVE SMOOTH",
"-421 722 OFFCURVE",
"-331 787 OFFCURVE",
"-331 882 CURVE",
"-289 882 LINE",
"-289 757 OFFCURVE",
"-405 680 OFFCURVE",
"-546 680 CURVE SMOOTH"
);
},
{
closed = 1;
nodes = (
"-521 793 OFFCURVE",
"-498 816 OFFCURVE",
"-498 845 CURVE SMOOTH",
"-498 873 OFFCURVE",
"-521 896 OFFCURVE",
"-550 896 CURVE SMOOTH",
"-578 896 OFFCURVE",
"-601 873 OFFCURVE",
"-601 845 CURVE SMOOTH",
"-601 816 OFFCURVE",
"-578 793 OFFCURVE",
"-550 793 CURVE SMOOTH"
);
}
);
width = 0;
},
{
layerId = "6114C541-D024-4A3E-9713-6FAF49EAB318";
paths = (
{
closed = 1;
nodes = (
"-732 640 OFFCURVE",
"-870 715 OFFCURVE",
"-870 916 CURVE",
"-745 916 LINE",
"-745 812 OFFCURVE",
"-679 760 OFFCURVE",
"-555 760 CURVE SMOOTH",
"-430 760 OFFCURVE",
"-364 810 OFFCURVE",
"-364 916 CURVE",
"-239 916 LINE",
"-239 715 OFFCURVE",
"-377 640 OFFCURVE",
"-555 640 CURVE SMOOTH"
);
},
{
closed = 1;
nodes = (
"-516 809 OFFCURVE",
"-482 843 OFFCURVE",
"-482 885 CURVE SMOOTH",
"-482 926 OFFCURVE",
"-516 960 OFFCURVE",
"-558 960 CURVE SMOOTH",
"-599 960 OFFCURVE",
"-633 926 OFFCURVE",
"-633 885 CURVE SMOOTH",
"-633 843 OFFCURVE",
"-599 809 OFFCURVE",
"-558 809 CURVE SMOOTH"
);
}
);
width = 0;
}
);
unicode = 0D81;
}
{
glyphname = sinDa;
layers = (
{
layerId = "6114C541-D024-4A3E-9713-6FAF49EAB318";
paths = (
{
closed = 1;
nodes = (
"37 247 CURVE SMOOTH",
"37 377 OFFCURVE",
"147 480 OFFCURVE",
"284 480 CURVE SMOOTH",
"305 480 OFFCURVE",
"319 478 OFFCURVE",
"340 476 CURVE",
"341 483 OFFCURVE",
"341 490 OFFCURVE",
"341 497 CURVE SMOOTH",
"341 539 OFFCURVE",
"316 567 OFFCURVE",
"284 567 CURVE SMOOTH",
"250 567 OFFCURVE",
"232 543 OFFCURVE",
"232 516 CURVE SMOOTH",
"232 502 OFFCURVE",
"236 486 OFFCURVE",
"245 476 CURVE",
"157 431 LINE",
"135 460 OFFCURVE",
"126 490 OFFCURVE",
"126 522 CURVE SMOOTH",
"126 608 OFFCURVE",
"185 678 OFFCURVE",
"284 678 CURVE SMOOTH",
"371 678 OFFCURVE",
"452 614 OFFCURVE",
"452 489 CURVE SMOOTH",
"452 454 OFFCURVE",
"444 406 OFFCURVE",
"431 362 CURVE",
"284 362 LINE SMOOTH",
"220 362 OFFCURVE",
"164 312 OFFCURVE",
"164 247 CURVE SMOOTH",
"164 182 OFFCURVE",
"218 132 OFFCURVE",
"284 132 CURVE SMOOTH",
"324 132 OFFCURVE",
"360 150 OFFCURVE",
"383 177 CURVE",
"481 106 LINE",
"435 41 OFFCURVE",
"364 0 OFFCURVE",
"284 0 CURVE SMOOTH",
"147 0 OFFCURVE",
"37 110 OFFCURVE"
);
},
{
closed = 1;
nodes = (
"188 -66 CURVE SMOOTH",
"188 -36 OFFCURVE",
"196 -5 OFFCURVE",
"215 25 CURVE",
"317 51 LINE",
"328 5 LINE",
"316 -10 OFFCURVE",
"309 -30 OFFCURVE",
"309 -49 CURVE SMOOTH",
"309 -81 OFFCURVE",
"327 -110 OFFCURVE",
"364 -110 CURVE SMOOTH",
"392 -110 OFFCURVE",
"422 -97 OFFCURVE",
"448 -62 CURVE",
"535 -121 LINE",
"483 -200 OFFCURVE",
"421 -230 OFFCURVE",
"364 -230 CURVE SMOOTH",
"259 -230 OFFCURVE",
"188 -153 OFFCURVE"
);
}
);
width = 529;
},
{
layerId = "CC11FE7D-5FF0-4B40-9597-DFC61EB94F41";
paths = (
{
closed = 1;
nodes = (
"38 241 CURVE SMOOTH",
"38 356 OFFCURVE",
"121 468 OFFCURVE",
"262 468 CURVE SMOOTH",
"289 468 OFFCURVE",
"344 468 OFFCURVE",
"371 468 CURVE",
"373 480 OFFCURVE",
"377 499 OFFCURVE",
"377 517 CURVE SMOOTH",
"377 597 OFFCURVE",
"329 634 OFFCURVE",
"274 634 CURVE SMOOTH",
"228 634 OFFCURVE",
"179 603 OFFCURVE",
"179 539 CURVE SMOOTH",
"179 491 OFFCURVE",
"204 463 OFFCURVE",
"215 453 CURVE",
"187 428 LINE",
"174 440 OFFCURVE",
"141 477 OFFCURVE",
"141 539 CURVE SMOOTH",
"141 629 OFFCURVE",
"209 673 OFFCURVE",
"274 673 CURVE SMOOTH",
"347 673 OFFCURVE",
"415 624 OFFCURVE",
"415 517 CURVE SMOOTH",
"415 483 OFFCURVE",
"410 455 OFFCURVE",
"399 426 CURVE",
"262 426 LINE SMOOTH",
"148 426 OFFCURVE",
"80 336 OFFCURVE",
"80 241 CURVE SMOOTH",
"80 116 OFFCURVE",
"172 48 OFFCURVE",
"266 48 CURVE SMOOTH",
"324 48 OFFCURVE",
"383 74 OFFCURVE",
"421 130 CURVE",
"454 104 LINE",
"408 36 OFFCURVE",
"336 3 OFFCURVE",
"265 3 CURVE SMOOTH",
"151 3 OFFCURVE",
"38 88 OFFCURVE"
);
},
{
closed = 1;
nodes = (
"197 -65 CURVE SMOOTH",
"197 -28 OFFCURVE",
"206 2 OFFCURVE",
"234 39 CURVE",
"267 41 LINE",
"269 19 LINE",
"244 -10 OFFCURVE",
"239 -35 OFFCURVE",
"239 -65 CURVE SMOOTH",
"239 -127 OFFCURVE",
"285 -178 OFFCURVE",
"348 -178 CURVE SMOOTH",
"409 -178 OFFCURVE",
"447 -151 OFFCURVE",
"479 -94 CURVE",
"513 -120 LINE",
"473 -187 OFFCURVE",
"424 -219 OFFCURVE",
"348 -219 CURVE SMOOTH",
"258 -219 OFFCURVE",
"197 -147 OFFCURVE"
);
}
);
width = 479;
}
);
unicode = 0DAF;
}
{
glyphname = sinDda;
layers = (
{
layerId = "6114C541-D024-4A3E-9713-6FAF49EAB318";
paths = (
{
closed = 1;
nodes = (
"32 210 CURVE SMOOTH",
"32 267 OFFCURVE",
"49 319 OFFCURVE",
"81 348 CURVE",
"25 348 LINE",
"25 445 LINE",
"354 443 LINE",
"392 348 LINE",
"222 348 LINE SMOOTH",
"176 348 OFFCURVE",
"153 279 OFFCURVE",
"153 220 CURVE SMOOTH",
"153 178 OFFCURVE",
"160 130 OFFCURVE",
"202 130 CURVE SMOOTH",
"250 130 OFFCURVE",
"267 204 OFFCURVE",
"267 284 CURVE",
"376 284 LINE",
"376 201 OFFCURVE",
"394 131 OFFCURVE",
"443 131 CURVE SMOOTH",
"508 131 OFFCURVE",
"508 273 OFFCURVE",
"508 333 CURVE SMOOTH",
"508 595 OFFCURVE",
"459 728 OFFCURVE",
"302 728 CURVE SMOOTH",
"255 728 OFFCURVE",
"201 704 OFFCURVE",
"181 656 CURVE",
"57 698 LINE",
"98 806 OFFCURVE",
"203 859 OFFCURVE",
"302 859 CURVE SMOOTH",
"549 859 OFFCURVE",
"638 682 OFFCURVE",
"638 333 CURVE SMOOTH",
"638 207 OFFCURVE",
"637 0 OFFCURVE",
"443 0 CURVE SMOOTH",
"379 0 OFFCURVE",
"336 38 OFFCURVE",
"319 90 CURVE",
"301 36 OFFCURVE",
"256 0 OFFCURVE",
"196 0 CURVE SMOOTH",
"64 0 OFFCURVE",
"32 120 OFFCURVE"
);
},
{
closed = 1;
nodes = (
"91 466 CURVE SMOOTH",
"91 548 OFFCURVE",
"147 605 OFFCURVE",
"232 605 CURVE SMOOTH",
"319 605 OFFCURVE",
"401 540 OFFCURVE",
"401 416 CURVE SMOOTH",
"401 399 OFFCURVE",
"397 370 OFFCURVE",
"392 348 CURVE",
"289 423 LINE",
"291 429 OFFCURVE",
"291 434 OFFCURVE",
"291 440 CURVE SMOOTH",
"291 474 OFFCURVE",
"272 505 OFFCURVE",
"232 505 CURVE SMOOTH",
"203 505 OFFCURVE",
"193 485 OFFCURVE",
"193 461 CURVE SMOOTH",
"193 440 OFFCURVE",
"207 421 OFFCURVE",
"217 405 CURVE",
"126 363 LINE",
"103 399 OFFCURVE",
"91 433 OFFCURVE"
);
}
);
width = 674;
},
{
layerId = "CC11FE7D-5FF0-4B40-9597-DFC61EB94F41";
paths = (
{
closed = 1;
nodes = (
"38 204 CURVE SMOOTH",
"38 282 OFFCURVE",
"61 372 OFFCURVE",
"99 403 CURVE",
"38 403 LINE",
"38 443 LINE",
"353 443 LINE",
"362 403 LINE",
"206 403 LINE SMOOTH",
"95 403 OFFCURVE",
"80 269 OFFCURVE",
"80 204 CURVE SMOOTH",
"80 116 OFFCURVE",
"108 46 OFFCURVE",
"178 46 CURVE SMOOTH",
"282 46 OFFCURVE",
"290 169 OFFCURVE",
"293 255 CURVE",
"332 255 LINE",
"336 169 OFFCURVE",
"343 46 OFFCURVE",
"447 46 CURVE SMOOTH",
"552 46 OFFCURVE",
"560 187 OFFCURVE",
"560 333 CURVE SMOOTH",
"560 657 OFFCURVE",
"475 810 OFFCURVE",
"301 810 CURVE SMOOTH",
"221 810 OFFCURVE",
"143 758 OFFCURVE",
"116 688 CURVE",
"77 703 LINE",
"109 788 OFFCURVE",
"204 852 OFFCURVE",
"301 852 CURVE SMOOTH",
"504 852 OFFCURVE",
"602 685 OFFCURVE",
"602 333 CURVE SMOOTH",
"602 165 OFFCURVE",
"592 3 OFFCURVE",
"447 3 CURVE SMOOTH",
"339 3 OFFCURVE",
"317 97 OFFCURVE",
"313 131 CURVE",
"308 97 OFFCURVE",
"287 3 OFFCURVE",
"178 3 CURVE SMOOTH",
"77 3 OFFCURVE",
"38 93 OFFCURVE"
);
},
{
closed = 1;
nodes = (
"98 478 CURVE SMOOTH",
"98 555 OFFCURVE",
"156 596 OFFCURVE",
"223 596 CURVE SMOOTH",
"297 596 OFFCURVE",
"365 547 OFFCURVE",
"365 440 CURVE SMOOTH",
"365 427 OFFCURVE",
"364 415 OFFCURVE",
"362 403 CURVE",
"326 431 LINE",
"326 434 OFFCURVE",
"326 437 OFFCURVE",
"326 440 CURVE SMOOTH",
"326 521 OFFCURVE",
"278 558 OFFCURVE",
"223 558 CURVE SMOOTH",
"175 558 OFFCURVE",
"136 531 OFFCURVE",
"136 478 CURVE SMOOTH",
"136 450 OFFCURVE",
"147 428 OFFCURVE",
"162 414 CURVE",
"134 391 LINE",
"116 407 OFFCURVE",
"98 442 OFFCURVE"
);
}
);
width = 649;
}
);
unicode = 0DA9;
}
{
glyphname = sinDdha;
layers = (
{
layerId = "6114C541-D024-4A3E-9713-6FAF49EAB318";
paths = (
{
closed = 1;
nodes = (
"263 0 OFFCURVE",
"308 36 OFFCURVE",
"326 90 CURVE",
"343 38 OFFCURVE",
"386 0 OFFCURVE",
"450 0 CURVE SMOOTH",
"644 0 OFFCURVE",
"653 207 OFFCURVE",
"653 333 CURVE SMOOTH",
"653 600 OFFCURVE",
"548 848 OFFCURVE",
"403 923 CURVE",
"341 848 LINE",
"374 821 OFFCURVE",
"404 782 OFFCURVE",
"425 736 CURVE",
"451 714 OFFCURVE",
"471 666 OFFCURVE",
"477 620 CURVE",
"498 548 OFFCURVE",
"522 438 OFFCURVE",
"522 333 CURVE SMOOTH",
"522 273 OFFCURVE",
"515 131 OFFCURVE",
"450 131 CURVE SMOOTH",
"401 131 OFFCURVE",
"384 201 OFFCURVE",
"384 284 CURVE",
"274 284 LINE",
"274 204 OFFCURVE",
"257 130 OFFCURVE",
"209 130 CURVE SMOOTH",
"167 130 OFFCURVE",
"160 178 OFFCURVE",
"160 220 CURVE SMOOTH",
"160 279 OFFCURVE",
"183 348 OFFCURVE",
"229 348 CURVE SMOOTH",
"399 348 LINE",
"361 443 LINE",
"32 445 LINE",
"32 348 LINE",
"68 348 LINE",
"52 319 OFFCURVE",
"39 267 OFFCURVE",
"39 220 CURVE SMOOTH",
"39 120 OFFCURVE",
"71 0 OFFCURVE",
"203 0 CURVE SMOOTH"
);
},
{
closed = 1;
nodes = (
"224 405 LINE",
"214 421 OFFCURVE",
"200 440 OFFCURVE",
"200 461 CURVE SMOOTH",
"200 485 OFFCURVE",
"211 505 OFFCURVE",
"239 505 CURVE SMOOTH",
"279 505 OFFCURVE",
"298 474 OFFCURVE",
"298 440 CURVE SMOOTH",
"298 434 OFFCURVE",
"298 429 OFFCURVE",
"297 423 CURVE",
"399 348 LINE",
"404 370 OFFCURVE",
"408 399 OFFCURVE",
"408 416 CURVE SMOOTH",
"408 540 OFFCURVE",
"326 605 OFFCURVE",
"239 605 CURVE SMOOTH",
"154 605 OFFCURVE",
"99 548 OFFCURVE",
"99 466 CURVE SMOOTH",
"99 433 OFFCURVE",
"110 399 OFFCURVE",
"133 363 CURVE"
);
},
{
closed = 1;
nodes = (
"525 622 LINE",
"513 626 OFFCURVE",
"502 619 OFFCURVE",
"491 622 CURVE",
"431 626 OFFCURVE",
"403 663 OFFCURVE",
"403 688 CURVE SMOOTH",
"403 707 OFFCURVE",
"412 728 OFFCURVE",
"426 736 CURVE",
"448 859 LINE",
"341 848 LINE",
"353 837 OFFCURVE",
"358 827 OFFCURVE",
"358 818 CURVE SMOOTH",
"358 791 OFFCURVE",
"298 766 OFFCURVE",
"298 695 CURVE SMOOTH",
"298 615 OFFCURVE",
"374 553 OFFCURVE",
"450 532 CURVE SMOOTH",
"470 527 OFFCURVE",
"491 524 OFFCURVE",
"510 523 CURVE",
"575 596 LINE"
);
}
);
width = 690;
},
{
layerId = "CC11FE7D-5FF0-4B40-9597-DFC61EB94F41";
paths = (
{
closed = 1;
nodes = (
"287 3 OFFCURVE",
"308 97 OFFCURVE",
"313 131 CURVE",
"317 97 OFFCURVE",
"339 3 OFFCURVE",
"447 3 CURVE SMOOTH",
"598 3 OFFCURVE",
"609 143 OFFCURVE",
"609 288 CURVE SMOOTH",
"609 574 OFFCURVE",
"535 804 OFFCURVE",
"386 918 CURVE",
"360 888 LINE",
"382 870 OFFCURVE",
"404 849 OFFCURVE",
"424 824 CURVE SMOOTH",
"469 768 OFFCURVE",
"507 693 OFFCURVE",
"531 596 CURVE SMOOTH",
"554 509 OFFCURVE",
"567 407 OFFCURVE",
"567 288 CURVE SMOOTH",
"567 164 OFFCURVE",
"558 46 OFFCURVE",
"447 46 CURVE SMOOTH",
"343 46 OFFCURVE",
"336 169 OFFCURVE",
"332 255 CURVE",
"293 255 LINE",
"290 169 OFFCURVE",
"282 46 OFFCURVE",
"178 46 CURVE SMOOTH",
"108 46 OFFCURVE",
"80 116 OFFCURVE",
"80 204 CURVE SMOOTH",
"80 269 OFFCURVE",
"95 403 OFFCURVE",
"206 403 CURVE SMOOTH",
"362 403 LINE",
"353 443 LINE",
"38 443 LINE",
"38 403 LINE",
"99 403 LINE",
"61 372 OFFCURVE",
"38 282 OFFCURVE",
"38 204 CURVE SMOOTH",
"38 93 OFFCURVE",
"77 3 OFFCURVE",
"178 3 CURVE SMOOTH"
);
},
{
closed = 1;
nodes = (
"162 414 LINE",
"147 428 OFFCURVE",
"136 450 OFFCURVE",
"136 478 CURVE SMOOTH",
"136 531 OFFCURVE",
"175 558 OFFCURVE",
"223 558 CURVE SMOOTH",
"278 558 OFFCURVE",
"327 521 OFFCURVE",
"327 440 CURVE SMOOTH",
"327 437 OFFCURVE",
"327 435 OFFCURVE",
"327 431 CURVE",
"362 403 LINE",
"364 415 OFFCURVE",
"365 427 OFFCURVE",
"365 440 CURVE SMOOTH",
"365 547 OFFCURVE",
"297 596 OFFCURVE",
"223 596 CURVE SMOOTH",
"156 596 OFFCURVE",
"98 555 OFFCURVE",
"98 478 CURVE SMOOTH",
"98 442 OFFCURVE",
"116 407 OFFCURVE",
"134 391 CURVE"
);
},
{
closed = 1;
nodes = (
"538 601 LINE",
"525 599 OFFCURVE",
"513 597 OFFCURVE",
"501 597 CURVE SMOOTH",
"429 597 OFFCURVE",
"382 639 OFFCURVE",
"382 686 CURVE SMOOTH",
"382 752 OFFCURVE",
"426 789 OFFCURVE",
"426 827 CURVE",
"432 866 LINE",
"360 888 LINE",
"381 873 OFFCURVE",
"389 858 OFFCURVE",
"389 843 CURVE SMOOTH",
"389 804 OFFCURVE",
"341 759 OFFCURVE",
"341 686 CURVE SMOOTH",
"341 619 OFFCURVE",
"404 559 OFFCURVE",
"500 559 CURVE SMOOTH",
"515 559 OFFCURVE",
"531 560 OFFCURVE",
"547 563 CURVE",
"557 594 LINE"
);
}
);
width = 656;
}
);
unicode = 0DAA;
}
{
glyphname = sinDha;
layers = (
{
layerId = "6114C541-D024-4A3E-9713-6FAF49EAB318";
paths = (
{
closed = 1;
nodes = (
"35 263 CURVE SMOOTH",
"35 316 OFFCURVE",
"42 364 OFFCURVE",
"51 393 CURVE SMOOTH",
"79 481 OFFCURVE",
"142 537 OFFCURVE",
"224 537 CURVE SMOOTH",
"255 537 OFFCURVE",
"288 529 OFFCURVE",
"321 507 CURVE",
"277 393 LINE",
"262 402 OFFCURVE",
"247 406 OFFCURVE",
"234 406 CURVE SMOOTH",
"204 406 OFFCURVE",
"182 383 OFFCURVE",
"170 348 CURVE SMOOTH",
"165 332 OFFCURVE",
"161 298 OFFCURVE",
"161 261 CURVE SMOOTH",
"161 199 OFFCURVE",
"173 130 OFFCURVE",
"210 130 CURVE SMOOTH",
"258 130 OFFCURVE",
"275 204 OFFCURVE",
"275 284 CURVE",
"385 284 LINE",
"385 201 OFFCURVE",
"402 131 OFFCURVE",
"451 131 CURVE SMOOTH",
"516 131 OFFCURVE",
"516 273 OFFCURVE",
"516 333 CURVE SMOOTH",
"516 595 OFFCURVE",
"467 728 OFFCURVE",
"310 728 CURVE SMOOTH",
"263 728 OFFCURVE",
"209 704 OFFCURVE",
"189 656 CURVE",
"65 698 LINE",
"106 806 OFFCURVE",
"211 859 OFFCURVE",
"310 859 CURVE SMOOTH",
"557 859 OFFCURVE",
"647 682 OFFCURVE",
"647 333 CURVE SMOOTH",
"647 207 OFFCURVE",
"645 0 OFFCURVE",
"451 0 CURVE SMOOTH",
"387 0 OFFCURVE",
"344 38 OFFCURVE",
"327 90 CURVE",
"309 36 OFFCURVE",
"264 0 OFFCURVE",
"204 0 CURVE SMOOTH",
"71 0 OFFCURVE",
"35 144 OFFCURVE"
);
}
);
width = 684;
},
{
layerId = "CC11FE7D-5FF0-4B40-9597-DFC61EB94F41";
paths = (
{
closed = 1;
nodes = (
"37 244 CURVE SMOOTH",
"37 303 OFFCURVE",
"50 356 OFFCURVE",
"70 398 CURVE SMOOTH",
"103 467 OFFCURVE",
"158 508 OFFCURVE",
"215 508 CURVE SMOOTH",
"236 508 OFFCURVE",
"257 503 OFFCURVE",
"280 492 CURVE",
"261 455 LINE",
"245 463 OFFCURVE",
"230 467 OFFCURVE",
"215 467 CURVE SMOOTH",
"171 467 OFFCURVE",
"131 432 OFFCURVE",
"106 377 CURVE SMOOTH",
"89 340 OFFCURVE",
"79 294 OFFCURVE",
"79 244 CURVE SMOOTH",
"79 149 OFFCURVE",
"105 46 OFFCURVE",
"181 46 CURVE SMOOTH",
"285 46 OFFCURVE",
"293 169 OFFCURVE",
"296 255 CURVE",
"335 255 LINE",
"339 169 OFFCURVE",
"346 46 OFFCURVE",
"450 46 CURVE SMOOTH",
"556 46 OFFCURVE",
"563 187 OFFCURVE",
"563 333 CURVE SMOOTH",
"563 657 OFFCURVE",
"479 810 OFFCURVE",
"304 810 CURVE SMOOTH",
"224 810 OFFCURVE",
"146 758 OFFCURVE",
"119 688 CURVE",
"81 703 LINE",
"113 788 OFFCURVE",
"207 852 OFFCURVE",
"304 852 CURVE SMOOTH",
"507 852 OFFCURVE",
"605 685 OFFCURVE",
"605 333 CURVE SMOOTH",
"605 165 OFFCURVE",
"595 3 OFFCURVE",
"450 3 CURVE SMOOTH",
"342 3 OFFCURVE",
"320 97 OFFCURVE",
"316 131 CURVE",
"311 97 OFFCURVE",
"290 3 OFFCURVE",
"181 3 CURVE SMOOTH",
"70 3 OFFCURVE",
"37 132 OFFCURVE"
);
}
);
width = 651;
},
{
layerId = "700B375B-E5F6-4156-8225-245C9DB4E923";
paths = (
{
closed = 1;
nodes = (
"35 263 CURVE SMOOTH",
"35 316 OFFCURVE",
"42 364 OFFCURVE",
"51 393 CURVE SMOOTH",
"79 481 OFFCURVE",
"142 537 OFFCURVE",
"224 537 CURVE SMOOTH",
"255 537 OFFCURVE",
"288 529 OFFCURVE",
"321 507 CURVE",
"277 393 LINE",
"262 402 OFFCURVE",
"247 406 OFFCURVE",
"234 406 CURVE SMOOTH",
"204 406 OFFCURVE",
"182 383 OFFCURVE",
"170 348 CURVE SMOOTH",
"165 332 OFFCURVE",
"161 298 OFFCURVE",
"161 261 CURVE SMOOTH",
"161 199 OFFCURVE",
"173 130 OFFCURVE",
"210 130 CURVE SMOOTH",
"258 130 OFFCURVE",
"275 204 OFFCURVE",
"275 284 CURVE",
"385 284 LINE",
"385 201 OFFCURVE",
"402 131 OFFCURVE",
"451 131 CURVE SMOOTH",
"516 131 OFFCURVE",
"516 273 OFFCURVE",
"516 333 CURVE SMOOTH",
"516 595 OFFCURVE",
"467 728 OFFCURVE",
"310 728 CURVE SMOOTH",
"263 728 OFFCURVE",
"209 704 OFFCURVE",
"189 656 CURVE",
"65 698 LINE",
"106 806 OFFCURVE",
"211 859 OFFCURVE",
"310 859 CURVE SMOOTH",
"557 859 OFFCURVE",
"647 682 OFFCURVE",
"647 333 CURVE SMOOTH",
"647 207 OFFCURVE",
"645 0 OFFCURVE",
"451 0 CURVE SMOOTH",
"387 0 OFFCURVE",
"344 38 OFFCURVE",
"327 90 CURVE",
"309 36 OFFCURVE",
"264 0 OFFCURVE",
"204 0 CURVE SMOOTH",
"71 0 OFFCURVE",
"35 144 OFFCURVE"
);
}
);
width = 684;
}
);
unicode = 0DB0;
}
{
glyphname = sinE;
layers = (
{
layerId = "6114C541-D024-4A3E-9713-6FAF49EAB318";
paths = (
{
closed = 1;
nodes = (
"526 0 OFFCURVE",
"615 182 OFFCURVE",
"615 386 CURVE SMOOTH",
"615 604 OFFCURVE",
"513 848 OFFCURVE",
"369 923 CURVE",
"306 848 LINE",
"340 821 OFFCURVE",
"369 782 OFFCURVE",
"390 736 CURVE",
"422 713 OFFCURVE",
"447 663 OFFCURVE",
"454 616 CURVE",
"470 542 LINE SMOOTH",
"479 504 OFFCURVE",
"487 449 OFFCURVE",
"487 391 CURVE SMOOTH",
"487 267 OFFCURVE",
"450 131 OFFCURVE",
"302 131 CURVE SMOOTH",
"193 131 OFFCURVE",
"156 190 OFFCURVE",
"156 244 CURVE SMOOTH",
"156 298 OFFCURVE",
"179 348 OFFCURVE",
"243 348 CURVE SMOOTH",
"365 348 LINE",
"326 444 LINE",
"25 447 LINE",
"25 348 LINE",
"67 348 LINE",
"46 321 OFFCURVE",
"32 277 OFFCURVE",
"32 228 CURVE SMOOTH",
"32 128 OFFCURVE",
"95 0 OFFCURVE",
"302 0 CURVE SMOOTH"
);
},
{
closed = 1;
nodes = (
"370 370 OFFCURVE",
"373 399 OFFCURVE",
"373 416 CURVE SMOOTH",
"373 540 OFFCURVE",
"292 605 OFFCURVE",
"204 605 CURVE SMOOTH",
"120 605 OFFCURVE",
"64 548 OFFCURVE",
"64 466 CURVE SMOOTH",
"64 433 OFFCURVE",
"76 399 OFFCURVE",
"99 363 CURVE",
"190 405 LINE",
"180 421 OFFCURVE",
"166 440 OFFCURVE",
"166 461 CURVE SMOOTH",
"166 485 OFFCURVE",
"176 505 OFFCURVE",
"204 505 CURVE SMOOTH",
"245 505 OFFCURVE",
"264 474 OFFCURVE",
"264 440 CURVE SMOOTH",
"264 434 OFFCURVE",
"263 429 OFFCURVE",
"262 423 CURVE",
"365 348 LINE"
);
},
{
closed = 1;
nodes = (
"541 596 LINE",
"456 622 LINE",
"448 622 OFFCURVE",
"442 624 OFFCURVE",
"435 626 CURVE SMOOTH",
"390 635 OFFCURVE",
"369 666 OFFCURVE",
"369 688 CURVE SMOOTH",
"369 707 OFFCURVE",
"377 728 OFFCURVE",
"391 736 CURVE",
"413 859 LINE",
"306 848 LINE",
"319 837 OFFCURVE",
"323 827 OFFCURVE",
"323 818 CURVE SMOOTH",
"323 791 OFFCURVE",
"264 766 OFFCURVE",
"264 695 CURVE SMOOTH",
"264 615 OFFCURVE",
"339 553 OFFCURVE",
"415 532 CURVE SMOOTH",
"436 527 OFFCURVE",
"456 524 OFFCURVE",
"476 523 CURVE"
);
}
);
width = 648;
},
{
layerId = "CC11FE7D-5FF0-4B40-9597-DFC61EB94F41";
paths = (
{
closed = 1;
nodes = (
"486 3 OFFCURVE",
"586 144 OFFCURVE",
"586 389 CURVE SMOOTH",
"586 600 OFFCURVE",
"504 806 OFFCURVE",
"367 918 CURVE",
"341 888 LINE",
"364 870 OFFCURVE",
"385 849 OFFCURVE",
"404 826 CURVE SMOOTH",
"455 765 OFFCURVE",
"494 685 OFFCURVE",
"518 595 CURVE SMOOTH",
"525 568 LINE SMOOTH",
"537 512 OFFCURVE",
"544 451 OFFCURVE",
"544 389 CURVE SMOOTH",
"544 171 OFFCURVE",
"459 46 OFFCURVE",
"302 46 CURVE SMOOTH",
"134 46 OFFCURVE",
"95 162 OFFCURVE",
"95 237 CURVE SMOOTH",
"95 338 OFFCURVE",
"150 403 OFFCURVE",
"209 403 CURVE SMOOTH",
"356 403 LINE",
"348 443 LINE",
"38 443 LINE",
"38 403 LINE",
"121 403 LINE",
"111 397 OFFCURVE",
"54 353 OFFCURVE",
"54 236 CURVE SMOOTH",
"54 145 OFFCURVE",
"101 3 OFFCURVE",
"302 3 CURVE SMOOTH"
);
},
{
closed = 1;
nodes = (
"358 415 OFFCURVE",
"359 427 OFFCURVE",
"359 440 CURVE SMOOTH",
"359 547 OFFCURVE",
"291 596 OFFCURVE",
"218 596 CURVE SMOOTH",
"151 596 OFFCURVE",
"92 555 OFFCURVE",
"92 478 CURVE SMOOTH",
"92 457 OFFCURVE",
"98 437 OFFCURVE",
"107 421 CURVE",
"140 437 LINE",
"134 449 OFFCURVE",
"131 462 OFFCURVE",
"131 478 CURVE SMOOTH",
"131 531 OFFCURVE",
"170 558 OFFCURVE",
"218 558 CURVE SMOOTH",
"273 558 OFFCURVE",
"321 521 OFFCURVE",
"321 440 CURVE SMOOTH",
"321 437 OFFCURVE",
"321 435 OFFCURVE",
"321 431 CURVE",
"356 403 LINE"
);
},
{
closed = 1;
nodes = (
"539 594 LINE",
"519 601 LINE",
"506 599 OFFCURVE",
"494 597 OFFCURVE",
"482 597 CURVE SMOOTH",
"410 597 OFFCURVE",
"363 639 OFFCURVE",
"363 686 CURVE SMOOTH",
"363 752 OFFCURVE",
"407 789 OFFCURVE",
"407 827 CURVE",
"414 866 LINE",
"341 888 LINE",
"363 873 OFFCURVE",
"370 858 OFFCURVE",
"370 843 CURVE SMOOTH",
"370 804 OFFCURVE",
"322 759 OFFCURVE",
"322 686 CURVE SMOOTH",
"322 619 OFFCURVE",
"385 559 OFFCURVE",
"481 559 CURVE SMOOTH",
"496 559 OFFCURVE",
"512 560 OFFCURVE",
"528 563 CURVE"
);
}
);
width = 609;
}
);
unicode = 0D91;
}
{
glyphname = sinEe;
layers = (
{
components = (
{
name = sinE;
}
);
layerId = "6114C541-D024-4A3E-9713-6FAF49EAB318";
paths = (
{
closed = 1;
nodes = (
"599 522 LINE",
"599 778 LINE",
"595 801 LINE",
"595 906 LINE",
"599 924 LINE",
"599 986 LINE",
"496 986 LINE",
"496 986 OFFCURVE",
"506 933 OFFCURVE",
"506 802 CURVE SMOOTH",
"506 754 OFFCURVE",
"506 708 OFFCURVE",
"506 660 CURVE SMOOTH",
"504 522 LINE"
);
},
{
closed = 1;
nodes = (
"678 716 OFFCURVE",
"735 767 OFFCURVE",
"735 852 CURVE SMOOTH",
"735 981 OFFCURVE",
"640 986 OFFCURVE",
"599 986 CURVE",
"564 938 LINE",
"588 896 LINE",
"591 897 OFFCURVE",
"594 897 OFFCURVE",
"597 897 CURVE SMOOTH",
"610 897 OFFCURVE",
"641 896 OFFCURVE",
"641 852 CURVE SMOOTH",
"641 828 OFFCURVE",
"632 808 OFFCURVE",
"605 808 CURVE SMOOTH",
"600 808 OFFCURVE",
"594 809 OFFCURVE",
"587 810 CURVE",
"569 723 LINE",
"584 718 OFFCURVE",
"599 716 OFFCURVE",
"613 716 CURVE SMOOTH"
);
}
);
width = 668;
},
{
components = (
{
name = sinE;
}
);
layerId = "CC11FE7D-5FF0-4B40-9597-DFC61EB94F41";
paths = (
{
closed = 1;
nodes = (
"561 571 LINE",
"561 731 LINE",
"556 753 LINE",
"556 955 LINE",
"561 973 LINE",
"561 982 LINE",
"521 982 LINE",
"521 918 OFFCURVE",
"521 854 OFFCURVE",
"521 790 CURVE SMOOTH",
"521 735 OFFCURVE",
"525 685 OFFCURVE",
"526 651 CURVE SMOOTH",
"526 571 LINE"
);
},
{
closed = 1;
nodes = (
"644 719 OFFCURVE",
"698 756 OFFCURVE",
"698 852 CURVE SMOOTH",
"698 981 OFFCURVE",
"602 982 OFFCURVE",
"561 982 CURVE",
"530 965 LINE",
"551 943 LINE",
"554 943 OFFCURVE",
"556 943 OFFCURVE",
"560 943 CURVE SMOOTH",
"597 943 OFFCURVE",
"658 940 OFFCURVE",
"658 852 CURVE SMOOTH",
"658 783 OFFCURVE",
"622 759 OFFCURVE",
"582 759 CURVE SMOOTH",
"561 759 OFFCURVE",
"547 764 OFFCURVE",
"539 765 CURVE",
"531 726 LINE",
"549 721 OFFCURVE",
"566 719 OFFCURVE",
"582 719 CURVE SMOOTH"
);
}
);
width = 609;
}
);
unicode = 0D92;
}
{
glyphname = sinEightlith;
layers = (
{
layerId = "CC11FE7D-5FF0-4B40-9597-DFC61EB94F41";
paths = (
{
closed = 1;
nodes = (
"39 189 CURVE SMOOTH",
"39 319 OFFCURVE",
"114 389 OFFCURVE",
"203 428 CURVE SMOOTH",
"270 457 OFFCURVE",
"385 485 OFFCURVE",
"488 560 CURVE SMOOTH",
"549 603 OFFCURVE",
"563 655 OFFCURVE",
"597 655 CURVE SMOOTH",
"613 655 OFFCURVE",
"625 647 OFFCURVE",
"625 633 CURVE SMOOTH",
"625 604 OFFCURVE",
"598 569 OFFCURVE",
"526 528 CURVE SMOOTH",
"482 503 OFFCURVE",
"399 465 OFFCURVE",
"347 451 CURVE",
"405 448 OFFCURVE",
"465 421 OFFCURVE",
"511 370 CURVE SMOOTH",
"553 323 OFFCURVE",
"573 270 OFFCURVE",
"573 204 CURVE SMOOTH",
"573 59 OFFCURVE",
"457 -62 OFFCURVE",
"296 -62 CURVE SMOOTH",
"149 -62 OFFCURVE",
"39 43 OFFCURVE"
);
},
{
closed = 1;
nodes = (
"80 217 CURVE SMOOTH",
"80 107 OFFCURVE",
"159 24 OFFCURVE",
"286 24 CURVE SMOOTH",
"411 24 OFFCURVE",
"511 113 OFFCURVE",
"511 238 CURVE SMOOTH",
"511 359 OFFCURVE",
"424 423 OFFCURVE",
"315 423 CURVE SMOOTH",
"200 423 OFFCURVE",
"80 338 OFFCURVE"
);
}
);
width = 613;
},
{
layerId = "6114C541-D024-4A3E-9713-6FAF49EAB318";
paths = (
{
closed = 1;
nodes = (
"59 189 CURVE SMOOTH",
"59 318 OFFCURVE",
"137 398 OFFCURVE",
"238 437 CURVE SMOOTH",
"330 472 OFFCURVE",
"382 485 OFFCURVE",
"456 542 CURVE SMOOTH",
"523 594 OFFCURVE",
"537 662 OFFCURVE",
"600 662 CURVE SMOOTH",
"618 662 OFFCURVE",
"645 651 OFFCURVE",
"645 623 CURVE SMOOTH",
"645 589 OFFCURVE",
"617 555 OFFCURVE",
"543 517 CURVE SMOOTH",
"500 494 OFFCURVE",
"416 463 OFFCURVE",
"367 450 CURVE",
"414 450 OFFCURVE",
"480 425 OFFCURVE",
"530 370 CURVE SMOOTH",
"572 323 OFFCURVE",
"593 270 OFFCURVE",
"593 203 CURVE SMOOTH",
"593 58 OFFCURVE",
"475 -63 OFFCURVE",
"316 -63 CURVE SMOOTH",
"169 -63 OFFCURVE",
"59 42 OFFCURVE"
);
},
{
closed = 1;
nodes = (
"116 240 CURVE SMOOTH",
"116 171 OFFCURVE",
"166 100 OFFCURVE",
"293 100 CURVE SMOOTH",
"417 100 OFFCURVE",
"502 162 OFFCURVE",
"502 281 CURVE SMOOTH",
"502 364 OFFCURVE",
"438 422 OFFCURVE",
"330 422 CURVE SMOOTH",
"238 422 OFFCURVE",
"116 353 OFFCURVE"
);
}
);
width = 656;
}
);
unicode = 0DEE;
}
{
glyphname = sinFa;
layers = (
{
layerId = "6114C541-D024-4A3E-9713-6FAF49EAB318";
paths = (
{
closed = 1;
nodes = (
"36 336 CURVE SMOOTH",
"36 485 OFFCURVE",
"58 676 OFFCURVE",
"224 676 CURVE SMOOTH",
"284 676 OFFCURVE",
"329 640 OFFCURVE",
"347 586 CURVE",
"365 640 OFFCURVE",
"410 676 OFFCURVE",
"470 676 CURVE SMOOTH",
"636 676 OFFCURVE",
"658 485 OFFCURVE",
"658 336 CURVE SMOOTH",
"658 102 OFFCURVE",
"570 0 OFFCURVE",
"396 0 CURVE",
"396 131 LINE",
"536 131 OFFCURVE",
"536 277 OFFCURVE",
"536 336 CURVE SMOOTH",
"536 392 OFFCURVE",
"536 545 OFFCURVE",
"470 545 CURVE SMOOTH",
"417 545 OFFCURVE",
"399 475 OFFCURVE",
"399 392 CURVE",
"295 392 LINE",
"295 475 OFFCURVE",
"277 545 OFFCURVE",
"224 545 CURVE SMOOTH",
"158 545 OFFCURVE",
"158 392 OFFCURVE",
"158 336 CURVE SMOOTH",
"158 277 OFFCURVE",
"158 131 OFFCURVE",
"298 131 CURVE",
"298 0 LINE",
"124 0 OFFCURVE",
"36 102 OFFCURVE"
);
}
);
width = 694;
},
{
layerId = "CC11FE7D-5FF0-4B40-9597-DFC61EB94F41";
paths = (
{
closed = 1;
nodes = (
"46 332 CURVE SMOOTH",
"46 524 OFFCURVE",
"70 673 OFFCURVE",
"199 673 CURVE SMOOTH",
"307 673 OFFCURVE",
"329 579 OFFCURVE",
"333 545 CURVE",
"338 579 OFFCURVE",
"359 673 OFFCURVE",
"468 673 CURVE SMOOTH",
"597 673 OFFCURVE",
"621 524 OFFCURVE",
"621 332 CURVE SMOOTH",
"621 143 OFFCURVE",
"565 3 OFFCURVE",
"393 3 CURVE",
"393 46 LINE",
"534 46 OFFCURVE",
"579 168 OFFCURVE",
"579 332 CURVE SMOOTH",
"579 500 OFFCURVE",
"556 630 OFFCURVE",
"468 630 CURVE SMOOTH",
"364 630 OFFCURVE",
"356 507 OFFCURVE",
"353 420 CURVE",
"314 420 LINE",
"310 507 OFFCURVE",
"303 630 OFFCURVE",
"199 630 CURVE SMOOTH",
"111 630 OFFCURVE",
"88 500 OFFCURVE",
"88 332 CURVE SMOOTH",
"88 168 OFFCURVE",
"133 46 OFFCURVE",
"273 46 CURVE",
"273 3 LINE",
"102 3 OFFCURVE",
"46 143 OFFCURVE"
);
}
);
width = 667;
},
{
layerId = "700B375B-E5F6-4156-8225-245C9DB4E923";
paths = (
{
closed = 1;
nodes = (
"36 336 CURVE SMOOTH",
"36 485 OFFCURVE",
"58 676 OFFCURVE",
"224 676 CURVE SMOOTH",
"284 676 OFFCURVE",
"329 640 OFFCURVE",
"347 586 CURVE",
"365 640 OFFCURVE",
"410 676 OFFCURVE",
"470 676 CURVE SMOOTH",
"636 676 OFFCURVE",
"658 485 OFFCURVE",
"658 336 CURVE SMOOTH",
"658 102 OFFCURVE",
"570 0 OFFCURVE",
"396 0 CURVE",
"396 131 LINE",
"536 131 OFFCURVE",
"536 277 OFFCURVE",
"536 336 CURVE SMOOTH",
"536 392 OFFCURVE",
"536 545 OFFCURVE",
"470 545 CURVE SMOOTH",
"417 545 OFFCURVE",
"399 475 OFFCURVE",
"399 392 CURVE",
"295 392 LINE",
"295 475 OFFCURVE",
"277 545 OFFCURVE",
"224 545 CURVE SMOOTH",
"158 545 OFFCURVE",
"158 392 OFFCURVE",
"158 336 CURVE SMOOTH",
"158 277 OFFCURVE",
"158 131 OFFCURVE",
"298 131 CURVE",
"298 0 LINE",
"124 0 OFFCURVE",
"36 102 OFFCURVE"
);
}
);
width = 694;
}
);
unicode = 0DC6;
}
{
glyphname = sinFivelith;
layers = (
{
layerId = "CC11FE7D-5FF0-4B40-9597-DFC61EB94F41";
paths = (
{
closed = 1;
nodes = (
"127 -21 OFFCURVE",
"41 61 OFFCURVE",
"41 180 CURVE SMOOTH",
"41 305 OFFCURVE",
"128 355 OFFCURVE",
"269 355 CURVE SMOOTH",
"410 355 LINE",
"398 410 OFFCURVE",
"364 449 OFFCURVE",
"312 449 CURVE SMOOTH",
"289 449 OFFCURVE",
"271 434 OFFCURVE",
"260 412 CURVE SMOOTH",
"248 387 OFFCURVE",
"230 377 OFFCURVE",
"212 377 CURVE SMOOTH",
"183 377 OFFCURVE",
"167 394 OFFCURVE",
"167 420 CURVE SMOOTH",
"167 462 OFFCURVE",
"214 492 OFFCURVE",
"280 492 CURVE SMOOTH",
"381 492 OFFCURVE",
"431 440 OFFCURVE",
"453 328 CURVE",
"291 328 LINE SMOOTH",
"186 328 OFFCURVE",
"132 284 OFFCURVE",
"132 185 CURVE SMOOTH",
"132 86 OFFCURVE",
"215 12 OFFCURVE",
"314 12 CURVE SMOOTH",
"368 12 OFFCURVE",
"412 35 OFFCURVE",
"459 89 CURVE",
"485 69 LINE",
"449 26 OFFCURVE",
"367 -54 OFFCURVE",
"367 -143 CURVE SMOOTH",
"367 -220 OFFCURVE",
"413 -250 OFFCURVE",
"488 -268 CURVE",
"488 -300 LINE",
"471 -304 OFFCURVE",
"450 -305 OFFCURVE",
"425 -305 CURVE SMOOTH",
"341 -303 OFFCURVE",
"299 -256 OFFCURVE",
"299 -188 CURVE SMOOTH",
"299 -142 OFFCURVE",
"327 -83 OFFCURVE",
"382 -8 CURVE",
"341 -20 OFFCURVE",
"314 -21 OFFCURVE",
"282 -21 CURVE SMOOTH"
);
}
);
width = 540;
},
{
layerId = "6114C541-D024-4A3E-9713-6FAF49EAB318";
paths = (
{
closed = 1;
nodes = (
"127 -20 OFFCURVE",
"41 62 OFFCURVE",
"41 180 CURVE SMOOTH",
"41 305 OFFCURVE",
"128 356 OFFCURVE",
"269 356 CURVE SMOOTH",
"407 356 LINE",
"396 410 OFFCURVE",
"361 442 OFFCURVE",
"322 442 CURVE SMOOTH",
"299 442 OFFCURVE",
"282 428 OFFCURVE",
"272 408 CURVE SMOOTH",
"260 383 OFFCURVE",
"240 374 OFFCURVE",
"217 374 CURVE SMOOTH",
"188 374 OFFCURVE",
"166 393 OFFCURVE",
"166 419 CURVE SMOOTH",
"166 461 OFFCURVE",
"214 493 OFFCURVE",
"280 493 CURVE SMOOTH",
"381 493 OFFCURVE",
"432 439 OFFCURVE",
"453 324 CURVE",
"380 324 LINE SMOOTH",
"276 324 OFFCURVE",
"223 284 OFFCURVE",
"223 185 CURVE SMOOTH",
"223 86 OFFCURVE",
"284 33 OFFCURVE",
"343 33 CURVE SMOOTH",
"379 33 OFFCURVE",
"408 38 OFFCURVE",
"455 92 CURVE",
"485 69 LINE",
"449 27 OFFCURVE",
"401 -39 OFFCURVE",
"401 -128 CURVE SMOOTH",
"401 -178 OFFCURVE",
"415 -239 OFFCURVE",
"488 -262 CURVE",
"488 -300 LINE",
"464 -306 OFFCURVE",
"438 -310 OFFCURVE",
"418 -310 CURVE SMOOTH",
"322 -310 OFFCURVE",
"282 -248 OFFCURVE",
"282 -180 CURVE SMOOTH",
"282 -112 OFFCURVE",
"321 -66 OFFCURVE",
"378 -10 CURVE",
"347 -18 OFFCURVE",
"315 -20 OFFCURVE",
"282 -20 CURVE SMOOTH"
);
}
);
width = 529;
}
);
unicode = 0DEB;
}
{
glyphname = sinFourlith;
layers = (
{
layerId = "CC11FE7D-5FF0-4B40-9597-DFC61EB94F41";
paths = (
{
closed = 1;
nodes = (
"27 197 CURVE SMOOTH",
"27 290 OFFCURVE",
"102 365 OFFCURVE",
"234 365 CURVE SMOOTH",
"256 365 OFFCURVE",
"256 365 OFFCURVE",
"265 364 CURVE",
"267 372 OFFCURVE",
"268 378 OFFCURVE",
"268 387 CURVE SMOOTH",
"268 423 OFFCURVE",
"249 458 OFFCURVE",
"205 458 CURVE SMOOTH",
"180 458 OFFCURVE",
"160 442 OFFCURVE",
"152 424 CURVE SMOOTH",
"138 396 OFFCURVE",
"128 376 OFFCURVE",
"96 376 CURVE SMOOTH",
"73 376 OFFCURVE",
"54 394 OFFCURVE",
"54 423 CURVE SMOOTH",
"54 481 OFFCURVE",
"114 506 OFFCURVE",
"170 506 CURVE SMOOTH",
"249 506 OFFCURVE",
"303 459 OFFCURVE",
"303 380 CURVE SMOOTH",
"303 366 OFFCURVE",
"302 351 OFFCURVE",
"298 336 CURVE",
"259 338 LINE",
"119 338 OFFCURVE",
"71 272 OFFCURVE",
"71 216 CURVE SMOOTH",
"71 111 OFFCURVE",
"211 79 OFFCURVE",
"333 79 CURVE SMOOTH",
"459 79 OFFCURVE",
"596 111 OFFCURVE",
"596 216 CURVE SMOOTH",
"596 276 OFFCURVE",
"544 337 OFFCURVE",
"408 337 CURVE SMOOTH",
"383 337 OFFCURVE",
"360 333 OFFCURVE",
"343 332 CURVE",
"337 351 OFFCURVE",
"334 368 OFFCURVE",
"334 387 CURVE SMOOTH",
"334 478 OFFCURVE",
"402 509 OFFCURVE",
"483 509 CURVE SMOOTH",
"532 509 OFFCURVE",
"603 483 OFFCURVE",
"603 413 CURVE SMOOTH",
"603 379 OFFCURVE",
"582 332 OFFCURVE",
"506 332 CURVE SMOOTH",
"442 332 OFFCURVE",
"417 388 OFFCURVE",
"417 439 CURVE SMOOTH",
"417 541 OFFCURVE",
"475 624 OFFCURVE",
"527 671 CURVE SMOOTH",
"570 711 OFFCURVE",
"607 725 OFFCURVE",
"631 725 CURVE SMOOTH",
"650 725 OFFCURVE",
"660 712 OFFCURVE",
"660 700 CURVE SMOOTH",
"660 668 OFFCURVE",
"576 659 OFFCURVE",
"518 599 CURVE SMOOTH",
"492 573 OFFCURVE",
"451 520 OFFCURVE",
"451 437 CURVE SMOOTH",
"451 396 OFFCURVE",
"470 364 OFFCURVE",
"509 364 CURVE SMOOTH",
"543 364 OFFCURVE",
"567 385 OFFCURVE",
"567 416 CURVE SMOOTH",
"567 454 OFFCURVE",
"530 476 OFFCURVE",
"478 476 CURVE SMOOTH",
"395 476 OFFCURVE",
"370 437 OFFCURVE",
"370 390 CURVE SMOOTH",
"370 382 OFFCURVE",
"371 372 OFFCURVE",
"373 361 CURVE",
"383 362 OFFCURVE",
"394 364 OFFCURVE",
"409 364 CURVE SMOOTH",
"517 364 OFFCURVE",
"637 330 OFFCURVE",
"637 194 CURVE SMOOTH",
"637 49 OFFCURVE",
"489 -4 OFFCURVE",
"340 -4 CURVE SMOOTH",
"177 -4 OFFCURVE",
"27 48 OFFCURVE"
);
}
);
width = 690;
},
{
layerId = "6114C541-D024-4A3E-9713-6FAF49EAB318";
paths = (
{
closed = 1;
nodes = (
"27 187 CURVE SMOOTH",
"27 281 OFFCURVE",
"102 356 OFFCURVE",
"234 356 CURVE SMOOTH",
"256 356 OFFCURVE",
"255 356 OFFCURVE",
"264 354 CURVE",
"265 363 OFFCURVE",
"265 369 OFFCURVE",
"265 377 CURVE SMOOTH",
"265 404 OFFCURVE",
"253 443 OFFCURVE",
"210 443 CURVE SMOOTH",
"184 443 OFFCURVE",
"166 423 OFFCURVE",
"158 405 CURVE SMOOTH",
"144 377 OFFCURVE",
"130 364 OFFCURVE",
"103 364 CURVE SMOOTH",
"74 364 OFFCURVE",
"55 382 OFFCURVE",
"55 412 CURVE SMOOTH",
"55 471 OFFCURVE",
"114 497 OFFCURVE",
"170 497 CURVE SMOOTH",
"249 497 OFFCURVE",
"303 451 OFFCURVE",
"303 371 CURVE SMOOTH",
"303 357 OFFCURVE",
"302 339 OFFCURVE",
"298 323 CURVE",
"259 325 LINE",
"119 325 OFFCURVE",
"101 272 OFFCURVE",
"101 241 CURVE SMOOTH",
"101 172 OFFCURVE",
"212 152 OFFCURVE",
"333 152 CURVE SMOOTH",
"459 152 OFFCURVE",
"562 177 OFFCURVE",
"562 247 CURVE SMOOTH",
"562 275 OFFCURVE",
"544 327 OFFCURVE",
"408 327 CURVE SMOOTH",
"383 327 OFFCURVE",
"360 324 OFFCURVE",
"343 323 CURVE",
"337 342 OFFCURVE",
"334 360 OFFCURVE",
"334 377 CURVE SMOOTH",
"334 469 OFFCURVE",
"402 500 OFFCURVE",
"483 500 CURVE SMOOTH",
"532 500 OFFCURVE",
"603 474 OFFCURVE",
"603 404 CURVE SMOOTH",
"603 370 OFFCURVE",
"582 323 OFFCURVE",
"506 323 CURVE SMOOTH",
"442 323 OFFCURVE",
"417 377 OFFCURVE",
"417 422 CURVE SMOOTH",
"417 530 OFFCURVE",
"469 619 OFFCURVE",
"521 668 CURVE SMOOTH",
"556 700 OFFCURVE",
"596 717 OFFCURVE",
"619 717 CURVE SMOOTH",
"653 717 OFFCURVE",
"660 696 OFFCURVE",
"660 680 CURVE SMOOTH",
"660 642 OFFCURVE",
"604 633 OFFCURVE",
"536 586 CURVE SMOOTH",
"499 560 OFFCURVE",
"452 501 OFFCURVE",
"452 423 CURVE SMOOTH",
"452 385 OFFCURVE",
"472 354 OFFCURVE",
"507 354 CURVE SMOOTH",
"541 354 OFFCURVE",
"567 375 OFFCURVE",
"567 406 CURVE SMOOTH",
"567 445 OFFCURVE",
"530 466 OFFCURVE",
"478 466 CURVE SMOOTH",
"395 466 OFFCURVE",
"371 428 OFFCURVE",
"371 381 CURVE SMOOTH",
"371 373 OFFCURVE",
"372 363 OFFCURVE",
"374 352 CURVE",
"384 353 OFFCURVE",
"394 354 OFFCURVE",
"409 354 CURVE SMOOTH",
"517 354 OFFCURVE",
"637 321 OFFCURVE",
"637 185 CURVE SMOOTH",
"637 40 OFFCURVE",
"489 -13 OFFCURVE",
"340 -13 CURVE SMOOTH",
"177 -13 OFFCURVE",
"27 39 OFFCURVE"
);
}
);
width = 693;
},
{
layerId = "700B375B-E5F6-4156-8225-245C9DB4E923";
paths = (
{
closed = 1;
nodes = (
"27 187 CURVE SMOOTH",
"27 281 OFFCURVE",
"102 356 OFFCURVE",
"234 356 CURVE SMOOTH",
"256 356 OFFCURVE",
"255 356 OFFCURVE",
"264 354 CURVE",
"265 363 OFFCURVE",
"265 369 OFFCURVE",
"265 377 CURVE SMOOTH",
"265 404 OFFCURVE",
"253 443 OFFCURVE",
"210 443 CURVE SMOOTH",
"184 443 OFFCURVE",
"166 423 OFFCURVE",
"158 405 CURVE SMOOTH",
"144 377 OFFCURVE",
"130 364 OFFCURVE",
"103 364 CURVE SMOOTH",
"74 364 OFFCURVE",
"55 382 OFFCURVE",
"55 412 CURVE SMOOTH",
"55 471 OFFCURVE",
"114 497 OFFCURVE",
"170 497 CURVE SMOOTH",
"249 497 OFFCURVE",
"303 451 OFFCURVE",
"303 371 CURVE SMOOTH",
"303 357 OFFCURVE",
"302 339 OFFCURVE",
"298 323 CURVE",
"259 325 LINE",
"119 325 OFFCURVE",
"101 272 OFFCURVE",
"101 241 CURVE SMOOTH",
"101 172 OFFCURVE",
"212 152 OFFCURVE",
"333 152 CURVE SMOOTH",
"459 152 OFFCURVE",
"562 177 OFFCURVE",
"562 247 CURVE SMOOTH",
"562 275 OFFCURVE",
"544 327 OFFCURVE",
"408 327 CURVE SMOOTH",
"383 327 OFFCURVE",
"360 324 OFFCURVE",
"343 323 CURVE",
"337 342 OFFCURVE",
"334 360 OFFCURVE",
"334 377 CURVE SMOOTH",
"334 469 OFFCURVE",
"402 500 OFFCURVE",
"483 500 CURVE SMOOTH",
"532 500 OFFCURVE",
"603 474 OFFCURVE",
"603 404 CURVE SMOOTH",
"603 370 OFFCURVE",
"582 323 OFFCURVE",
"506 323 CURVE SMOOTH",
"442 323 OFFCURVE",
"417 377 OFFCURVE",
"417 422 CURVE SMOOTH",
"417 530 OFFCURVE",
"469 619 OFFCURVE",
"521 668 CURVE SMOOTH",
"556 700 OFFCURVE",
"596 717 OFFCURVE",
"619 717 CURVE SMOOTH",
"653 717 OFFCURVE",
"660 696 OFFCURVE",
"660 680 CURVE SMOOTH",
"660 642 OFFCURVE",
"604 633 OFFCURVE",
"536 586 CURVE SMOOTH",
"499 560 OFFCURVE",
"452 501 OFFCURVE",
"452 423 CURVE SMOOTH",
"452 385 OFFCURVE",
"472 354 OFFCURVE",
"507 354 CURVE SMOOTH",
"541 354 OFFCURVE",
"567 375 OFFCURVE",
"567 406 CURVE SMOOTH",
"567 445 OFFCURVE",
"530 466 OFFCURVE",
"478 466 CURVE SMOOTH",
"395 466 OFFCURVE",
"371 428 OFFCURVE",
"371 381 CURVE SMOOTH",
"371 373 OFFCURVE",
"372 363 OFFCURVE",
"374 352 CURVE",
"384 353 OFFCURVE",
"394 354 OFFCURVE",
"409 354 CURVE SMOOTH",
"517 354 OFFCURVE",
"637 321 OFFCURVE",
"637 185 CURVE SMOOTH",
"637 40 OFFCURVE",
"489 -13 OFFCURVE",
"340 -13 CURVE SMOOTH",
"177 -13 OFFCURVE",
"27 39 OFFCURVE"
);
}
);
width = 693;
}
);
unicode = 0DEA;
}
{
glyphname = sinGa;
layers = (
{
layerId = "6114C541-D024-4A3E-9713-6FAF49EAB318";
paths = (
{
closed = 1;
nodes = (
"259 342 LINE",
"312 376 OFFCURVE",
"315 412 OFFCURVE",
"315 446 CURVE SMOOTH",
"315 468 LINE",
"324 602 OFFCURVE",
"410 665 OFFCURVE",
"502 665 CURVE SMOOTH",
"624 665 OFFCURVE",
"736 599 OFFCURVE",
"736 332 CURVE SMOOTH",
"736 79 OFFCURVE",
"639 0 OFFCURVE",
"521 0 CURVE SMOOTH",
"435 0 OFFCURVE",
"388 57 OFFCURVE",
"377 98 CURVE",
"451 180 LINE",
"457 161 OFFCURVE",
"474 121 OFFCURVE",
"521 121 CURVE SMOOTH",
"570 121 OFFCURVE",
"612 171 OFFCURVE",
"612 332 CURVE SMOOTH",
"612 500 OFFCURVE",
"559 543 OFFCURVE",
"502 543 CURVE SMOOTH",
"451 543 OFFCURVE",
"435 509 OFFCURVE",
"431 443 CURVE SMOOTH",
"431 412 LINE SMOOTH",
"431 326 OFFCURVE",
"380 289 OFFCURVE",
"311 250 CURVE"
);
},
{
closed = 1;
nodes = (
"37 332 CURVE SMOOTH",
"37 586 OFFCURVE",
"134 665 OFFCURVE",
"251 665 CURVE SMOOTH",
"338 665 OFFCURVE",
"385 608 OFFCURVE",
"396 567 CURVE",
"322 485 LINE",
"316 504 OFFCURVE",
"299 544 OFFCURVE",
"251 544 CURVE SMOOTH",
"202 544 OFFCURVE",
"161 494 OFFCURVE",
"161 332 CURVE SMOOTH",
"161 164 OFFCURVE",
"214 122 OFFCURVE",
"270 122 CURVE SMOOTH",
"340 122 OFFCURVE",
"361 166 OFFCURVE",
"361 210 CURVE SMOOTH",
"361 249 OFFCURVE",
"343 263 OFFCURVE",
"329 269 CURVE",
"401 348 LINE",
"442 335 OFFCURVE",
"477 277 OFFCURVE",
"477 215 CURVE SMOOTH",
"477 108 OFFCURVE",
"419 0 OFFCURVE",
"270 0 CURVE SMOOTH",
"149 0 OFFCURVE",
"37 66 OFFCURVE"
);
}
);
width = 773;
},
{
layerId = "CC11FE7D-5FF0-4B40-9597-DFC61EB94F41";
paths = (
{
closed = 1;
nodes = (
"261 314 LINE",
"311 337 OFFCURVE",
"318 385 OFFCURVE",
"318 421 CURVE SMOOTH",
"317 456 LINE SMOOTH",
"317 584 OFFCURVE",
"396 661 OFFCURVE",
"487 661 CURVE SMOOTH",
"592 661 OFFCURVE",
"687 601 OFFCURVE",
"687 332 CURVE SMOOTH",
"687 65 OFFCURVE",
"593 3 OFFCURVE",
"495 3 CURVE SMOOTH",
"432 3 OFFCURVE",
"390 36 OFFCURVE",
"369 81 CURVE",
"395 140 LINE",
"399 94 OFFCURVE",
"435 46 OFFCURVE",
"495 46 CURVE SMOOTH",
"571 46 OFFCURVE",
"644 99 OFFCURVE",
"644 332 CURVE SMOOTH",
"644 566 OFFCURVE",
"571 619 OFFCURVE",
"487 619 CURVE SMOOTH",
"401 619 OFFCURVE",
"359 540 OFFCURVE",
"359 456 CURVE SMOOTH",
"360 422 LINE SMOOTH",
"360 374 OFFCURVE",
"352 310 OFFCURVE",
"274 281 CURVE"
);
},
{
closed = 1;
nodes = (
"38 314 CURVE SMOOTH",
"38 596 OFFCURVE",
"131 661 OFFCURVE",
"229 661 CURVE SMOOTH",
"313 661 OFFCURVE",
"358 604 OFFCURVE",
"370 538 CURVE",
"329 525 LINE",
"325 570 OFFCURVE",
"289 619 OFFCURVE",
"229 619 CURVE SMOOTH",
"153 619 OFFCURVE",
"80 562 OFFCURVE",
"80 314 CURVE SMOOTH",
"80 95 OFFCURVE",
"164 46 OFFCURVE",
"248 46 CURVE SMOOTH",
"347 46 OFFCURVE",
"384 127 OFFCURVE",
"384 198 CURVE SMOOTH",
"384 256 OFFCURVE",
"356 306 OFFCURVE",
"314 310 CURVE",
"333 343 LINE",
"374 340 OFFCURVE",
"426 284 OFFCURVE",
"426 198 CURVE SMOOTH",
"426 108 OFFCURVE",
"377 3 OFFCURVE",
"248 3 CURVE SMOOTH",
"143 3 OFFCURVE",
"38 60 OFFCURVE"
);
}
);
width = 724;
},
{
associatedMasterId = "CC11FE7D-5FF0-4B40-9597-DFC61EB94F41";
layerId = "B48C317B-8434-45DA-B81E-16FF5AA34B93";
name = "Jun 27 21, 14:27";
paths = (
{
closed = 1;
nodes = (
"261 314 LINE",
"311 337 OFFCURVE",
"318 385 OFFCURVE",
"318 421 CURVE SMOOTH",
"318 435 OFFCURVE",
"317 448 OFFCURVE",
"317 456 CURVE SMOOTH",
"317 584 OFFCURVE",
"396 661 OFFCURVE",
"487 661 CURVE SMOOTH",
"592 661 OFFCURVE",
"687 601 OFFCURVE",
"687 332 CURVE SMOOTH",
"687 65 OFFCURVE",
"593 3 OFFCURVE",
"495 3 CURVE SMOOTH",
"432 3 OFFCURVE",
"390 36 OFFCURVE",
"369 81 CURVE SMOOTH",
"395 140 LINE",
"399 94 OFFCURVE",
"435 46 OFFCURVE",
"495 46 CURVE SMOOTH",
"571 46 OFFCURVE",
"644 99 OFFCURVE",
"644 332 CURVE SMOOTH",
"644 566 OFFCURVE",
"571 619 OFFCURVE",
"487 619 CURVE SMOOTH",
"401 619 OFFCURVE",
"359 540 OFFCURVE",
"359 456 CURVE SMOOTH",
"359 447 OFFCURVE",
"360 435 OFFCURVE",
"360 422 CURVE SMOOTH",
"360 374 OFFCURVE",
"352 310 OFFCURVE",
"274 281 CURVE"
);
},
{
closed = 1;
nodes = (
"38 314 CURVE SMOOTH",
"38 596 OFFCURVE",
"131 661 OFFCURVE",
"229 661 CURVE SMOOTH",
"313 661 OFFCURVE",
"358 604 OFFCURVE",
"370 538 CURVE",
"329 525 LINE",
"325 570 OFFCURVE",
"289 619 OFFCURVE",
"229 619 CURVE SMOOTH",
"153 619 OFFCURVE",
"80 562 OFFCURVE",
"80 314 CURVE SMOOTH",
"80 95 OFFCURVE",
"164 46 OFFCURVE",
"248 46 CURVE SMOOTH",
"347 46 OFFCURVE",
"384 127 OFFCURVE",
"384 198 CURVE SMOOTH",
"384 256 OFFCURVE",
"356 306 OFFCURVE",
"314 310 CURVE",
"333 343 LINE",
"374 340 OFFCURVE",
"426 284 OFFCURVE",
"426 198 CURVE SMOOTH",
"426 108 OFFCURVE",
"377 3 OFFCURVE",
"248 3 CURVE SMOOTH",
"143 3 OFFCURVE",
"38 60 OFFCURVE"
);
}
);
width = 724;
},
{
associatedMasterId = "CC11FE7D-5FF0-4B40-9597-DFC61EB94F41";
layerId = "BCDFDC91-8B45-4AEC-8DF0-1AD3E52132E9";
name = "Jun 27 21, 14:29";
paths = (
{
closed = 1;
nodes = (
"287 268 LINE",
"287 331 OFFCURVE",
"287 408 OFFCURVE",
"287 436 CURVE SMOOTH",
"287 584 OFFCURVE",
"396 661 OFFCURVE",
"487 661 CURVE SMOOTH",
"592 661 OFFCURVE",
"687 601 OFFCURVE",
"687 332 CURVE SMOOTH",
"687 65 OFFCURVE",
"593 3 OFFCURVE",
"495 3 CURVE SMOOTH",
"432 3 OFFCURVE",
"349 36 OFFCURVE",
"369 81 CURVE SMOOTH",
"395 140 LINE",
"399 94 OFFCURVE",
"435 46 OFFCURVE",
"495 46 CURVE SMOOTH",
"571 46 OFFCURVE",
"644 99 OFFCURVE",
"644 332 CURVE SMOOTH",
"644 566 OFFCURVE",
"571 619 OFFCURVE",
"487 619 CURVE SMOOTH",
"401 619 OFFCURVE",
"327 540 OFFCURVE",
"327 436 CURVE SMOOTH",
"327 407 OFFCURVE",
"327 316 OFFCURVE",
"327 268 CURVE"
);
},
{
closed = 1;
nodes = (
"143 3 OFFCURVE",
"38 60 OFFCURVE",
"38 314 CURVE SMOOTH",
"38 596 OFFCURVE",
"131 661 OFFCURVE",
"229 661 CURVE SMOOTH",
"313 661 OFFCURVE",
"358 604 OFFCURVE",
"360 558 CURVE",
"329 525 LINE",
"325 570 OFFCURVE",
"289 619 OFFCURVE",
"229 619 CURVE SMOOTH",
"153 619 OFFCURVE",
"80 562 OFFCURVE",
"80 314 CURVE SMOOTH",
"80 95 OFFCURVE",
"164 46 OFFCURVE",
"248 46 CURVE SMOOTH",
"347 46 OFFCURVE",
"384 127 OFFCURVE",
"384 218 CURVE SMOOTH",
"384 256 OFFCURVE",
"376 336 OFFCURVE",
"304 340 CURVE",
"323 373 LINE",
"404 370 OFFCURVE",
"426 284 OFFCURVE",
"426 218 CURVE SMOOTH",
"426 108 OFFCURVE",
"377 3 OFFCURVE",
"248 3 CURVE SMOOTH"
);
}
);
width = 724;
},
{
layerId = "700B375B-E5F6-4156-8225-245C9DB4E923";
paths = (
{
closed = 1;
nodes = (
"259 342 LINE",
"312 376 OFFCURVE",
"315 412 OFFCURVE",
"315 446 CURVE SMOOTH",
"315 468 LINE",
"324 602 OFFCURVE",
"410 665 OFFCURVE",
"502 665 CURVE SMOOTH",
"624 665 OFFCURVE",
"736 599 OFFCURVE",
"736 332 CURVE SMOOTH",
"736 79 OFFCURVE",
"639 0 OFFCURVE",
"521 0 CURVE SMOOTH",
"435 0 OFFCURVE",
"388 57 OFFCURVE",
"377 98 CURVE",
"451 180 LINE",
"457 161 OFFCURVE",
"474 121 OFFCURVE",
"521 121 CURVE SMOOTH",
"570 121 OFFCURVE",
"612 171 OFFCURVE",
"612 332 CURVE SMOOTH",
"612 500 OFFCURVE",
"559 543 OFFCURVE",
"502 543 CURVE SMOOTH",
"451 543 OFFCURVE",
"435 509 OFFCURVE",
"431 443 CURVE SMOOTH",
"431 412 LINE SMOOTH",
"431 326 OFFCURVE",
"380 289 OFFCURVE",
"311 250 CURVE"
);
},
{
closed = 1;
nodes = (
"37 332 CURVE SMOOTH",
"37 586 OFFCURVE",
"134 665 OFFCURVE",
"251 665 CURVE SMOOTH",
"338 665 OFFCURVE",
"385 608 OFFCURVE",
"396 567 CURVE",
"322 485 LINE",
"316 504 OFFCURVE",
"299 544 OFFCURVE",
"251 544 CURVE SMOOTH",
"202 544 OFFCURVE",
"161 494 OFFCURVE",
"161 332 CURVE SMOOTH",
"161 164 OFFCURVE",
"214 122 OFFCURVE",
"270 122 CURVE SMOOTH",
"340 122 OFFCURVE",
"361 166 OFFCURVE",
"361 210 CURVE SMOOTH",
"361 249 OFFCURVE",
"343 263 OFFCURVE",
"329 269 CURVE",
"401 348 LINE",
"442 335 OFFCURVE",
"477 277 OFFCURVE",
"477 215 CURVE SMOOTH",
"477 108 OFFCURVE",
"419 0 OFFCURVE",
"270 0 CURVE SMOOTH",
"149 0 OFFCURVE",
"37 66 OFFCURVE"
);
}
);
width = 773;
}
);
unicode = 0D9C;
}
{
glyphname = sinGha;
layers = (
{
layerId = "6114C541-D024-4A3E-9713-6FAF49EAB318";
paths = (
{
closed = 1;
nodes = (
"300 0 OFFCURVE",
"337 61 OFFCURVE",
"337 107 CURVE SMOOTH",
"337 142 OFFCURVE",
"331 161 OFFCURVE",
"331 180 CURVE SMOOTH",
"331 195 OFFCURVE",
"336 205 OFFCURVE",
"356 205 CURVE SMOOTH",
"375 205 OFFCURVE",
"381 195 OFFCURVE",
"381 180 CURVE SMOOTH",
"381 161 OFFCURVE",
"374 142 OFFCURVE",
"374 107 CURVE SMOOTH",
"374 61 OFFCURVE",
"411 0 OFFCURVE",
"486 0 CURVE SMOOTH",
"613 0 OFFCURVE",
"657 108 OFFCURVE",
"657 236 CURVE SMOOTH",
"657 364 OFFCURVE",
"596 473 OFFCURVE",
"486 473 CURVE SMOOTH",
"37 473 LINE",
"37 364 LINE",
"83 364 LINE",
"67 335 OFFCURVE",
"54 283 OFFCURVE",
"54 236 CURVE SMOOTH",
"54 108 OFFCURVE",
"98 0 OFFCURVE",
"225 0 CURVE SMOOTH"
);
},
{
closed = 1;
nodes = (
"185 131 OFFCURVE",
"176 179 OFFCURVE",
"176 236 CURVE SMOOTH",
"176 294 OFFCURVE",
"198 362 OFFCURVE",
"245 362 CURVE SMOOTH",
"466 362 LINE SMOOTH",
"512 362 OFFCURVE",
"535 294 OFFCURVE",
"535 236 CURVE SMOOTH",
"535 179 OFFCURVE",
"527 131 OFFCURVE",
"486 131 CURVE SMOOTH",
"472 131 OFFCURVE",
"468 140 OFFCURVE",
"468 154 CURVE SMOOTH",
"468 170 OFFCURVE",
"473 193 OFFCURVE",
"473 215 CURVE SMOOTH",
"473 270 OFFCURVE",
"436 294 OFFCURVE",
"356 294 CURVE SMOOTH",
"275 294 OFFCURVE",
"238 270 OFFCURVE",
"238 215 CURVE SMOOTH",
"238 193 OFFCURVE",
"244 170 OFFCURVE",
"244 154 CURVE SMOOTH",
"244 140 OFFCURVE",
"240 131 OFFCURVE",
"225 131 CURVE SMOOTH"
);
},
{
closed = 1;
nodes = (
"404 532 LINE",
"404 605 OFFCURVE",
"327 676 OFFCURVE",
"241 676 CURVE SMOOTH",
"141 676 OFFCURVE",
"87 606 OFFCURVE",
"87 525 CURVE SMOOTH",
"87 493 OFFCURVE",
"97 459 OFFCURVE",
"121 427 CURVE",
"207 470 LINE",
"197 483 OFFCURVE",
"192 498 OFFCURVE",
"192 513 CURVE SMOOTH",
"192 540 OFFCURVE",
"209 564 OFFCURVE",
"246 564 CURVE SMOOTH",
"272 564 OFFCURVE",
"304 547 OFFCURVE",
"304 494 CURVE SMOOTH",
"304 488 OFFCURVE",
"304 481 OFFCURVE",
"303 473 CURVE",
"345 385 LINE"
);
},
{
closed = 1;
nodes = (
"408 473 LINE",
"407 481 OFFCURVE",
"407 488 OFFCURVE",
"407 494 CURVE SMOOTH",
"407 547 OFFCURVE",
"439 564 OFFCURVE",
"465 564 CURVE SMOOTH",
"505 564 OFFCURVE",
"522 541 OFFCURVE",
"522 513 CURVE SMOOTH",
"522 500 OFFCURVE",
"514 477 OFFCURVE",
"505 467 CURVE",
"592 420 LINE",
"615 449 OFFCURVE",
"628 487 OFFCURVE",
"628 519 CURVE SMOOTH",
"628 606 OFFCURVE",
"569 676 OFFCURVE",
"470 676 CURVE SMOOTH",
"387 676 OFFCURVE",
"307 608 OFFCURVE",
"307 532 CURVE",
"356 385 LINE"
);
}
);
width = 694;
},
{
layerId = "CC11FE7D-5FF0-4B40-9597-DFC61EB94F41";
paths = (
{
closed = 1;
nodes = (
"258 3 OFFCURVE",
"299 47 OFFCURVE",
"299 102 CURVE SMOOTH",
"299 149 OFFCURVE",
"275 167 OFFCURVE",
"275 196 CURVE SMOOTH",
"275 229 OFFCURVE",
"304 236 OFFCURVE",
"337 236 CURVE SMOOTH",
"369 236 OFFCURVE",
"398 229 OFFCURVE",
"398 196 CURVE SMOOTH",
"398 167 OFFCURVE",
"374 149 OFFCURVE",
"374 102 CURVE SMOOTH",
"374 47 OFFCURVE",
"415 3 OFFCURVE",
"471 3 CURVE SMOOTH",
"574 3 OFFCURVE",
"624 99 OFFCURVE",
"624 221 CURVE SMOOTH",
"625 339 OFFCURVE",
"586 461 OFFCURVE",
"476 461 CURVE SMOOTH",
"38 461 LINE",
"38 420 LINE",
"110 420 LINE",
"71 389 OFFCURVE",
"49 299 OFFCURVE",
"49 221 CURVE SMOOTH",
"49 99 OFFCURVE",
"99 3 OFFCURVE",
"202 3 CURVE SMOOTH"
);
},
{
closed = 1;
nodes = (
"127 40 OFFCURVE",
"91 117 OFFCURVE",
"91 215 CURVE SMOOTH",
"91 280 OFFCURVE",
"106 414 OFFCURVE",
"217 414 CURVE SMOOTH",
"474 414 LINE SMOOTH",
"570 414 OFFCURVE",
"582 281 OFFCURVE",
"582 215 CURVE SMOOTH",
"582 117 OFFCURVE",
"546 40 OFFCURVE",
"471 40 CURVE SMOOTH",
"439 40 OFFCURVE",
"416 65 OFFCURVE",
"416 97 CURVE SMOOTH",
"416 141 OFFCURVE",
"440 154 OFFCURVE",
"440 195 CURVE SMOOTH",
"440 256 OFFCURVE",
"396 272 OFFCURVE",
"337 272 CURVE SMOOTH",
"277 272 OFFCURVE",
"233 256 OFFCURVE",
"233 195 CURVE SMOOTH",
"233 154 OFFCURVE",
"257 141 OFFCURVE",
"257 97 CURVE SMOOTH",
"257 65 OFFCURVE",
"234 40 OFFCURVE",
"202 40 CURVE SMOOTH"
);
},
{
closed = 1;
nodes = (
"353 555 LINE",
"338 636 OFFCURVE",
"278 673 OFFCURVE",
"214 673 CURVE SMOOTH",
"150 673 OFFCURVE",
"82 629 OFFCURVE",
"82 539 CURVE SMOOTH",
"82 477 OFFCURVE",
"114 440 OFFCURVE",
"128 428 CURVE",
"153 451 LINE",
"142 462 OFFCURVE",
"120 492 OFFCURVE",
"120 539 CURVE SMOOTH",
"120 603 OFFCURVE",
"168 634 OFFCURVE",
"214 634 CURVE SMOOTH",
"269 634 OFFCURVE",
"316 597 OFFCURVE",
"318 517 CURVE SMOOTH",
"318 497 OFFCURVE",
"318 477 OFFCURVE",
"318 457 CURVE",
"337 420 LINE"
);
},
{
closed = 1;
nodes = (
"356 457 LINE",
"356 477 OFFCURVE",
"356 497 OFFCURVE",
"356 517 CURVE SMOOTH",
"356 597 OFFCURVE",
"404 634 OFFCURVE",
"459 634 CURVE SMOOTH",
"505 634 OFFCURVE",
"553 603 OFFCURVE",
"553 539 CURVE SMOOTH",
"553 498 OFFCURVE",
"533 457 OFFCURVE",
"503 435 CURVE",
"532 411 LINE",
"568 439 OFFCURVE",
"591 489 OFFCURVE",
"591 539 CURVE SMOOTH",
"591 629 OFFCURVE",
"523 673 OFFCURVE",
"459 673 CURVE SMOOTH",
"395 673 OFFCURVE",
"335 636 OFFCURVE",
"320 555 CURVE",
"337 443 LINE"
);
}
);
width = 661;
},
{
layerId = "700B375B-E5F6-4156-8225-245C9DB4E923";
paths = (
{
closed = 1;
nodes = (
"300 0 OFFCURVE",
"337 61 OFFCURVE",
"337 107 CURVE SMOOTH",
"337 142 OFFCURVE",
"331 161 OFFCURVE",
"331 180 CURVE SMOOTH",
"331 195 OFFCURVE",
"336 205 OFFCURVE",
"356 205 CURVE SMOOTH",
"375 205 OFFCURVE",
"381 195 OFFCURVE",
"381 180 CURVE SMOOTH",
"381 161 OFFCURVE",
"374 142 OFFCURVE",
"374 107 CURVE SMOOTH",
"374 61 OFFCURVE",
"411 0 OFFCURVE",
"486 0 CURVE SMOOTH",
"613 0 OFFCURVE",
"657 108 OFFCURVE",
"657 236 CURVE SMOOTH",
"657 364 OFFCURVE",
"596 473 OFFCURVE",
"486 473 CURVE SMOOTH",
"37 473 LINE",
"37 364 LINE",
"83 364 LINE",
"67 335 OFFCURVE",
"54 283 OFFCURVE",
"54 236 CURVE SMOOTH",
"54 108 OFFCURVE",
"98 0 OFFCURVE",
"225 0 CURVE SMOOTH"
);
},
{
closed = 1;
nodes = (
"185 131 OFFCURVE",
"176 179 OFFCURVE",
"176 236 CURVE SMOOTH",
"176 294 OFFCURVE",
"198 362 OFFCURVE",
"245 362 CURVE SMOOTH",
"466 362 LINE SMOOTH",
"512 362 OFFCURVE",
"535 294 OFFCURVE",
"535 236 CURVE SMOOTH",
"535 179 OFFCURVE",
"527 131 OFFCURVE",
"486 131 CURVE SMOOTH",
"472 131 OFFCURVE",
"468 140 OFFCURVE",
"468 154 CURVE SMOOTH",
"468 170 OFFCURVE",
"473 193 OFFCURVE",
"473 215 CURVE SMOOTH",
"473 270 OFFCURVE",
"436 294 OFFCURVE",
"356 294 CURVE SMOOTH",
"275 294 OFFCURVE",
"238 270 OFFCURVE",
"238 215 CURVE SMOOTH",
"238 193 OFFCURVE",
"244 170 OFFCURVE",
"244 154 CURVE SMOOTH",
"244 140 OFFCURVE",
"240 131 OFFCURVE",
"225 131 CURVE SMOOTH"
);
},
{
closed = 1;
nodes = (
"404 532 LINE",
"404 605 OFFCURVE",
"327 676 OFFCURVE",
"241 676 CURVE SMOOTH",
"141 676 OFFCURVE",
"87 606 OFFCURVE",
"87 525 CURVE SMOOTH",
"87 493 OFFCURVE",
"97 459 OFFCURVE",
"121 427 CURVE",
"207 470 LINE",
"197 483 OFFCURVE",
"192 498 OFFCURVE",
"192 513 CURVE SMOOTH",
"192 540 OFFCURVE",
"209 564 OFFCURVE",
"246 564 CURVE SMOOTH",
"272 564 OFFCURVE",
"304 547 OFFCURVE",
"304 494 CURVE SMOOTH",
"304 488 OFFCURVE",
"304 481 OFFCURVE",
"303 473 CURVE",
"345 385 LINE"
);
},
{
closed = 1;
nodes = (
"408 473 LINE",
"407 481 OFFCURVE",
"407 488 OFFCURVE",
"407 494 CURVE SMOOTH",
"407 547 OFFCURVE",
"439 564 OFFCURVE",
"465 564 CURVE SMOOTH",
"505 564 OFFCURVE",
"522 541 OFFCURVE",
"522 513 CURVE SMOOTH",
"522 500 OFFCURVE",
"514 477 OFFCURVE",
"505 467 CURVE",
"592 420 LINE",
"615 449 OFFCURVE",
"628 487 OFFCURVE",
"628 519 CURVE SMOOTH",
"628 606 OFFCURVE",
"569 676 OFFCURVE",
"470 676 CURVE SMOOTH",
"387 676 OFFCURVE",
"307 608 OFFCURVE",
"307 532 CURVE",
"356 385 LINE"
);
}
);
width = 694;
}
);
unicode = 0D9D;
}
{
glyphname = sinHa;
layers = (
{
layerId = "6114C541-D024-4A3E-9713-6FAF49EAB318";
paths = (
{
closed = 1;
nodes = (
"634 0 OFFCURVE",
"731 79 OFFCURVE",
"731 332 CURVE SMOOTH",
"731 599 OFFCURVE",
"619 665 OFFCURVE",
"497 665 CURVE SMOOTH",
"324 665 OFFCURVE",
"314 545 OFFCURVE",
"295 437 CURVE SMOOTH",
"285 377 OFFCURVE",
"272 321 OFFCURVE",
"226 290 CURVE",
"294 206 LINE",
"377 252 OFFCURVE",
"386 345 OFFCURVE",
"400 422 CURVE SMOOTH",
"412 489 OFFCURVE",
"427 544 OFFCURVE",
"497 544 CURVE SMOOTH",
"554 544 OFFCURVE",
"610 500 OFFCURVE",
"610 332 CURVE SMOOTH",
"610 171 OFFCURVE",
"565 118 OFFCURVE",
"516 118 CURVE SMOOTH",
"469 118 OFFCURVE",
"452 161 OFFCURVE",
"446 180 CURVE",
"372 98 LINE",
"383 57 OFFCURVE",
"430 0 OFFCURVE",
"516 0 CURVE SMOOTH"
);
},
{
closed = 1;
nodes = (
"414 0 OFFCURVE",
"464 113 OFFCURVE",
"464 190 CURVE SMOOTH",
"464 288 OFFCURVE",
"406 326 OFFCURVE",
"340 326 CURVE SMOOTH",
"314 326 OFFCURVE",
"288 320 OFFCURVE",
"263 310 CURVE",
"313 218 LINE",
"316 221 OFFCURVE",
"321 223 OFFCURVE",
"327 223 CURVE SMOOTH",
"342 223 OFFCURVE",
"344 205 OFFCURVE",
"344 193 CURVE SMOOTH",
"344 160 OFFCURVE",
"325 122 OFFCURVE",
"249 122 CURVE SMOOTH",
"163 122 OFFCURVE",
"137 189 OFFCURVE",
"137 246 CURVE SMOOTH",
"137 300 OFFCURVE",
"163 362 OFFCURVE",
"215 362 CURVE SMOOTH",
"361 362 LINE",
"377 473 LINE",
"195 473 LINE SMOOTH",
"156 473 OFFCURVE",
"122 455 OFFCURVE",
"95 433 CURVE SMOOTH",
"47 391 OFFCURVE",
"25 327 OFFCURVE",
"25 236 CURVE SMOOTH",
"25 116 OFFCURVE",
"106 0 OFFCURVE",
"249 0 CURVE SMOOTH"
);
},
{
closed = 1;
nodes = (
"176 467 LINE",
"167 477 OFFCURVE",
"160 500 OFFCURVE",
"160 513 CURVE SMOOTH",
"160 541 OFFCURVE",
"176 564 OFFCURVE",
"216 564 CURVE SMOOTH",
"242 564 OFFCURVE",
"275 547 OFFCURVE",
"275 494 CURVE SMOOTH",
"275 488 OFFCURVE",
"274 480 OFFCURVE",
"273 473 CURVE",
"361 362 LINE",
"375 410 OFFCURVE",
"380 443 OFFCURVE",
"380 493 CURVE SMOOTH",
"380 519 OFFCURVE",
"374 545 OFFCURVE",
"372 550 CURVE",
"350 633 OFFCURVE",
"283 676 OFFCURVE",
"211 676 CURVE SMOOTH",
"113 676 OFFCURVE",
"53 606 OFFCURVE",
"53 519 CURVE SMOOTH",
"53 487 OFFCURVE",
"66 449 OFFCURVE",
"89 420 CURVE"
);
}
);
width = 755;
},
{
layerId = "CC11FE7D-5FF0-4B40-9597-DFC61EB94F41";
paths = (
{
closed = 1;
nodes = (
"585 3 OFFCURVE",
"678 65 OFFCURVE",
"678 332 CURVE SMOOTH",
"678 601 OFFCURVE",
"584 661 OFFCURVE",
"479 661 CURVE SMOOTH",
"345 661 OFFCURVE",
"309 545 OFFCURVE",
"309 419 CURVE SMOOTH",
"309 369 OFFCURVE",
"303 301 OFFCURVE",
"249 271 CURVE",
"262 238 LINE",
"343 273 OFFCURVE",
"352 354 OFFCURVE",
"352 413 CURVE SMOOTH",
"352 518 OFFCURVE",
"371 619 OFFCURVE",
"479 619 CURVE SMOOTH",
"563 619 OFFCURVE",
"636 566 OFFCURVE",
"636 332 CURVE SMOOTH",
"636 99 OFFCURVE",
"563 45 OFFCURVE",
"487 45 CURVE SMOOTH",
"427 45 OFFCURVE",
"390 94 OFFCURVE",
"387 140 CURVE",
"360 80 LINE",
"382 36 OFFCURVE",
"423 3 OFFCURVE",
"487 3 CURVE SMOOTH"
);
},
{
closed = 1;
nodes = (
"368 3 OFFCURVE",
"417 98 OFFCURVE",
"417 180 CURVE SMOOTH",
"417 253 OFFCURVE",
"385 297 OFFCURVE",
"333 297 CURVE SMOOTH",
"317 297 OFFCURVE",
"298 293 OFFCURVE",
"278 283 CURVE",
"289 253 LINE",
"302 260 OFFCURVE",
"314 264 OFFCURVE",
"325 264 CURVE SMOOTH",
"358 264 OFFCURVE",
"375 228 OFFCURVE",
"375 180 CURVE SMOOTH",
"375 117 OFFCURVE",
"337 46 OFFCURVE",
"236 46 CURVE SMOOTH",
"133 46 OFFCURVE",
"80 115 OFFCURVE",
"80 239 CURVE SMOOTH",
"80 299 OFFCURVE",
"92 420 OFFCURVE",
"188 420 CURVE SMOOTH",
"325 420 LINE",
"334 461 LINE",
"186 461 LINE SMOOTH",
"157 461 OFFCURVE",
"134 453 OFFCURVE",
"115 439 CURVE SMOOTH",
"55 396 OFFCURVE",
"38 314 OFFCURVE",
"38 239 CURVE SMOOTH",
"38 93 OFFCURVE",
"106 3 OFFCURVE",
"236 3 CURVE SMOOTH"
);
},
{
closed = 1;
nodes = (
"159 435 LINE",
"129 457 OFFCURVE",
"109 498 OFFCURVE",
"109 539 CURVE SMOOTH",
"109 603 OFFCURVE",
"157 634 OFFCURVE",
"203 634 CURVE SMOOTH",
"258 634 OFFCURVE",
"306 597 OFFCURVE",
"306 517 CURVE SMOOTH",
"306 497 OFFCURVE",
"306 479 OFFCURVE",
"305 460 CURVE",
"325 420 LINE",
"337 453 OFFCURVE",
"345 480 OFFCURVE",
"345 517 CURVE SMOOTH",
"345 531 OFFCURVE",
"344 543 OFFCURVE",
"341 555 CURVE SMOOTH",
"327 636 OFFCURVE",
"267 673 OFFCURVE",
"203 673 CURVE SMOOTH",
"139 673 OFFCURVE",
"71 629 OFFCURVE",
"71 539 CURVE SMOOTH",
"71 489 OFFCURVE",
"94 439 OFFCURVE",
"130 411 CURVE"
);
}
);
width = 716;
}
);
unicode = 0DC4;
}
{
glyphname = sinI;
layers = (
{
layerId = "6114C541-D024-4A3E-9713-6FAF49EAB318";
paths = (
{
closed = 1;
nodes = (
"131 -125 CURVE",
"219 -66 LINE",
"245 -100 OFFCURVE",
"272 -114 OFFCURVE",
"296 -114 CURVE SMOOTH",
"331 -114 OFFCURVE",
"357 -85 OFFCURVE",
"357 -53 CURVE SMOOTH",
"357 -25 OFFCURVE",
"346 14 OFFCURVE",
"278 14 CURVE SMOOTH",
"269 14 OFFCURVE",
"259 14 OFFCURVE",
"247 12 CURVE",
"262 79 LINE",
"387 61 LINE SMOOTH",
"445 55 OFFCURVE",
"479 0 OFFCURVE",
"479 -58 CURVE SMOOTH",
"479 -165 OFFCURVE",
"398 -232 OFFCURVE",
"308 -232 CURVE SMOOTH",
"246 -232 OFFCURVE",
"179 -199 OFFCURVE"
);
},
{
closed = 1;
nodes = (
"26 403 CURVE SMOOTH",
"26 542 OFFCURVE",
"120 676 OFFCURVE",
"300 676 CURVE SMOOTH",
"480 676 OFFCURVE",
"611 564 OFFCURVE",
"611 338 CURVE SMOOTH",
"611 148 OFFCURVE",
"492 51 OFFCURVE",
"403 39 CURVE SMOOTH",
"330 29 OFFCURVE",
"303 23 OFFCURVE",
"247 12 CURVE",
"245 121 LINE",
"345 121 OFFCURVE",
"480 147 OFFCURVE",
"480 338 CURVE SMOOTH",
"480 473 OFFCURVE",
"408 549 OFFCURVE",
"300 549 CURVE SMOOTH",
"182 549 OFFCURVE",
"134 489 OFFCURVE",
"134 427 CURVE SMOOTH",
"134 426 OFFCURVE",
"146 340 OFFCURVE",
"146 339 CURVE SMOOTH",
"143 241 LINE",
"59 265 LINE",
"36 308 OFFCURVE",
"26 356 OFFCURVE"
);
},
{
closed = 1;
nodes = (
"158 336 CURVE SMOOTH",
"158 308 OFFCURVE",
"181 286 OFFCURVE",
"208 286 CURVE SMOOTH",
"236 286 OFFCURVE",
"258 308 OFFCURVE",
"258 336 CURVE SMOOTH",
"258 363 OFFCURVE",
"236 385 OFFCURVE",
"208 385 CURVE SMOOTH",
"181 385 OFFCURVE",
"158 363 OFFCURVE"
);
},
{
closed = 1;
nodes = (
"42 340 CURVE SMOOTH",
"42 382 OFFCURVE",
"77 410 OFFCURVE",
"126 440 CURVE",
"150 477 OFFCURVE",
"191 493 OFFCURVE",
"232 493 CURVE SMOOTH",
"272 493 OFFCURVE",
"311 478 OFFCURVE",
"334 453 CURVE SMOOTH",
"361 423 OFFCURVE",
"378 383 OFFCURVE",
"378 340 CURVE SMOOTH",
"378 246 OFFCURVE",
"303 172 OFFCURVE",
"210 172 CURVE SMOOTH",
"128 172 OFFCURVE",
"60 230 OFFCURVE",
"45 307 CURVE SMOOTH",
"43 318 OFFCURVE",
"42 329 OFFCURVE"
);
}
);
width = 647;
},
{
layerId = "CC11FE7D-5FF0-4B40-9597-DFC61EB94F41";
paths = (
{
closed = 1;
nodes = (
"152 -157 CURVE",
"184 -130 LINE",
"215 -169 OFFCURVE",
"253 -186 OFFCURVE",
"288 -186 CURVE SMOOTH",
"355 -186 OFFCURVE",
"394 -139 OFFCURVE",
"394 -80 CURVE SMOOTH",
"394 -32 OFFCURVE",
"382 23 OFFCURVE",
"286 31 CURVE SMOOTH",
"278 32 OFFCURVE",
"269 32 OFFCURVE",
"260 32 CURVE",
"286 64 LINE",
"338 51 LINE",
"387 49 OFFCURVE",
"436 7 OFFCURVE",
"436 -80 CURVE SMOOTH",
"436 -162 OFFCURVE",
"381 -228 OFFCURVE",
"288 -228 CURVE SMOOTH",
"242 -228 OFFCURVE",
"192 -206 OFFCURVE"
);
},
{
closed = 1;
nodes = (
"48 427 CURVE SMOOTH",
"48 542 OFFCURVE",
"125 673 OFFCURVE",
"306 673 CURVE SMOOTH",
"454 673 OFFCURVE",
"576 586 OFFCURVE",
"576 366 CURVE SMOOTH",
"576 185 OFFCURVE",
"479 80 OFFCURVE",
"344 44 CURVE SMOOTH",
"317 37 OFFCURVE",
"289 33 OFFCURVE",
"260 32 CURVE",
"259 75 LINE",
"376 75 OFFCURVE",
"534 155 OFFCURVE",
"534 366 CURVE SMOOTH",
"534 556 OFFCURVE",
"432 630 OFFCURVE",
"306 630 CURVE SMOOTH",
"162 630 OFFCURVE",
"86 532 OFFCURVE",
"86 427 CURVE SMOOTH",
"86 344 OFFCURVE",
"126 282 OFFCURVE",
"126 282 CURVE",
"140 248 LINE",
"102 254 LINE",
"66 296 OFFCURVE",
"48 349 OFFCURVE"
);
},
{
closed = 1;
nodes = (
"110 341 CURVE SMOOTH",
"110 286 OFFCURVE",
"155 242 OFFCURVE",
"210 242 CURVE SMOOTH",
"265 242 OFFCURVE",
"310 286 OFFCURVE",
"310 341 CURVE SMOOTH",
"310 397 OFFCURVE",
"265 441 OFFCURVE",
"210 441 CURVE SMOOTH",
"155 441 OFFCURVE",
"110 397 OFFCURVE"
);
},
{
closed = 1;
nodes = (
"75 314 CURVE SMOOTH",
"75 323 OFFCURVE",
"76 332 OFFCURVE",
"76 341 CURVE SMOOTH",
"76 418 OFFCURVE",
"128 482 OFFCURVE",
"210 482 CURVE SMOOTH",
"241 482 OFFCURVE",
"269 472 OFFCURVE",
"292 455 CURVE SMOOTH",
"327 429 OFFCURVE",
"349 388 OFFCURVE",
"349 342 CURVE SMOOTH",
"349 265 OFFCURVE",
"287 203 OFFCURVE",
"210 203 CURVE SMOOTH",
"149 203 OFFCURVE",
"97 241 OFFCURVE",
"77 296 CURVE SMOOTH",
"75 302 OFFCURVE",
"75 308 OFFCURVE"
);
}
);
width = 616;
},
{
associatedMasterId = "CC11FE7D-5FF0-4B40-9597-DFC61EB94F41";
layerId = "11EB7187-2A80-453C-918C-EBE0AA7CB21E";
name = "Jun 9 21, 07:34";
paths = (
{
closed = 1;
nodes = (
"122 -157 CURVE",
"154 -130 LINE",
"185 -169 OFFCURVE",
"223 -186 OFFCURVE",
"258 -186 CURVE SMOOTH",
"325 -186 OFFCURVE",
"364 -139 OFFCURVE",
"364 -80 CURVE SMOOTH",
"364 -32 OFFCURVE",
"352 23 OFFCURVE",
"256 31 CURVE SMOOTH",
"248 32 OFFCURVE",
"239 32 OFFCURVE",
"230 32 CURVE",
"256 64 LINE",
"308 51 LINE",
"357 49 OFFCURVE",
"406 7 OFFCURVE",
"406 -80 CURVE SMOOTH",
"406 -162 OFFCURVE",
"351 -228 OFFCURVE",
"258 -228 CURVE SMOOTH",
"212 -228 OFFCURVE",
"162 -206 OFFCURVE"
);
},
{
closed = 1;
nodes = (
"38 427 CURVE SMOOTH",
"38 542 OFFCURVE",
"115 673 OFFCURVE",
"286 673 CURVE SMOOTH",
"424 673 OFFCURVE",
"546 586 OFFCURVE",
"546 366 CURVE SMOOTH",
"546 185 OFFCURVE",
"449 80 OFFCURVE",
"314 44 CURVE SMOOTH",
"287 37 OFFCURVE",
"259 33 OFFCURVE",
"230 32 CURVE",
"229 75 LINE",
"346 75 OFFCURVE",
"504 155 OFFCURVE",
"504 366 CURVE SMOOTH",
"504 556 OFFCURVE",
"402 630 OFFCURVE",
"286 630 CURVE SMOOTH",
"152 630 OFFCURVE",
"76 532 OFFCURVE",
"76 427 CURVE SMOOTH",
"76 344 OFFCURVE",
"116 282 OFFCURVE",
"116 282 CURVE",
"130 248 LINE",
"92 254 LINE",
"56 296 OFFCURVE",
"38 349 OFFCURVE"
);
},
{
closed = 1;
nodes = (
"100 341 CURVE SMOOTH",
"100 286 OFFCURVE",
"145 242 OFFCURVE",
"200 242 CURVE SMOOTH",
"255 242 OFFCURVE",
"300 286 OFFCURVE",
"300 341 CURVE SMOOTH",
"300 397 OFFCURVE",
"255 441 OFFCURVE",
"200 441 CURVE SMOOTH",
"145 441 OFFCURVE",
"100 397 OFFCURVE"
);
},
{
closed = 1;
nodes = (
"65 314 CURVE SMOOTH",
"65 323 OFFCURVE",
"66 332 OFFCURVE",
"66 341 CURVE",
"66 418 OFFCURVE",
"118 482 OFFCURVE",
"200 482 CURVE SMOOTH",
"231 482 OFFCURVE",
"259 472 OFFCURVE",
"282 455 CURVE SMOOTH",
"317 429 OFFCURVE",
"339 388 OFFCURVE",
"339 342 CURVE SMOOTH",
"339 265 OFFCURVE",
"277 203 OFFCURVE",
"200 203 CURVE SMOOTH",
"139 203 OFFCURVE",
"87 241 OFFCURVE",
"67 296 CURVE SMOOTH",
"65 302 OFFCURVE",
"65 308 OFFCURVE"
);
}
);
width = 584;
},
{
layerId = "700B375B-E5F6-4156-8225-245C9DB4E923";
paths = (
{
closed = 1;
nodes = (
"131 -125 CURVE",
"219 -66 LINE",
"245 -100 OFFCURVE",
"272 -114 OFFCURVE",
"296 -114 CURVE SMOOTH",
"331 -114 OFFCURVE",
"357 -85 OFFCURVE",
"357 -53 CURVE SMOOTH",
"357 -25 OFFCURVE",
"346 14 OFFCURVE",
"278 14 CURVE SMOOTH",
"269 14 OFFCURVE",
"259 14 OFFCURVE",
"247 12 CURVE",
"262 79 LINE",
"387 61 LINE SMOOTH",
"445 55 OFFCURVE",
"479 0 OFFCURVE",
"479 -58 CURVE SMOOTH",
"479 -165 OFFCURVE",
"398 -232 OFFCURVE",
"308 -232 CURVE SMOOTH",
"246 -232 OFFCURVE",
"179 -199 OFFCURVE"
);
},
{
closed = 1;
nodes = (
"26 403 CURVE SMOOTH",
"26 542 OFFCURVE",
"120 676 OFFCURVE",
"300 676 CURVE SMOOTH",
"480 676 OFFCURVE",
"611 564 OFFCURVE",
"611 338 CURVE SMOOTH",
"611 148 OFFCURVE",
"492 51 OFFCURVE",
"403 39 CURVE SMOOTH",
"330 29 OFFCURVE",
"303 23 OFFCURVE",
"247 12 CURVE",
"245 121 LINE",
"345 121 OFFCURVE",
"480 147 OFFCURVE",
"480 338 CURVE SMOOTH",
"480 473 OFFCURVE",
"408 549 OFFCURVE",
"300 549 CURVE SMOOTH",
"182 549 OFFCURVE",
"134 489 OFFCURVE",
"134 427 CURVE SMOOTH",
"134 426 OFFCURVE",
"146 340 OFFCURVE",
"146 339 CURVE SMOOTH",
"143 241 LINE",
"59 265 LINE",
"36 308 OFFCURVE",
"26 356 OFFCURVE"
);
},
{
closed = 1;
nodes = (
"158 336 CURVE SMOOTH",
"158 308 OFFCURVE",
"181 286 OFFCURVE",
"208 286 CURVE SMOOTH",
"236 286 OFFCURVE",
"258 308 OFFCURVE",
"258 336 CURVE SMOOTH",
"258 363 OFFCURVE",
"236 385 OFFCURVE",
"208 385 CURVE SMOOTH",
"181 385 OFFCURVE",
"158 363 OFFCURVE"
);
},
{
closed = 1;
nodes = (
"42 340 CURVE SMOOTH",
"42 382 OFFCURVE",
"77 410 OFFCURVE",
"126 440 CURVE",
"150 477 OFFCURVE",
"191 493 OFFCURVE",
"232 493 CURVE SMOOTH",
"272 493 OFFCURVE",
"311 478 OFFCURVE",
"334 453 CURVE SMOOTH",
"361 423 OFFCURVE",
"378 383 OFFCURVE",
"378 340 CURVE SMOOTH",
"378 246 OFFCURVE",
"303 172 OFFCURVE",
"210 172 CURVE SMOOTH",
"128 172 OFFCURVE",
"60 230 OFFCURVE",
"45 307 CURVE SMOOTH",
"43 318 OFFCURVE",
"42 329 OFFCURVE"
);
}
);
width = 647;
}
);
unicode = 0D89;
}
{
glyphname = sinIi;
layers = (
{
components = (
{
name = sinRa;
}
);
layerId = "6114C541-D024-4A3E-9713-6FAF49EAB318";
paths = (
{
closed = 1;
nodes = (
"540 641 OFFCURVE",
"570 671 OFFCURVE",
"570 708 CURVE SMOOTH",
"570 744 OFFCURVE",
"540 774 OFFCURVE",
"504 774 CURVE SMOOTH",
"467 774 OFFCURVE",
"438 744 OFFCURVE",
"438 708 CURVE SMOOTH",
"438 671 OFFCURVE",
"467 641 OFFCURVE",
"504 641 CURVE SMOOTH"
);
},
{
closed = 1;
nodes = (
"190 732 OFFCURVE",
"220 762 OFFCURVE",
"220 799 CURVE SMOOTH",
"220 835 OFFCURVE",
"190 865 OFFCURVE",
"154 865 CURVE SMOOTH",
"117 865 OFFCURVE",
"88 835 OFFCURVE",
"88 799 CURVE SMOOTH",
"88 762 OFFCURVE",
"117 732 OFFCURVE",
"154 732 CURVE SMOOTH"
);
}
);
width = 572;
},
{
components = (
{
name = sinRa;
}
);
layerId = "CC11FE7D-5FF0-4B40-9597-DFC61EB94F41";
paths = (
{
closed = 1;
nodes = (
"459 660 OFFCURVE",
"476 678 OFFCURVE",
"476 699 CURVE SMOOTH",
"476 721 OFFCURVE",
"459 739 OFFCURVE",
"437 739 CURVE SMOOTH",
"415 739 OFFCURVE",
"398 721 OFFCURVE",
"398 699 CURVE SMOOTH",
"398 678 OFFCURVE",
"415 660 OFFCURVE",
"437 660 CURVE SMOOTH"
);
},
{
closed = 1;
nodes = (
"212 750 OFFCURVE",
"229 768 OFFCURVE",
"229 789 CURVE SMOOTH",
"229 811 OFFCURVE",
"212 829 OFFCURVE",
"190 829 CURVE SMOOTH",
"168 829 OFFCURVE",
"151 811 OFFCURVE",
"151 789 CURVE SMOOTH",
"151 768 OFFCURVE",
"168 750 OFFCURVE",
"190 750 CURVE SMOOTH"
);
}
);
width = 565;
}
);
unicode = 0D8A;
}
{
glyphname = sinJa;
layers = (
{
layerId = "6114C541-D024-4A3E-9713-6FAF49EAB318";
paths = (
{
closed = 1;
nodes = (
"413 655 LINE",
"538 783 OFFCURVE",
"545 824 OFFCURVE",
"545 887 CURVE",
"670 887 LINE",
"670 775 OFFCURVE",
"613 702 OFFCURVE",
"525 611 CURVE"
);
},
{
closed = 1;
nodes = (
"278 532 CURVE SMOOTH",
"278 538 OFFCURVE",
"278 544 OFFCURVE",
"280 550 CURVE SMOOTH",
"302 633 OFFCURVE",
"369 676 OFFCURVE",
"441 676 CURVE SMOOTH",
"539 676 OFFCURVE",
"599 606 OFFCURVE",
"599 519 CURVE SMOOTH",
"599 487 OFFCURVE",
"586 449 OFFCURVE",
"563 420 CURVE",
"476 467 LINE",
"485 477 OFFCURVE",
"492 500 OFFCURVE",
"492 513 CURVE SMOOTH",
"492 541 OFFCURVE",
"476 564 OFFCURVE",
"436 564 CURVE SMOOTH",
"410 564 OFFCURVE",
"377 547 OFFCURVE",
"377 494 CURVE SMOOTH",
"377 488 OFFCURVE",
"378 481 OFFCURVE",
"379 473 CURVE",
"326 362 LINE",
"312 409 OFFCURVE",
"278 484 OFFCURVE"
);
},
{
closed = 1;
nodes = (
"147 255 CURVE SMOOTH",
"147 164 OFFCURVE",
"236 119 OFFCURVE",
"326 119 CURVE SMOOTH",
"416 119 OFFCURVE",
"506 164 OFFCURVE",
"506 255 CURVE SMOOTH",
"506 314 OFFCURVE",
"475 362 OFFCURVE",
"412 362 CURVE SMOOTH",
"241 362 LINE SMOOTH",
"178 362 OFFCURVE",
"147 314 OFFCURVE"
);
},
{
closed = 1;
nodes = (
"25 255 CURVE SMOOTH",
"25 375 OFFCURVE",
"95 473 OFFCURVE",
"234 473 CURVE SMOOTH",
"419 473 LINE SMOOTH",
"558 473 OFFCURVE",
"628 375 OFFCURVE",
"628 255 CURVE SMOOTH",
"628 76 OFFCURVE",
"477 -14 OFFCURVE",
"326 -14 CURVE SMOOTH",
"176 -14 OFFCURVE",
"25 76 OFFCURVE"
);
},
{
closed = 1;
nodes = (
"54 519 CURVE SMOOTH",
"54 606 OFFCURVE",
"113 676 OFFCURVE",
"212 676 CURVE SMOOTH",
"283 676 OFFCURVE",
"350 633 OFFCURVE",
"373 550 CURVE SMOOTH",
"374 544 OFFCURVE",
"375 538 OFFCURVE",
"375 532 CURVE SMOOTH",
"375 484 OFFCURVE",
"341 409 OFFCURVE",
"326 362 CURVE",
"273 473 LINE",
"275 481 OFFCURVE",
"275 488 OFFCURVE",
"275 494 CURVE SMOOTH",
"275 547 OFFCURVE",
"242 564 OFFCURVE",
"216 564 CURVE SMOOTH",
"176 564 OFFCURVE",
"160 541 OFFCURVE",
"160 513 CURVE SMOOTH",
"160 500 OFFCURVE",
"168 477 OFFCURVE",
"177 467 CURVE",
"90 420 LINE",
"67 449 OFFCURVE",
"54 487 OFFCURVE"
);
}
);
width = 644;
},
{
layerId = "CC11FE7D-5FF0-4B40-9597-DFC61EB94F41";
paths = (
{
closed = 1;
nodes = (
"470 654 LINE",
"551 737 OFFCURVE",
"607 803 OFFCURVE",
"607 883 CURVE",
"648 883 LINE",
"648 795 OFFCURVE",
"590 720 OFFCURVE",
"503 629 CURVE"
);
},
{
closed = 1;
nodes = (
"309 517 CURVE SMOOTH",
"309 531 OFFCURVE",
"310 543 OFFCURVE",
"313 555 CURVE SMOOTH",
"327 636 OFFCURVE",
"387 673 OFFCURVE",
"451 673 CURVE SMOOTH",
"515 673 OFFCURVE",
"583 629 OFFCURVE",
"583 539 CURVE SMOOTH",
"583 489 OFFCURVE",
"560 439 OFFCURVE",
"524 411 CURVE",
"495 435 LINE",
"525 457 OFFCURVE",
"545 498 OFFCURVE",
"545 539 CURVE SMOOTH",
"545 603 OFFCURVE",
"497 634 OFFCURVE",
"451 634 CURVE SMOOTH",
"396 634 OFFCURVE",
"348 597 OFFCURVE",
"348 517 CURVE SMOOTH",
"348 495 OFFCURVE",
"348 473 OFFCURVE",
"348 457 CURVE",
"329 420 LINE",
"318 453 OFFCURVE",
"309 480 OFFCURVE"
);
},
{
closed = 1;
nodes = (
"80 255 CURVE SMOOTH",
"80 122 OFFCURVE",
"178 34 OFFCURVE",
"329 34 CURVE SMOOTH",
"480 34 OFFCURVE",
"578 122 OFFCURVE",
"578 255 CURVE SMOOTH",
"578 341 OFFCURVE",
"534 415 OFFCURVE",
"438 415 CURVE SMOOTH",
"219 415 LINE SMOOTH",
"123 415 OFFCURVE",
"80 341 OFFCURVE"
);
},
{
closed = 1;
nodes = (
"38 255 CURVE SMOOTH",
"38 364 OFFCURVE",
"98 457 OFFCURVE",
"219 457 CURVE SMOOTH",
"438 457 LINE SMOOTH",
"560 457 OFFCURVE",
"620 363 OFFCURVE",
"620 255 CURVE SMOOTH",
"620 96 OFFCURVE",
"506 -8 OFFCURVE",
"329 -8 CURVE SMOOTH",
"152 -8 OFFCURVE",
"38 97 OFFCURVE"
);
},
{
closed = 1;
nodes = (
"74 539 CURVE SMOOTH",
"74 629 OFFCURVE",
"142 673 OFFCURVE",
"206 673 CURVE SMOOTH",
"270 673 OFFCURVE",
"330 636 OFFCURVE",
"345 555 CURVE SMOOTH",
"347 543 OFFCURVE",
"348 531 OFFCURVE",
"348 517 CURVE SMOOTH",
"348 480 OFFCURVE",
"340 453 OFFCURVE",
"329 420 CURVE",
"309 457 LINE",
"309 473 OFFCURVE",
"309 495 OFFCURVE",
"309 517 CURVE SMOOTH",
"309 597 OFFCURVE",
"261 634 OFFCURVE",
"206 634 CURVE SMOOTH",
"160 634 OFFCURVE",
"112 603 OFFCURVE",
"112 539 CURVE SMOOTH",
"112 498 OFFCURVE",
"132 457 OFFCURVE",
"163 435 CURVE",
"133 411 LINE",
"97 439 OFFCURVE",
"74 489 OFFCURVE"
);
}
);
width = 686;
}
);
unicode = 0DA2;
}
{
glyphname = sinJha;
layers = (
{
components = (
{
name = sinKa.half;
}
);
layerId = "6114C541-D024-4A3E-9713-6FAF49EAB318";
paths = (
{
closed = 1;
nodes = (
"787 0 OFFCURVE",
"832 36 OFFCURVE",
"851 90 CURVE",
"868 38 OFFCURVE",
"911 0 OFFCURVE",
"974 0 CURVE SMOOTH",
"1169 0 OFFCURVE",
"1170 207 OFFCURVE",
"1170 333 CURVE SMOOTH",
"1170 682 OFFCURVE",
"1080 859 OFFCURVE",
"833 859 CURVE SMOOTH",
"734 859 OFFCURVE",
"629 806 OFFCURVE",
"589 698 CURVE",
"713 656 LINE",
"732 704 OFFCURVE",
"786 728 OFFCURVE",
"833 728 CURVE SMOOTH",
"990 728 OFFCURVE",
"1039 595 OFFCURVE",
"1039 333 CURVE SMOOTH",
"1039 273 OFFCURVE",
"1039 131 OFFCURVE",
"974 131 CURVE SMOOTH",
"925 131 OFFCURVE",
"908 201 OFFCURVE",
"908 284 CURVE",
"799 284 LINE",
"799 204 OFFCURVE",
"782 130 OFFCURVE",
"734 130 CURVE SMOOTH",
"696 130 OFFCURVE",
"685 199 OFFCURVE",
"685 261 CURVE SMOOTH",
"685 298 OFFCURVE",
"689 332 OFFCURVE",
"694 348 CURVE SMOOTH",
"704 383 OFFCURVE",
"727 406 OFFCURVE",
"758 406 CURVE SMOOTH",
"771 406 OFFCURVE",
"785 402 OFFCURVE",
"801 393 CURVE",
"844 507 LINE",
"812 529 OFFCURVE",
"779 537 OFFCURVE",
"747 537 CURVE SMOOTH",
"665 537 OFFCURVE",
"602 481 OFFCURVE",
"574 393 CURVE SMOOTH",
"565 364 OFFCURVE",
"558 316 OFFCURVE",
"558 263 CURVE SMOOTH",
"558 144 OFFCURVE",
"595 0 OFFCURVE",
"727 0 CURVE SMOOTH"
);
}
);
width = 1207;
},
{
components = (
{
name = sinKa.half;
}
);
layerId = "CC11FE7D-5FF0-4B40-9597-DFC61EB94F41";
paths = (
{
closed = 1;
nodes = (
"800 3 OFFCURVE",
"822 97 OFFCURVE",
"826 131 CURVE",
"831 97 OFFCURVE",
"852 3 OFFCURVE",
"961 3 CURVE SMOOTH",
"1105 3 OFFCURVE",
"1116 165 OFFCURVE",
"1116 333 CURVE SMOOTH",
"1116 685 OFFCURVE",
"1018 852 OFFCURVE",
"815 852 CURVE SMOOTH",
"718 852 OFFCURVE",
"623 788 OFFCURVE",
"591 703 CURVE",
"630 688 LINE",
"656 758 OFFCURVE",
"734 810 OFFCURVE",
"815 810 CURVE SMOOTH",
"989 810 OFFCURVE",
"1074 657 OFFCURVE",
"1074 333 CURVE SMOOTH",
"1074 187 OFFCURVE",
"1066 46 OFFCURVE",
"961 46 CURVE SMOOTH",
"857 46 OFFCURVE",
"849 169 OFFCURVE",
"846 255 CURVE",
"807 255 LINE",
"803 169 OFFCURVE",
"796 46 OFFCURVE",
"692 46 CURVE SMOOTH",
"615 46 OFFCURVE",
"590 149 OFFCURVE",
"590 244 CURVE SMOOTH",
"590 294 OFFCURVE",
"600 340 OFFCURVE",
"616 377 CURVE SMOOTH",
"641 432 OFFCURVE",
"681 467 OFFCURVE",
"725 467 CURVE SMOOTH",
"741 467 OFFCURVE",
"756 463 OFFCURVE",
"772 455 CURVE",
"790 492 LINE",
"768 503 OFFCURVE",
"747 508 OFFCURVE",
"725 508 CURVE SMOOTH",
"668 508 OFFCURVE",
"614 467 OFFCURVE",
"581 398 CURVE SMOOTH",
"560 356 OFFCURVE",
"548 303 OFFCURVE",
"548 244 CURVE SMOOTH",
"548 132 OFFCURVE",
"581 3 OFFCURVE",
"692 3 CURVE SMOOTH"
);
}
);
width = 1152;
},
{
components = (
{
name = sinKa.half;
}
);
layerId = "700B375B-E5F6-4156-8225-245C9DB4E923";
paths = (
{
closed = 1;
nodes = (
"787 0 OFFCURVE",
"832 36 OFFCURVE",
"851 90 CURVE",
"868 38 OFFCURVE",
"911 0 OFFCURVE",
"974 0 CURVE SMOOTH",
"1169 0 OFFCURVE",
"1170 207 OFFCURVE",
"1170 333 CURVE SMOOTH",
"1170 682 OFFCURVE",
"1080 859 OFFCURVE",
"833 859 CURVE SMOOTH",
"734 859 OFFCURVE",
"629 806 OFFCURVE",
"589 698 CURVE",
"713 656 LINE",
"732 704 OFFCURVE",
"786 728 OFFCURVE",
"833 728 CURVE SMOOTH",
"990 728 OFFCURVE",
"1039 595 OFFCURVE",
"1039 333 CURVE SMOOTH",
"1039 273 OFFCURVE",
"1039 131 OFFCURVE",
"974 131 CURVE SMOOTH",
"925 131 OFFCURVE",
"908 201 OFFCURVE",
"908 284 CURVE",
"799 284 LINE",
"799 204 OFFCURVE",
"782 130 OFFCURVE",
"734 130 CURVE SMOOTH",
"696 130 OFFCURVE",
"685 199 OFFCURVE",
"685 261 CURVE SMOOTH",
"685 298 OFFCURVE",
"689 332 OFFCURVE",
"694 348 CURVE SMOOTH",
"704 383 OFFCURVE",
"727 406 OFFCURVE",
"758 406 CURVE SMOOTH",
"771 406 OFFCURVE",
"785 402 OFFCURVE",
"801 393 CURVE",
"844 507 LINE",
"812 529 OFFCURVE",
"779 537 OFFCURVE",
"747 537 CURVE SMOOTH",
"665 537 OFFCURVE",
"602 481 OFFCURVE",
"574 393 CURVE SMOOTH",
"565 364 OFFCURVE",
"558 316 OFFCURVE",
"558 263 CURVE SMOOTH",
"558 144 OFFCURVE",
"595 0 OFFCURVE",
"727 0 CURVE SMOOTH"
);
}
);
width = 1207;
}
);
unicode = 0DA3;
}
{
glyphname = sinJnya;
layers = (
{
layerId = "6114C541-D024-4A3E-9713-6FAF49EAB318";
paths = (
{
closed = 1;
nodes = (
"856 -66 CURVE SMOOTH",
"856 -36 OFFCURVE",
"864 -5 OFFCURVE",
"883 25 CURVE",
"985 51 LINE",
"997 5 LINE",
"984 -10 OFFCURVE",
"977 -30 OFFCURVE",
"977 -49 CURVE SMOOTH",
"977 -81 OFFCURVE",
"995 -110 OFFCURVE",
"1032 -110 CURVE SMOOTH",
"1060 -110 OFFCURVE",
"1090 -97 OFFCURVE",
"1116 -62 CURVE",
"1204 -121 LINE",
"1151 -200 OFFCURVE",
"1089 -230 OFFCURVE",
"1032 -230 CURVE SMOOTH",
"927 -230 OFFCURVE",
"856 -153 OFFCURVE"
);
},
{
closed = 1;
nodes = (
"705 247 CURVE SMOOTH",
"705 377 OFFCURVE",
"815 480 OFFCURVE",
"952 480 CURVE SMOOTH",
"974 480 OFFCURVE",
"987 478 OFFCURVE",
"1008 476 CURVE",
"1009 483 OFFCURVE",
"1009 490 OFFCURVE",
"1009 497 CURVE SMOOTH",
"1009 539 OFFCURVE",
"984 567 OFFCURVE",
"952 567 CURVE SMOOTH",
"918 567 OFFCURVE",
"900 543 OFFCURVE",
"900 516 CURVE SMOOTH",
"900 502 OFFCURVE",
"904 486 OFFCURVE",
"913 476 CURVE",
"825 431 LINE",
"803 460 OFFCURVE",
"794 490 OFFCURVE",
"794 522 CURVE SMOOTH",
"794 608 OFFCURVE",
"853 678 OFFCURVE",
"952 678 CURVE SMOOTH",
"1039 678 OFFCURVE",
"1121 614 OFFCURVE",
"1121 489 CURVE SMOOTH",
"1121 454 OFFCURVE",
"1113 406 OFFCURVE",
"1099 362 CURVE",
"952 362 LINE SMOOTH",
"888 362 OFFCURVE",
"833 312 OFFCURVE",
"833 247 CURVE SMOOTH",
"833 182 OFFCURVE",
"886 132 OFFCURVE",
"952 132 CURVE SMOOTH",
"992 132 OFFCURVE",
"1028 150 OFFCURVE",
"1051 177 CURVE",
"1149 106 LINE",
"1103 41 OFFCURVE",
"1032 0 OFFCURVE",
"952 0 CURVE SMOOTH",
"815 0 OFFCURVE",
"705 110 OFFCURVE"
);
},
{
closed = 1;
nodes = (
"454 342 LINE",
"508 376 OFFCURVE",
"511 412 OFFCURVE",
"511 446 CURVE SMOOTH",
"511 468 LINE",
"520 602 OFFCURVE",
"612 665 OFFCURVE",
"711 665 CURVE SMOOTH",
"810 665 OFFCURVE",
"880 607 OFFCURVE",
"901 505 CURVE",
"801 477 LINE",
"793 512 OFFCURVE",
"757 543 OFFCURVE",
"711 543 CURVE SMOOTH",
"650 543 OFFCURVE",
"631 509 OFFCURVE",
"627 443 CURVE SMOOTH",
"627 412 LINE SMOOTH",
"627 326 OFFCURVE",
"575 289 OFFCURVE",
"507 250 CURVE"
);
},
{
closed = 1;
nodes = (
"233 332 CURVE SMOOTH",
"233 586 OFFCURVE",
"329 665 OFFCURVE",
"447 665 CURVE SMOOTH",
"534 665 OFFCURVE",
"581 608 OFFCURVE",
"591 567 CURVE",
"517 485 LINE",
"512 504 OFFCURVE",
"495 544 OFFCURVE",
"447 544 CURVE SMOOTH",
"398 544 OFFCURVE",
"357 494 OFFCURVE",
"357 332 CURVE SMOOTH",
"357 164 OFFCURVE",
"410 122 OFFCURVE",
"466 122 CURVE SMOOTH",
"536 122 OFFCURVE",
"557 166 OFFCURVE",
"557 210 CURVE SMOOTH",
"557 249 OFFCURVE",
"539 263 OFFCURVE",
"525 269 CURVE",
"597 348 LINE",
"638 335 OFFCURVE",
"673 277 OFFCURVE",
"673 215 CURVE SMOOTH",
"673 108 OFFCURVE",
"615 0 OFFCURVE",
"466 0 CURVE SMOOTH",
"344 0 OFFCURVE",
"233 66 OFFCURVE"
);
},
{
closed = 1;
nodes = (
"36 323 CURVE SMOOTH",
"36 576 OFFCURVE",
"121 665 OFFCURVE",
"225 665 CURVE SMOOTH",
"304 665 OFFCURVE",
"347 600 OFFCURVE",
"357 554 CURVE",
"296 485 LINE",
"290 504 OFFCURVE",
"274 546 OFFCURVE",
"231 546 CURVE SMOOTH",
"192 546 OFFCURVE",
"157 484 OFFCURVE",
"157 323 CURVE SMOOTH",
"157 150 OFFCURVE",
"184 116 OFFCURVE",
"222 116 CURVE",
"222 0 LINE",
"113 0 OFFCURVE",
"36 53 OFFCURVE"
);
}
);
width = 1198;
},
{
layerId = "CC11FE7D-5FF0-4B40-9597-DFC61EB94F41";
paths = (
{
closed = 1;
nodes = (
"799 -65 CURVE SMOOTH",
"799 -28 OFFCURVE",
"807 2 OFFCURVE",
"836 39 CURVE",
"869 41 LINE",
"871 19 LINE",
"846 -10 OFFCURVE",
"841 -35 OFFCURVE",
"841 -65 CURVE SMOOTH",
"841 -127 OFFCURVE",
"887 -178 OFFCURVE",
"949 -178 CURVE SMOOTH",
"1010 -178 OFFCURVE",
"1049 -151 OFFCURVE",
"1081 -94 CURVE",
"1114 -120 LINE",
"1074 -187 OFFCURVE",
"1026 -219 OFFCURVE",
"949 -219 CURVE SMOOTH",
"859 -219 OFFCURVE",
"799 -147 OFFCURVE"
);
},
{
closed = 1;
nodes = (
"639 241 CURVE SMOOTH",
"639 356 OFFCURVE",
"722 468 OFFCURVE",
"863 468 CURVE SMOOTH",
"891 468 OFFCURVE",
"945 468 OFFCURVE",
"972 468 CURVE",
"975 480 OFFCURVE",
"978 499 OFFCURVE",
"978 517 CURVE SMOOTH",
"978 597 OFFCURVE",
"930 634 OFFCURVE",
"875 634 CURVE SMOOTH",
"829 634 OFFCURVE",
"781 603 OFFCURVE",
"781 539 CURVE SMOOTH",
"781 491 OFFCURVE",
"806 463 OFFCURVE",
"816 453 CURVE",
"789 428 LINE",
"775 440 OFFCURVE",
"743 477 OFFCURVE",
"743 539 CURVE SMOOTH",
"743 629 OFFCURVE",
"811 673 OFFCURVE",
"875 673 CURVE SMOOTH",
"949 673 OFFCURVE",
"1017 624 OFFCURVE",
"1017 517 CURVE SMOOTH",
"1017 483 OFFCURVE",
"1011 455 OFFCURVE",
"1001 426 CURVE",
"863 426 LINE SMOOTH",
"750 426 OFFCURVE",
"681 336 OFFCURVE",
"681 241 CURVE SMOOTH",
"681 116 OFFCURVE",
"774 48 OFFCURVE",
"868 48 CURVE SMOOTH",
"926 48 OFFCURVE",
"985 74 OFFCURVE",
"1022 130 CURVE",
"1056 104 LINE",
"1010 36 OFFCURVE",
"938 3 OFFCURVE",
"867 3 CURVE SMOOTH",
"752 3 OFFCURVE",
"639 88 OFFCURVE"
);
},
{
closed = 1;
nodes = (
"425 314 LINE",
"476 337 OFFCURVE",
"483 385 OFFCURVE",
"483 421 CURVE SMOOTH",
"482 456 LINE SMOOTH",
"482 584 OFFCURVE",
"556 661 OFFCURVE",
"642 661 CURVE SMOOTH",
"715 661 OFFCURVE",
"781 619 OFFCURVE",
"781 539 CURVE",
"743 539 LINE",
"743 586 OFFCURVE",
"696 619 OFFCURVE",
"642 619 CURVE SMOOTH",
"563 619 OFFCURVE",
"524 540 OFFCURVE",
"524 456 CURVE SMOOTH",
"525 422 LINE SMOOTH",
"525 374 OFFCURVE",
"516 310 OFFCURVE",
"439 281 CURVE"
);
},
{
closed = 1;
nodes = (
"202 314 CURVE SMOOTH",
"202 596 OFFCURVE",
"296 661 OFFCURVE",
"394 661 CURVE SMOOTH",
"477 661 OFFCURVE",
"523 604 OFFCURVE",
"534 538 CURVE",
"493 525 LINE",
"490 570 OFFCURVE",
"454 619 OFFCURVE",
"394 619 CURVE SMOOTH",
"318 619 OFFCURVE",
"245 562 OFFCURVE",
"245 314 CURVE SMOOTH",
"245 95 OFFCURVE",
"329 46 OFFCURVE",
"413 46 CURVE SMOOTH",
"511 46 OFFCURVE",
"548 127 OFFCURVE",
"548 198 CURVE SMOOTH",
"548 256 OFFCURVE",
"521 306 OFFCURVE",
"479 310 CURVE",
"498 343 LINE",
"539 340 OFFCURVE",
"590 284 OFFCURVE",
"590 198 CURVE SMOOTH",
"590 108 OFFCURVE",
"542 3 OFFCURVE",
"413 3 CURVE SMOOTH",
"307 3 OFFCURVE",
"202 60 OFFCURVE"
);
},
{
closed = 1;
nodes = (
"37 323 CURVE SMOOTH",
"37 588 OFFCURVE",
"106 659 OFFCURVE",
"171 659 CURVE SMOOTH",
"240 659 OFFCURVE",
"273 608 OFFCURVE",
"273 539 CURVE",
"235 539 LINE",
"234 594 OFFCURVE",
"206 617 OFFCURVE",
"171 617 CURVE SMOOTH",
"115 617 OFFCURVE",
"80 509 OFFCURVE",
"80 323 CURVE SMOOTH",
"80 130 OFFCURVE",
"126 56 OFFCURVE",
"165 49 CURVE",
"165 7 LINE",
"95 16 OFFCURVE",
"37 100 OFFCURVE"
);
}
);
width = 1080;
},
{
layerId = "700B375B-E5F6-4156-8225-245C9DB4E923";
paths = (
{
closed = 1;
nodes = (
"856 -66 CURVE SMOOTH",
"856 -36 OFFCURVE",
"864 -5 OFFCURVE",
"883 25 CURVE",
"985 51 LINE",
"997 5 LINE",
"984 -10 OFFCURVE",
"977 -30 OFFCURVE",
"977 -49 CURVE SMOOTH",
"977 -81 OFFCURVE",
"995 -110 OFFCURVE",
"1032 -110 CURVE SMOOTH",
"1060 -110 OFFCURVE",
"1090 -97 OFFCURVE",
"1116 -62 CURVE",
"1204 -121 LINE",
"1151 -200 OFFCURVE",
"1089 -230 OFFCURVE",
"1032 -230 CURVE SMOOTH",
"927 -230 OFFCURVE",
"856 -153 OFFCURVE"
);
},
{
closed = 1;
nodes = (
"705 247 CURVE SMOOTH",
"705 377 OFFCURVE",
"815 480 OFFCURVE",
"952 480 CURVE SMOOTH",
"974 480 OFFCURVE",
"987 478 OFFCURVE",
"1008 476 CURVE",
"1009 483 OFFCURVE",
"1009 490 OFFCURVE",
"1009 497 CURVE SMOOTH",
"1009 539 OFFCURVE",
"984 567 OFFCURVE",
"952 567 CURVE SMOOTH",
"918 567 OFFCURVE",
"900 543 OFFCURVE",
"900 516 CURVE SMOOTH",
"900 502 OFFCURVE",
"904 486 OFFCURVE",
"913 476 CURVE",
"825 431 LINE",
"803 460 OFFCURVE",
"794 490 OFFCURVE",
"794 522 CURVE SMOOTH",
"794 608 OFFCURVE",
"853 678 OFFCURVE",
"952 678 CURVE SMOOTH",
"1039 678 OFFCURVE",
"1121 614 OFFCURVE",
"1121 489 CURVE SMOOTH",
"1121 454 OFFCURVE",
"1113 406 OFFCURVE",
"1099 362 CURVE",
"952 362 LINE SMOOTH",
"888 362 OFFCURVE",
"833 312 OFFCURVE",
"833 247 CURVE SMOOTH",
"833 182 OFFCURVE",
"886 132 OFFCURVE",
"952 132 CURVE SMOOTH",
"992 132 OFFCURVE",
"1028 150 OFFCURVE",
"1051 177 CURVE",
"1149 106 LINE",
"1103 41 OFFCURVE",
"1032 0 OFFCURVE",
"952 0 CURVE SMOOTH",
"815 0 OFFCURVE",
"705 110 OFFCURVE"
);
},
{
closed = 1;
nodes = (
"454 342 LINE",
"508 376 OFFCURVE",
"511 412 OFFCURVE",
"511 446 CURVE SMOOTH",
"511 468 LINE",
"520 602 OFFCURVE",
"612 665 OFFCURVE",
"711 665 CURVE SMOOTH",
"810 665 OFFCURVE",
"880 607 OFFCURVE",
"901 505 CURVE",
"801 477 LINE",
"793 512 OFFCURVE",
"757 543 OFFCURVE",
"711 543 CURVE SMOOTH",
"650 543 OFFCURVE",
"631 509 OFFCURVE",
"627 443 CURVE SMOOTH",
"627 412 LINE SMOOTH",
"627 326 OFFCURVE",
"575 289 OFFCURVE",
"507 250 CURVE"
);
},
{
closed = 1;
nodes = (
"233 332 CURVE SMOOTH",
"233 586 OFFCURVE",
"329 665 OFFCURVE",
"447 665 CURVE SMOOTH",
"534 665 OFFCURVE",
"581 608 OFFCURVE",
"591 567 CURVE",
"517 485 LINE",
"512 504 OFFCURVE",
"495 544 OFFCURVE",
"447 544 CURVE SMOOTH",
"398 544 OFFCURVE",
"357 494 OFFCURVE",
"357 332 CURVE SMOOTH",
"357 164 OFFCURVE",
"410 122 OFFCURVE",
"466 122 CURVE SMOOTH",
"536 122 OFFCURVE",
"557 166 OFFCURVE",
"557 210 CURVE SMOOTH",
"557 249 OFFCURVE",
"539 263 OFFCURVE",
"525 269 CURVE",
"597 348 LINE",
"638 335 OFFCURVE",
"673 277 OFFCURVE",
"673 215 CURVE SMOOTH",
"673 108 OFFCURVE",
"615 0 OFFCURVE",
"466 0 CURVE SMOOTH",
"344 0 OFFCURVE",
"233 66 OFFCURVE"
);
},
{
closed = 1;
nodes = (
"36 323 CURVE SMOOTH",
"36 576 OFFCURVE",
"121 665 OFFCURVE",
"225 665 CURVE SMOOTH",
"304 665 OFFCURVE",
"347 600 OFFCURVE",
"357 554 CURVE",
"296 485 LINE",
"290 504 OFFCURVE",
"274 546 OFFCURVE",
"231 546 CURVE SMOOTH",
"192 546 OFFCURVE",
"157 484 OFFCURVE",
"157 323 CURVE SMOOTH",
"157 150 OFFCURVE",
"184 116 OFFCURVE",
"222 116 CURVE",
"222 0 LINE",
"113 0 OFFCURVE",
"36 53 OFFCURVE"
);
}
);
width = 1198;
}
);
rightMetricsKey = sinDa;
unicode = 0DA5;
}
